LinguisticsPro-Italic.ufo
<glyph name="quotedbl" format="2">
  <advance width="402"/>
  <unicode hex="0022"/>
  <outline>
    <contour>
      <point x="206" y="469" type="line"/>
      <point x="218" y="690" type="line"/>
      <point x="221" y="725"/>
      <point x="235" y="742"/>
      <point x="273" y="742" type="curve" smooth="yes"/>
      <point x="315" y="742"/>
      <point x="327" y="725"/>
      <point x="314" y="690" type="curve" smooth="yes"/>
      <point x="234" y="469" type="line"/>
    </contour>
    <contour>
      <point x="376" y="469" type="line"/>
      <point x="388" y="690" type="line"/>
      <point x="391" y="725"/>
      <point x="405" y="742"/>
      <point x="443" y="742" type="curve" smooth="yes"/>
      <point x="485" y="742"/>
      <point x="497" y="725"/>
      <point x="484" y="690" type="curve" smooth="yes"/>
      <point x="404" y="469" type="line"/>
    </contour>
  </outline>
</glyph>
<glyph name="quotesingle" format="2">
  <advance width="216"/>
  <unicode hex="0027"/>
  <outline>
    <contour>
      <point x="196" y="469" type="line"/>
      <point x="208" y="690" type="line"/>
      <point x="211" y="725"/>
      <point x="225" y="742"/>
      <point x="263" y="742" type="curve" smooth="yes"/>
      <point x="305" y="742"/>
      <point x="317" y="725"/>
      <point x="304" y="690" type="curve" smooth="yes"/>
      <point x="224" y="469" type="line"/>
    </contour>
  </outline>
</glyph>
<glyph name="parenleft" format="2">
  <advance width="350"/>
  <unicode hex="0028"/>
  <outline>
    <contour>
      <point x="160" y="301" type="curve"/>
      <point x="160" y="301"/>
      <point x="160" y="301"/>
      <point x="160" y="301" type="curve"/>
      <point x="181" y="398"/>
      <point x="213" y="482"/>
      <point x="254" y="548" type="curve" smooth="yes"/>
      <point x="313" y="641"/>
      <point x="393" y="696"/>
      <point x="493" y="692" type="curve"/>
      <point x="488" y="667" type="line"/>
      <point x="395" y="652"/>
      <point x="288" y="554"/>
      <point x="231" y="306" type="curve" smooth="yes"/>
      <point x="167" y="28"/>
      <point x="254" y="-92"/>
      <point x="309" y="-105" type="curve"/>
      <point x="303" y="-128" type="line"/>
      <point x="167" y="-118"/>
      <point x="108" y="68"/>
    </contour>
  </outline>
</glyph>
<glyph name="plus" format="2">
  <advance width="570"/>
  <unicode hex="002B"/>
  <outline>
    <contour>
      <point x="93" y="221" type="line"/>
      <point x="93" y="279" type="line"/>
      <point x="301" y="279" type="line"/>
      <point x="301" y="490" type="line"/>
      <point x="369" y="490" type="line"/>
      <point x="369" y="279" type="line"/>
      <point x="577" y="279" type="line"/>
      <point x="577" y="221" type="line"/>
      <point x="369" y="221" type="line"/>
      <point x="369" y="0" type="line"/>
      <point x="301" y="0" type="line"/>
      <point x="301" y="221" type="line"/>
    </contour>
  </outline>
</glyph>
<glyph name="comma" format="2">
  <advance width="265"/>
  <unicode hex="002C"/>
  <outline>
    <contour>
      <point x="46" y="-116" type="line"/>
      <point x="82" y="-81"/>
      <point x="113" y="-41"/>
      <point x="117" y="-1" type="curve" smooth="yes"/>
      <point x="119" y="20"/>
      <point x="113" y="34"/>
      <point x="106" y="49" type="curve"/>
      <point x="101" y="61"/>
      <point x="94" y="74"/>
      <point x="94" y="89" type="curve" smooth="yes"/>
      <point x="94" y="117"/>
      <point x="118" y="142"/>
      <point x="150" y="142" type="curve"/>
      <point x="187" y="144"/>
      <point x="208" y="106"/>
      <point x="208" y="74" type="curve" smooth="yes"/>
      <point x="208" y="-16"/>
      <point x="125" y="-82"/>
      <point x="63" y="-134" type="curve"/>
    </contour>
  </outline>
</glyph>
<glyph name="hyphen" format="2">
  <advance width="351"/>
  <unicode hex="002D"/>
  <outline>
    <contour>
      <point x="99" y="216" type="line"/>
      <point x="113" y="286" type="line"/>
      <point x="363" y="286" type="line"/>
      <point x="349" y="216" type="line"/>
    </contour>
  </outline>
</glyph>
<glyph name="one" format="2">
  <advance width="441"/>
  <unicode hex="0031"/>
  <outline>
    <contour>
      <point x="64" y="0" type="line"/>
      <point x="70" y="29" type="line"/>
      <point x="161" y="36" type="line" smooth="yes"/>
      <point x="178" y="37"/>
      <point x="189" y="48"/>
      <point x="194" y="72" type="curve" smooth="yes"/>
      <point x="307" y="578" type="line" smooth="yes"/>
      <point x="311" y="597"/>
      <point x="309" y="609"/>
      <point x="295" y="611" type="curve"/>
      <point x="198" y="621" type="line"/>
      <point x="206" y="645" type="line"/>
      <point x="411" y="680" type="line"/>
      <point x="419" y="674" type="line"/>
      <point x="283" y="72" type="line" smooth="yes"/>
      <point x="277" y="44"/>
      <point x="288" y="35"/>
      <point x="304" y="34" type="curve" smooth="yes"/>
      <point x="393" y="29" type="line"/>
      <point x="387" y="0" type="line"/>
    </contour>
  </outline>
</glyph>
<glyph name="three" format="2">
  <advance width="551"/>
  <unicode hex="0033"/>
  <outline>
    <contour>
      <point x="61" y="111" type="curve" smooth="yes"/>
      <point x="61" y="144"/>
      <point x="89" y="166"/>
      <point x="112" y="166" type="curve" smooth="yes"/>
      <point x="163" y="166"/>
      <point x="131" y="23"/>
      <point x="272" y="23" type="curve" smooth="yes"/>
      <point x="336" y="23"/>
      <point x="424" y="71"/>
      <point x="424" y="223" type="curve" smooth="yes"/>
      <point x="424" y="269"/>
      <point x="405" y="350"/>
      <point x="318" y="350" type="curve" smooth="yes"/>
      <point x="276" y="350"/>
      <point x="240" y="340"/>
      <point x="227" y="340" type="curve" smooth="yes"/>
      <point x="211" y="340"/>
      <point x="208" y="350"/>
      <point x="208" y="362" type="curve" smooth="yes"/>
      <point x="208" y="379"/>
      <point x="217" y="399"/>
      <point x="230" y="399" type="curve" smooth="yes"/>
      <point x="259" y="399"/>
      <point x="294" y="388"/>
      <point x="327" y="388" type="curve" smooth="yes"/>
      <point x="407" y="388"/>
      <point x="468" y="457"/>
      <point x="468" y="542" type="curve" smooth="yes"/>
      <point x="468" y="581"/>
      <point x="455" y="645"/>
      <point x="375" y="645" type="curve" smooth="yes"/>
      <point x="321" y="645"/>
      <point x="282" y="604"/>
      <point x="257" y="540" type="curve" smooth="yes"/>
      <point x="249" y="521"/>
      <point x="240" y="513"/>
      <point x="226" y="513" type="curve" smooth="yes"/>
      <point x="209" y="513"/>
      <point x="182" y="528"/>
      <point x="182" y="559" type="curve" smooth="yes"/>
      <point x="182" y="625"/>
      <point x="271" y="680"/>
      <point x="380" y="680" type="curve" smooth="yes"/>
      <point x="460" y="680"/>
      <point x="566" y="648"/>
      <point x="566" y="531" type="curve" smooth="yes"/>
      <point x="566" y="422"/>
      <point x="465" y="380"/>
      <point x="389" y="374" type="curve"/>
      <point x="389" y="371" type="line"/>
      <point x="447" y="363"/>
      <point x="528" y="319"/>
      <point x="528" y="213" type="curve" smooth="yes"/>
      <point x="528" y="63"/>
      <point x="407" y="-12"/>
      <point x="269" y="-12" type="curve" smooth="yes"/>
      <point x="127" y="-12"/>
      <point x="61" y="63"/>
    </contour>
  </outline>
</glyph>
<glyph name="four" format="2">
  <advance width="579"/>
  <unicode hex="0034"/>
  <outline>
    <contour>
      <point x="167" y="233" type="curve"/>
      <point x="377" y="233" type="line"/>
      <point x="450" y="573" type="line"/>
      <point x="448" y="575" type="line"/>
      <point x="349" y="469"/>
      <point x="255" y="351"/>
    </contour>
    <contour>
      <point x="83" y="206" type="line"/>
      <point x="212" y="367"/>
      <point x="345" y="526"/>
      <point x="485" y="668" type="curve"/>
      <point x="553" y="668" type="line"/>
      <point x="462" y="233" type="line"/>
      <point x="560" y="233" type="line"/>
      <point x="550" y="187" type="line"/>
      <point x="452" y="187" type="line"/>
      <point x="427" y="67" type="line" smooth="yes"/>
      <point x="422" y="43"/>
      <point x="427" y="33"/>
      <point x="447" y="32" type="curve" smooth="yes"/>
      <point x="497" y="29" type="line"/>
      <point x="490" y="0" type="line"/>
      <point x="226" y="0" type="line"/>
      <point x="234" y="29" type="line"/>
      <point x="283" y="32" type="line"/>
      <point x="308" y="34" type="line" smooth="yes"/>
      <point x="324" y="35"/>
      <point x="337" y="42"/>
      <point x="342" y="67" type="curve" smooth="yes"/>
      <point x="367" y="187" type="line"/>
      <point x="92" y="187" type="line"/>
    </contour>
  </outline>
</glyph>
<glyph name="nine" format="2">
  <advance width="549"/>
  <unicode hex="0039"/>
  <outline>
    <contour>
      <point x="233" y="452" type="curve" smooth="yes"/>
      <point x="233" y="381"/>
      <point x="263" y="316"/>
      <point x="357" y="316" type="curve" smooth="yes"/>
      <point x="451" y="316"/>
      <point x="483" y="410"/>
      <point x="483" y="492" type="curve" smooth="yes"/>
      <point x="483" y="587"/>
      <point x="440" y="645"/>
      <point x="368" y="645" type="curve" smooth="yes"/>
      <point x="296" y="645"/>
      <point x="233" y="579"/>
    </contour>
    <contour>
      <point x="93" y="96" type="curve" smooth="yes"/>
      <point x="93" y="132"/>
      <point x="121" y="152"/>
      <point x="140" y="152" type="curve" smooth="yes"/>
      <point x="187" y="152"/>
      <point x="165" y="23"/>
      <point x="269" y="23" type="curve" smooth="yes"/>
      <point x="402" y="23"/>
      <point x="458" y="237"/>
      <point x="473" y="338" type="curve"/>
      <point x="471" y="339" type="line"/>
      <point x="421" y="289"/>
      <point x="372" y="266"/>
      <point x="317" y="266" type="curve" smooth="yes"/>
      <point x="217" y="266"/>
      <point x="140" y="334"/>
      <point x="140" y="439" type="curve" smooth="yes"/>
      <point x="140" y="572"/>
      <point x="233" y="680"/>
      <point x="370" y="680" type="curve" smooth="yes"/>
      <point x="516" y="680"/>
      <point x="578" y="582"/>
      <point x="578" y="426" type="curve" smooth="yes"/>
      <point x="578" y="244"/>
      <point x="492" y="-12"/>
      <point x="270" y="-12" type="curve" smooth="yes"/>
      <point x="157" y="-12"/>
      <point x="93" y="51"/>
    </contour>
  </outline>
</glyph>
<glyph name="colon" format="2">
  <advance width="265"/>
  <unicode hex="003A"/>
  <outline>
    <contour>
      <point x="161" y="422" type="curve" smooth="yes"/>
      <point x="161" y="463"/>
      <point x="188" y="490"/>
      <point x="226" y="490" type="curve" smooth="yes"/>
      <point x="262" y="490"/>
      <point x="283" y="464"/>
      <point x="283" y="434" type="curve" smooth="yes"/>
      <point x="283" y="392"/>
      <point x="257" y="365"/>
      <point x="218" y="365" type="curve" smooth="yes"/>
      <point x="182" y="365"/>
      <point x="161" y="390"/>
    </contour>
    <contour>
      <point x="82" y="45" type="curve" smooth="yes"/>
      <point x="82" y="86"/>
      <point x="109" y="113"/>
      <point x="147" y="113" type="curve" smooth="yes"/>
      <point x="183" y="113"/>
      <point x="204" y="87"/>
      <point x="204" y="57" type="curve" smooth="yes"/>
      <point x="204" y="15"/>
      <point x="178" y="-12"/>
      <point x="139" y="-12" type="curve" smooth="yes"/>
      <point x="103" y="-12"/>
      <point x="82" y="13"/>
    </contour>
  </outline>
</glyph>
<glyph name="semicolon" format="2">
  <advance width="265"/>
  <unicode hex="003B"/>
  <outline>
    <contour>
      <point x="46" y="-116" type="line"/>
      <point x="82" y="-81"/>
      <point x="113" y="-41"/>
      <point x="117" y="-1" type="curve" smooth="yes"/>
      <point x="119" y="16"/>
      <point x="115" y="28"/>
      <point x="110" y="40" type="curve"/>
      <point x="109" y="43"/>
      <point x="107" y="46"/>
      <point x="106" y="49" type="curve"/>
      <point x="102" y="58"/>
      <point x="97" y="68"/>
      <point x="95" y="78" type="curve"/>
      <point x="94" y="82"/>
      <point x="94" y="85"/>
      <point x="94" y="89" type="curve" smooth="yes"/>
      <point x="94" y="117"/>
      <point x="118" y="142"/>
      <point x="150" y="142" type="curve"/>
      <point x="187" y="144"/>
      <point x="208" y="106"/>
      <point x="208" y="74" type="curve" smooth="yes"/>
      <point x="208" y="-16"/>
      <point x="125" y="-82"/>
      <point x="63" y="-134" type="curve"/>
    </contour>
    <contour>
      <point x="161" y="422" type="curve" smooth="yes"/>
      <point x="161" y="463"/>
      <point x="188" y="490"/>
      <point x="226" y="490" type="curve" smooth="yes"/>
      <point x="262" y="490"/>
      <point x="283" y="464"/>
      <point x="283" y="434" type="curve" smooth="yes"/>
      <point x="283" y="392"/>
      <point x="257" y="365"/>
      <point x="218" y="365" type="curve" smooth="yes"/>
      <point x="182" y="365"/>
      <point x="161" y="390"/>
    </contour>
  </outline>
</glyph>
<glyph name="less" format="2">
  <advance width="570"/>
  <unicode hex="003C"/>
  <outline>
    <contour>
      <point x="86" y="207" type="line"/>
      <point x="86" y="288" type="line"/>
      <point x="564" y="497" type="line"/>
      <point x="564" y="428" type="line"/>
      <point x="145" y="248" type="line"/>
      <point x="564" y="68" type="line"/>
      <point x="564" y="1" type="line"/>
    </contour>
  </outline>
</glyph>
<glyph name="question" format="2">
  <advance width="425"/>
  <unicode hex="003F"/>
  <outline>
    <contour>
      <point x="150" y="45" type="curve" smooth="yes"/>
      <point x="150" y="86"/>
      <point x="177" y="113"/>
      <point x="215" y="113" type="curve" smooth="yes"/>
      <point x="251" y="113"/>
      <point x="272" y="87"/>
      <point x="272" y="57" type="curve" smooth="yes"/>
      <point x="272" y="15"/>
      <point x="246" y="-12"/>
      <point x="207" y="-12" type="curve" smooth="yes"/>
      <point x="171" y="-12"/>
      <point x="150" y="13"/>
    </contour>
    <contour>
      <point x="164" y="593" type="curve" smooth="yes"/>
      <point x="164" y="634"/>
      <point x="222" y="707"/>
      <point x="334" y="707" type="curve" smooth="yes"/>
      <point x="431" y="707"/>
      <point x="491" y="655"/>
      <point x="491" y="580" type="curve" smooth="yes"/>
      <point x="491" y="574"/>
      <point x="491" y="568"/>
      <point x="490" y="563" type="curve"/>
      <point x="484" y="490"/>
      <point x="435" y="457"/>
      <point x="363" y="421" type="curve" smooth="yes"/>
      <point x="298" y="388"/>
      <point x="249" y="354"/>
      <point x="249" y="302" type="curve" smooth="yes"/>
      <point x="249" y="259"/>
      <point x="280" y="244"/>
      <point x="313" y="244" type="curve" smooth="yes"/>
      <point x="331" y="244"/>
      <point x="344" y="246"/>
      <point x="356" y="247" type="curve"/>
      <point x="362" y="230" type="line"/>
      <point x="340" y="214"/>
      <point x="298" y="199"/>
      <point x="264" y="199" type="curve" smooth="yes"/>
      <point x="214" y="199"/>
      <point x="160" y="223"/>
      <point x="160" y="285" type="curve" smooth="yes"/>
      <point x="160" y="332"/>
      <point x="195" y="368"/>
      <point x="264" y="408" type="curve" smooth="yes"/>
      <point x="359" y="464"/>
      <point x="398" y="536"/>
      <point x="398" y="599" type="curve" smooth="yes"/>
      <point x="398" y="640"/>
      <point x="380" y="672"/>
      <point x="339" y="672" type="curve" smooth="yes"/>
      <point x="295" y="672"/>
      <point x="267" y="633"/>
      <point x="246" y="585" type="curve"/>
      <point x="243" y="579"/>
      <point x="241" y="574"/>
      <point x="239" y="568" type="curve"/>
      <point x="235" y="557"/>
      <point x="225" y="549"/>
      <point x="208" y="549" type="curve" smooth="yes"/>
      <point x="192" y="549"/>
      <point x="164" y="564"/>
    </contour>
  </outline>
</glyph>
<glyph name="at" format="2">
  <advance width="794"/>
  <unicode hex="0040"/>
  <outline>
    <contour>
      <point x="382" y="270" type="curve" smooth="yes"/>
      <point x="382" y="237"/>
      <point x="394" y="219"/>
      <point x="416" y="219" type="curve" smooth="yes"/>
      <point x="467" y="219"/>
      <point x="531" y="312"/>
      <point x="569" y="398" type="curve" smooth="yes"/>
      <point x="584" y="432"/>
      <point x="595" y="464"/>
      <point x="600" y="490" type="curve"/>
      <point x="590" y="497"/>
      <point x="581" y="501"/>
      <point x="571" y="503" type="curve"/>
      <point x="565" y="504"/>
      <point x="560" y="504"/>
      <point x="553" y="504" type="curve" smooth="yes"/>
      <point x="448" y="504"/>
      <point x="382" y="331"/>
    </contour>
    <contour>
      <point x="123" y="303" type="curve" smooth="yes"/>
      <point x="123" y="557"/>
      <point x="320" y="707"/>
      <point x="526" y="707" type="curve" smooth="yes"/>
      <point x="716" y="707"/>
      <point x="832" y="576"/>
      <point x="832" y="414" type="curve" smooth="yes"/>
      <point x="832" y="277"/>
      <point x="724" y="172"/>
      <point x="607" y="172" type="curve" smooth="yes"/>
      <point x="557" y="172"/>
      <point x="528" y="194"/>
      <point x="539" y="262" type="curve" smooth="yes"/>
      <point x="541" y="276"/>
      <point x="545" y="291"/>
      <point x="551" y="309" type="curve"/>
      <point x="549" y="310" type="line"/>
      <point x="521" y="260"/>
      <point x="442" y="170"/>
      <point x="366" y="172" type="curve" smooth="yes"/>
      <point x="336" y="173"/>
      <point x="300" y="190"/>
      <point x="300" y="255" type="curve" smooth="yes"/>
      <point x="300" y="329"/>
      <point x="374" y="533"/>
      <point x="552" y="533" type="curve" smooth="yes"/>
      <point x="575" y="533"/>
      <point x="588" y="530"/>
      <point x="607" y="520" type="curve"/>
      <point x="611" y="528" type="line"/>
      <point x="676" y="528" type="line"/>
      <point x="654" y="442"/>
      <point x="632" y="356"/>
      <point x="610" y="270" type="curve" smooth="yes"/>
      <point x="602" y="238"/>
      <point x="607" y="222"/>
      <point x="620" y="215" type="curve"/>
      <point x="626" y="211"/>
      <point x="635" y="210"/>
      <point x="644" y="210" type="curve" smooth="yes"/>
      <point x="711" y="210"/>
      <point x="782" y="306"/>
      <point x="782" y="409" type="curve"/>
      <point x="785" y="573"/>
      <point x="670" y="666"/>
      <point x="528" y="666" type="curve" smooth="yes"/>
      <point x="327" y="666"/>
      <point x="201" y="490"/>
      <point x="201" y="307" type="curve" smooth="yes"/>
      <point x="201" y="184"/>
      <point x="267" y="24"/>
      <point x="492" y="24" type="curve" smooth="yes"/>
      <point x="550" y="24"/>
      <point x="616" y="36"/>
      <point x="661" y="55" type="curve"/>
      <point x="669" y="30" type="line"/>
      <point x="607" y="-4"/>
      <point x="526" y="-15"/>
      <point x="464" y="-15" type="curve" smooth="yes"/>
      <point x="297" y="-15"/>
      <point x="123" y="87"/>
    </contour>
  </outline>
</glyph>
<glyph name="A" format="2">
  <advance width="624"/>
  <unicode hex="0041"/>
  <anchor x="506" y="740" name="top"/>
  <anchor x="462" y="670" name="aring"/>
  <anchor x="321" y="702" name="tonos"/>
  <anchor x="530" y="10" name="ogonek"/>
  <outline>
    <contour>
      <point x="-23" y="0" type="line"/>
      <point x="-17" y="29" type="line"/>
      <point x="16" y="33" type="line" smooth="yes"/>
      <point x="47" y="36"/>
      <point x="64" y="47"/>
      <point x="96" y="99" type="curve" smooth="yes"/>
      <point x="133" y="159"/>
      <point x="216" y="308"/>
      <point x="267" y="397" type="curve" smooth="yes"/>
      <point x="435" y="692" type="line"/>
      <point x="506" y="692" type="line"/>
      <point x="580" y="90" type="line" smooth="yes"/>
      <point x="585" y="49"/>
      <point x="589" y="35"/>
      <point x="620" y="32" type="curve" smooth="yes"/>
      <point x="658" y="29" type="line"/>
      <point x="652" y="0" type="line"/>
      <point x="406" y="0" type="line"/>
      <point x="412" y="29" type="line"/>
      <point x="465" y="34" type="line" smooth="yes"/>
      <point x="485" y="36"/>
      <point x="493" y="44"/>
      <point x="490" y="73" type="curve" smooth="yes"/>
      <point x="467" y="267" type="line"/>
      <point x="243" y="267" type="line"/>
      <point x="206" y="200"/>
      <point x="173" y="135"/>
      <point x="140" y="71" type="curve"/>
      <point x="131" y="50"/>
      <point x="133" y="36"/>
      <point x="153" y="34" type="curve" smooth="yes"/>
      <point x="208" y="29" type="line"/>
      <point x="202" y="0" type="line"/>
    </contour>
    <contour>
      <point x="263" y="305" type="curve"/>
      <point x="462" y="305" type="line"/>
      <point x="427" y="599" type="line"/>
      <point x="425" y="599" type="line"/>
      <point x="371" y="502"/>
      <point x="316" y="404"/>
    </contour>
  </outline>
</glyph>
<glyph name="D" format="2">
  <advance width="763"/>
  <unicode hex="0044"/>
  <outline>
    <contour>
      <point x="40" y="0" type="line"/>
      <point x="46" y="29" type="line"/>
      <point x="102" y="35" type="line" smooth="yes"/>
      <point x="126" y="37"/>
      <point x="136" y="50"/>
      <point x="143" y="83" type="curve" smooth="yes"/>
      <point x="262" y="609" type="line" smooth="yes"/>
      <point x="269" y="642"/>
      <point x="264" y="656"/>
      <point x="241" y="658" type="curve" smooth="yes"/>
      <point x="182" y="663" type="line"/>
      <point x="188" y="692" type="line"/>
      <point x="457" y="692" type="line" smooth="yes"/>
      <point x="646" y="692"/>
      <point x="802" y="623"/>
      <point x="802" y="411" type="curve" smooth="yes"/>
      <point x="802" y="146"/>
      <point x="603" y="0"/>
      <point x="347" y="0" type="curve" smooth="yes"/>
    </contour>
    <contour>
      <point x="239" y="86" type="line" smooth="yes"/>
      <point x="229" y="42"/>
      <point x="266" y="35"/>
      <point x="321" y="35" type="curve" smooth="yes"/>
      <point x="565" y="35"/>
      <point x="695" y="202"/>
      <point x="695" y="433" type="curve" smooth="yes"/>
      <point x="695" y="513"/>
      <point x="677" y="657"/>
      <point x="469" y="657" type="curve" smooth="yes"/>
      <point x="382" y="657"/>
      <point x="368" y="654"/>
      <point x="360" y="620" type="curve" smooth="yes"/>
    </contour>
  </outline>
</glyph>
<glyph name="E" format="2">
  <advance width="596"/>
  <unicode hex="0045"/>
  <anchor x="150" y="692" name="greek.UC.tonos"/>
  <anchor x="150" y="707" name="tonos"/>
  <anchor x="479" y="10" name="ogonek"/>
  <anchor x="463" y="740" name="top"/>
  <outline>
    <contour>
      <point x="38" y="0" type="line"/>
      <point x="44" y="29" type="line"/>
      <point x="100" y="35" type="line" smooth="yes"/>
      <point x="124" y="37"/>
      <point x="133" y="49"/>
      <point x="141" y="83" type="curve" smooth="yes"/>
      <point x="261" y="611" type="line" smooth="yes"/>
      <point x="263.115" y="619.987"/>
      <point x="264.181" y="627.438"/>
      <point x="264.181" y="633.572" type="curve" smooth="yes"/>
      <point x="264.181" y="650.645"/>
      <point x="255.92" y="657.529"/>
      <point x="239" y="659" type="curve" smooth="yes"/>
      <point x="179" y="663" type="line"/>
      <point x="186" y="692" type="line"/>
      <point x="692" y="692" type="line"/>
      <point x="654" y="525" type="line"/>
      <point x="627" y="525" type="line"/>
      <point x="623" y="577" type="line" smooth="yes"/>
      <point x="618" y="639"/>
      <point x="595" y="657"/>
      <point x="529" y="657" type="curve" smooth="yes"/>
      <point x="389" y="657" type="line" smooth="yes"/>
      <point x="372" y="657"/>
      <point x="366" y="652"/>
      <point x="361" y="628" type="curve" smooth="yes"/>
      <point x="304" y="379" type="line"/>
      <point x="435" y="379" type="line" smooth="yes"/>
      <point x="523" y="379"/>
      <point x="534" y="395"/>
      <point x="560" y="464" type="curve"/>
      <point x="590" y="464" type="line"/>
      <point x="544" y="255" type="line"/>
      <point x="514" y="255" type="line"/>
      <point x="514.615" y="265"/>
      <point x="515.065" y="273.959"/>
      <point x="515.065" y="281.959" type="curve" smooth="yes"/>
      <point x="515.065" y="325.964"/>
      <point x="501.462" y="341"/>
      <point x="427" y="341" type="curve" smooth="yes"/>
      <point x="296" y="341" type="line"/>
      <point x="245" y="122" type="line" smooth="yes"/>
      <point x="241.931" y="108.494"/>
      <point x="240.117" y="96.8726"/>
      <point x="240.117" y="86.9298" type="curve" smooth="yes"/>
      <point x="240.115" y="48.2847"/>
      <point x="267.498" y="35"/>
      <point x="354.942" y="35" type="curve" smooth="yes"/>
      <point x="470" y="35"/>
      <point x="519" y="58"/>
      <point x="560" y="136" type="curve" smooth="yes"/>
      <point x="581" y="176" type="line"/>
      <point x="611" y="176" type="line"/>
      <point x="560" y="0" type="line"/>
    </contour>
  </outline>
</glyph>
<glyph name="F" format="2">
  <advance width="571"/>
  <unicode hex="0046"/>
  <outline>
    <contour>
      <point x="38" y="0" type="line"/>
      <point x="44" y="29" type="line"/>
      <point x="100" y="34" type="line" smooth="yes"/>
      <point x="124" y="36"/>
      <point x="134" y="50"/>
      <point x="141" y="80" type="curve" smooth="yes"/>
      <point x="261" y="612" type="line" smooth="yes"/>
      <point x="268" y="641"/>
      <point x="262" y="655"/>
      <point x="239" y="657" type="curve" smooth="yes"/>
      <point x="180" y="663" type="line"/>
      <point x="186" y="692" type="line"/>
      <point x="695" y="692" type="line"/>
      <point x="657" y="527" type="line"/>
      <point x="630" y="527" type="line"/>
      <point x="626" y="585" type="line" smooth="yes"/>
      <point x="622" y="639"/>
      <point x="600" y="657"/>
      <point x="513" y="657" type="curve" smooth="yes"/>
      <point x="390" y="657" type="line" smooth="yes"/>
      <point x="372" y="657"/>
      <point x="367" y="652"/>
      <point x="361" y="627" type="curve" smooth="yes"/>
      <point x="301" y="365" type="line"/>
      <point x="433" y="365" type="line" smooth="yes"/>
      <point x="521" y="365"/>
      <point x="532" y="381"/>
      <point x="558" y="451" type="curve"/>
      <point x="588" y="451" type="line"/>
      <point x="542" y="241" type="line"/>
      <point x="512" y="241" type="line"/>
      <point x="516" y="306"/>
      <point x="513" y="327"/>
      <point x="425" y="327" type="curve" smooth="yes"/>
      <point x="293" y="327" type="line"/>
      <point x="237" y="80" type="line" smooth="yes"/>
      <point x="230" y="50"/>
      <point x="236" y="36"/>
      <point x="260" y="34" type="curve" smooth="yes"/>
      <point x="335" y="29" type="line"/>
      <point x="329" y="0" type="line"/>
    </contour>
  </outline>
</glyph>
<glyph name="H" format="2">
  <advance width="770"/>
  <unicode hex="0048"/>
  <anchor x="151" y="702" name="tonos"/>
  <outline>
    <contour>
      <point x="35" y="0" type="line"/>
      <point x="41" y="29" type="line"/>
      <point x="96" y="35" type="line" smooth="yes"/>
      <point x="120" y="37"/>
      <point x="130" y="49"/>
      <point x="138" y="83" type="curve" smooth="yes"/>
      <point x="258" y="609" type="line" smooth="yes"/>
      <point x="265" y="641"/>
      <point x="259" y="657"/>
      <point x="236" y="659" type="curve" smooth="yes"/>
      <point x="177" y="663" type="line"/>
      <point x="184" y="692" type="line"/>
      <point x="458" y="692" type="line"/>
      <point x="451" y="663" type="line"/>
      <point x="396" y="658" type="line" smooth="yes"/>
      <point x="371" y="656"/>
      <point x="362" y="642"/>
      <point x="354" y="609" type="curve" smooth="yes"/>
      <point x="301" y="379" type="line"/>
      <point x="635" y="379" type="line"/>
      <point x="687" y="609" type="line" smooth="yes"/>
      <point x="694" y="641"/>
      <point x="688" y="657"/>
      <point x="665" y="659" type="curve" smooth="yes"/>
      <point x="606" y="663" type="line"/>
      <point x="613" y="692" type="line"/>
      <point x="887" y="692" type="line"/>
      <point x="880" y="663" type="line"/>
      <point x="825" y="658" type="line" smooth="yes"/>
      <point x="800" y="656"/>
      <point x="791" y="642"/>
      <point x="783" y="609" type="curve" smooth="yes"/>
      <point x="663" y="83" type="line" smooth="yes"/>
      <point x="655" y="50"/>
      <point x="661" y="35"/>
      <point x="685" y="33" type="curve" smooth="yes"/>
      <point x="744" y="29" type="line"/>
      <point x="738" y="0" type="line"/>
      <point x="464" y="0" type="line"/>
      <point x="470" y="29" type="line"/>
      <point x="525" y="35" type="line" smooth="yes"/>
      <point x="549" y="37"/>
      <point x="559" y="49"/>
      <point x="567" y="83" type="curve" smooth="yes"/>
      <point x="626" y="341" type="line"/>
      <point x="292" y="341" type="line"/>
      <point x="234" y="83" type="line" smooth="yes"/>
      <point x="227" y="50"/>
      <point x="232" y="35"/>
      <point x="256" y="33" type="curve" smooth="yes"/>
      <point x="315" y="29" type="line"/>
      <point x="309" y="0" type="line"/>
    </contour>
  </outline>
</glyph>
<glyph name="I" format="2">
  <advance width="341"/>
  <unicode hex="0049"/>
  <anchor x="371" y="740" name="top"/>
  <anchor x="152" y="702" name="tonos"/>
  <outline>
    <contour>
      <point x="35" y="0" type="line"/>
      <point x="41" y="29" type="line"/>
      <point x="96" y="35" type="line" smooth="yes"/>
      <point x="120" y="38"/>
      <point x="131" y="51"/>
      <point x="138" y="83" type="curve" smooth="yes"/>
      <point x="258" y="609" type="line" smooth="yes"/>
      <point x="259.812" y="616.768"/>
      <point x="260.753" y="623.731"/>
      <point x="260.753" y="629.82" type="curve" smooth="yes"/>
      <point x="260.753" y="647.248"/>
      <point x="253.045" y="657.518"/>
      <point x="236" y="659" type="curve" smooth="yes"/>
      <point x="177" y="663" type="line"/>
      <point x="184" y="692" type="line"/>
      <point x="458" y="692" type="line"/>
      <point x="451" y="663" type="line"/>
      <point x="396" y="658" type="line" smooth="yes"/>
      <point x="371" y="656"/>
      <point x="361" y="640"/>
      <point x="354" y="609" type="curve" smooth="yes"/>
      <point x="234" y="83" type="line" smooth="yes"/>
      <point x="232.108" y="74.6192"/>
      <point x="231.092" y="67.2616"/>
      <point x="231.092" y="60.947" type="curve" smooth="yes"/>
      <point x="231.092" y="43.9045"/>
      <point x="238.488" y="34.4593"/>
      <point x="256" y="33" type="curve" smooth="yes"/>
      <point x="315" y="29" type="line"/>
      <point x="309" y="0" type="line"/>
    </contour>
  </outline>
  <guideline angle="77.1487" x="138" y="83"/>
</glyph>
<glyph name="N" format="2">
  <advance width="763"/>
  <unicode hex="004E"/>
  <anchor x="545" y="740" name="top"/>
  <outline>
    <contour>
      <point x="31" y="0" type="line"/>
      <point x="36" y="29" type="line"/>
      <point x="67" y="32" type="line" smooth="yes"/>
      <point x="97" y="35"/>
      <point x="114" y="43"/>
      <point x="126" y="75" type="curve" smooth="yes"/>
      <point x="138" y="108"/>
      <point x="149" y="146"/>
      <point x="161" y="199" type="curve" smooth="yes"/>
      <point x="255" y="609" type="line" smooth="yes"/>
      <point x="263" y="642"/>
      <point x="256" y="655"/>
      <point x="233" y="657" type="curve" smooth="yes"/>
      <point x="174" y="663" type="line"/>
      <point x="181" y="692" type="line"/>
      <point x="371" y="692" type="line"/>
      <point x="455" y="505"/>
      <point x="541" y="318"/>
      <point x="627" y="131" type="curve"/>
      <point x="631" y="131" type="line"/>
      <point x="713" y="493" type="line" smooth="yes"/>
      <point x="725" y="546"/>
      <point x="731" y="584"/>
      <point x="734" y="617" type="curve" smooth="yes"/>
      <point x="737" y="650"/>
      <point x="720" y="655"/>
      <point x="688" y="659" type="curve" smooth="yes"/>
      <point x="649" y="663" type="line"/>
      <point x="654" y="692" type="line"/>
      <point x="890" y="692" type="line"/>
      <point x="885" y="663" type="line"/>
      <point x="854" y="660" type="line" smooth="yes"/>
      <point x="824" y="657"/>
      <point x="807" y="649"/>
      <point x="795" y="617" type="curve" smooth="yes"/>
      <point x="783" y="584"/>
      <point x="772" y="546"/>
      <point x="760" y="493" type="curve" smooth="yes"/>
      <point x="648" y="0" type="line"/>
      <point x="583" y="0" type="line"/>
      <point x="491" y="203"/>
      <point x="399" y="406"/>
      <point x="305" y="609" type="curve"/>
      <point x="302" y="609" type="line"/>
      <point x="208" y="199" type="line" smooth="yes"/>
      <point x="196" y="146"/>
      <point x="190" y="108"/>
      <point x="187" y="75" type="curve" smooth="yes"/>
      <point x="184" y="44"/>
      <point x="201" y="35"/>
      <point x="233" y="32" type="curve" smooth="yes"/>
      <point x="272" y="29" type="line"/>
      <point x="267" y="0" type="line"/>
    </contour>
  </outline>
</glyph>
<glyph name="O" format="2">
  <advance width="753"/>
  <unicode hex="004F"/>
  <anchor x="532" y="740" name="top"/>
  <anchor x="400" y="10" name="ogonek"/>
  <anchor x="151" y="702" name="tonos"/>
  <outline>
    <contour>
      <point x="114" y="270" type="curve" smooth="yes"/>
      <point x="114" y="492"/>
      <point x="260" y="707"/>
      <point x="500" y="707" type="curve" smooth="yes"/>
      <point x="665" y="707"/>
      <point x="789" y="619"/>
      <point x="789" y="414" type="curve" smooth="yes"/>
      <point x="789" y="191"/>
      <point x="646" y="-15"/>
      <point x="407" y="-15" type="curve" smooth="yes"/>
      <point x="208" y="-15"/>
      <point x="114" y="105"/>
    </contour>
    <contour>
      <point x="219" y="230" type="curve" smooth="yes"/>
      <point x="219" y="91"/>
      <point x="290" y="20"/>
      <point x="398" y="20" type="curve" smooth="yes"/>
      <point x="610" y="20"/>
      <point x="684" y="295"/>
      <point x="684" y="466" type="curve" smooth="yes"/>
      <point x="684" y="607"/>
      <point x="614" y="672"/>
      <point x="504" y="672" type="curve" smooth="yes"/>
      <point x="300" y="672"/>
      <point x="219" y="395"/>
    </contour>
  </outline>
</glyph>
<glyph name="P" format="2">
  <advance width="614"/>
  <unicode hex="0050"/>
  <outline>
    <contour>
      <point x="40" y="0" type="line"/>
      <point x="46" y="29" type="line"/>
      <point x="101" y="35" type="line" smooth="yes"/>
      <point x="125" y="37"/>
      <point x="135" y="49"/>
      <point x="143" y="83" type="curve" smooth="yes"/>
      <point x="263" y="609" type="line" smooth="yes"/>
      <point x="271" y="642"/>
      <point x="264" y="656"/>
      <point x="241" y="658" type="curve" smooth="yes"/>
      <point x="182" y="663" type="line"/>
      <point x="189" y="692" type="line"/>
      <point x="423" y="692" type="line" smooth="yes"/>
      <point x="546" y="692"/>
      <point x="681" y="658"/>
      <point x="681" y="508" type="curve" smooth="yes"/>
      <point x="681" y="325"/>
      <point x="507" y="280"/>
      <point x="358" y="280" type="curve" smooth="yes"/>
      <point x="284" y="280" type="line"/>
      <point x="239" y="83" type="line" smooth="yes"/>
      <point x="232" y="51"/>
      <point x="237" y="37"/>
      <point x="261" y="35" type="curve" smooth="yes"/>
      <point x="330" y="29" type="line"/>
      <point x="324" y="0" type="line"/>
    </contour>
    <contour>
      <point x="301" y="357" type="line" smooth="yes"/>
      <point x="294" y="325"/>
      <point x="292" y="315"/>
      <point x="361" y="315" type="curve" smooth="yes"/>
      <point x="496" y="315"/>
      <point x="576" y="383"/>
      <point x="576" y="526" type="curve" smooth="yes"/>
      <point x="576" y="611"/>
      <point x="525" y="657"/>
      <point x="426" y="657" type="curve" smooth="yes"/>
      <point x="375" y="657"/>
      <point x="368" y="648"/>
      <point x="362" y="622" type="curve" smooth="yes"/>
    </contour>
  </outline>
</glyph>
<glyph name="R" format="2">
  <advance width="640"/>
  <unicode hex="0052"/>
  <outline>
    <contour>
      <point x="40" y="0" type="line"/>
      <point x="46" y="29" type="line"/>
      <point x="101" y="35" type="line" smooth="yes"/>
      <point x="125" y="37"/>
      <point x="135" y="48"/>
      <point x="143" y="83" type="curve" smooth="yes"/>
      <point x="263" y="609" type="line" smooth="yes"/>
      <point x="271" y="642"/>
      <point x="264" y="656"/>
      <point x="241" y="658" type="curve" smooth="yes"/>
      <point x="182" y="663" type="line"/>
      <point x="189" y="692" type="line"/>
      <point x="459" y="692" type="line" smooth="yes"/>
      <point x="646" y="692"/>
      <point x="677" y="602"/>
      <point x="677" y="531" type="curve" smooth="yes"/>
      <point x="677" y="432"/>
      <point x="593" y="362"/>
      <point x="471" y="345" type="curve"/>
      <point x="471" y="343" type="line"/>
      <point x="562" y="318"/>
      <point x="564" y="250"/>
      <point x="563" y="170" type="curve" smooth="yes"/>
      <point x="562" y="118"/>
      <point x="567" y="81"/>
      <point x="577" y="64" type="curve" smooth="yes"/>
      <point x="589" y="44"/>
      <point x="613" y="33"/>
      <point x="657" y="29" type="curve"/>
      <point x="648" y="0" type="line"/>
      <point x="570" y="0" type="line" smooth="yes"/>
      <point x="506" y="0"/>
      <point x="476" y="27"/>
      <point x="469" y="77" type="curve" smooth="yes"/>
      <point x="460" y="151"/>
      <point x="468" y="228"/>
      <point x="462" y="264" type="curve" smooth="yes"/>
      <point x="452" y="322"/>
      <point x="403" y="326"/>
      <point x="354" y="326" type="curve" smooth="yes"/>
      <point x="294" y="326" type="line"/>
      <point x="239" y="83" type="line" smooth="yes"/>
      <point x="231" y="49"/>
      <point x="237" y="36"/>
      <point x="261" y="34" type="curve" smooth="yes"/>
      <point x="320" y="29" type="line"/>
      <point x="314" y="0" type="line"/>
    </contour>
    <contour>
      <point x="302" y="361" type="line"/>
      <point x="366" y="361" type="line" smooth="yes"/>
      <point x="495" y="361"/>
      <point x="572" y="422"/>
      <point x="572" y="541" type="curve" smooth="yes"/>
      <point x="572" y="628"/>
      <point x="512" y="657"/>
      <point x="447" y="657" type="curve" smooth="yes"/>
      <point x="371" y="657"/>
      <point x="368" y="648"/>
      <point x="361" y="619" type="curve" smooth="yes"/>
    </contour>
  </outline>
</glyph>
<glyph name="U" format="2">
  <advance width="794"/>
  <unicode hex="0055"/>
  <anchor x="573" y="740" name="top"/>
  <outline>
    <contour>
      <point x="177" y="256" type="curve" smooth="yes"/>
      <point x="261" y="609" type="line" smooth="yes"/>
      <point x="269" y="642"/>
      <point x="262" y="656"/>
      <point x="239" y="658" type="curve" smooth="yes"/>
      <point x="180" y="663" type="line"/>
      <point x="187" y="692" type="line"/>
      <point x="461" y="692" type="line"/>
      <point x="454" y="663" type="line"/>
      <point x="399" y="659" type="line" smooth="yes"/>
      <point x="374" y="657"/>
      <point x="365" y="643"/>
      <point x="357" y="609" type="curve" smooth="yes"/>
      <point x="278" y="269" type="line" smooth="yes"/>
      <point x="234" y="81"/>
      <point x="304" y="20"/>
      <point x="415" y="20" type="curve" smooth="yes"/>
      <point x="554" y="20"/>
      <point x="603" y="127"/>
      <point x="634" y="260" type="curve" smooth="yes"/>
      <point x="715" y="609" type="line" smooth="yes"/>
      <point x="723" y="642"/>
      <point x="716" y="656"/>
      <point x="693" y="658" type="curve" smooth="yes"/>
      <point x="634" y="663" type="line"/>
      <point x="641" y="692" type="line"/>
      <point x="915" y="692" type="line"/>
      <point x="908" y="663" type="line"/>
      <point x="853" y="658" type="line" smooth="yes"/>
      <point x="828" y="656"/>
      <point x="819" y="643"/>
      <point x="811" y="609" type="curve" smooth="yes"/>
      <point x="726" y="247" type="line" smooth="yes"/>
      <point x="671" y="14"/>
      <point x="546" y="-15"/>
      <point x="410" y="-15" type="curve" smooth="yes"/>
      <point x="238" y="-15"/>
      <point x="130" y="57"/>
    </contour>
  </outline>
</glyph>
<glyph name="V" format="2">
  <advance width="637"/>
  <unicode hex="0056"/>
  <outline>
    <contour>
      <point x="131" y="663" type="line"/>
      <point x="136" y="692" type="line"/>
      <point x="386" y="692" type="line"/>
      <point x="381" y="663" type="line"/>
      <point x="317" y="657" type="line" smooth="yes"/>
      <point x="299" y="655"/>
      <point x="298" y="643"/>
      <point x="300" y="624" type="curve" smooth="yes"/>
      <point x="308" y="541"/>
      <point x="318" y="454"/>
      <point x="330" y="366" type="curve" smooth="yes"/>
      <point x="365" y="100" type="line"/>
      <point x="367" y="100" type="line"/>
      <point x="510" y="349" type="line" smooth="yes"/>
      <point x="594" y="495"/>
      <point x="642" y="582"/>
      <point x="663" y="627" type="curve" smooth="yes"/>
      <point x="674" y="650"/>
      <point x="669" y="656"/>
      <point x="651" y="658" type="curve" smooth="yes"/>
      <point x="596" y="663" type="line"/>
      <point x="601" y="692" type="line"/>
      <point x="821" y="692" type="line"/>
      <point x="816" y="663" type="line"/>
      <point x="763" y="659"/>
      <point x="747" y="653"/>
      <point x="725" y="619" type="curve" smooth="yes"/>
      <point x="685" y="557"/>
      <point x="624" y="456"/>
      <point x="559" y="345" type="curve" smooth="yes"/>
      <point x="356" y="0" type="line"/>
      <point x="287" y="0" type="line"/>
      <point x="245" y="320" type="line" smooth="yes"/>
      <point x="232" y="420"/>
      <point x="220" y="519"/>
      <point x="208" y="611" type="curve" smooth="yes"/>
      <point x="203" y="647"/>
      <point x="194" y="655"/>
      <point x="171" y="658" type="curve" smooth="yes"/>
    </contour>
  </outline>
</glyph>
<glyph name="W" format="2">
  <advance width="946"/>
  <unicode hex="0057"/>
  <outline>
    <contour>
      <point x="121" y="663" type="line"/>
      <point x="127" y="692" type="line"/>
      <point x="380" y="692" type="line"/>
      <point x="373" y="663" type="line"/>
      <point x="308" y="657" type="line"/>
      <point x="292" y="656"/>
      <point x="285" y="648"/>
      <point x="287" y="625" type="curve" smooth="yes"/>
      <point x="320" y="122" type="line"/>
      <point x="325" y="122" type="line"/>
      <point x="596" y="674" type="line"/>
      <point x="666" y="674" type="line"/>
      <point x="717" y="122" type="line"/>
      <point x="721" y="122" type="line"/>
      <point x="841" y="373" type="line" smooth="yes"/>
      <point x="902" y="500"/>
      <point x="939" y="582"/>
      <point x="955" y="622" type="curve" smooth="yes"/>
      <point x="963" y="643"/>
      <point x="962" y="654"/>
      <point x="946" y="656" type="curve" smooth="yes"/>
      <point x="881" y="663" type="line"/>
      <point x="886" y="692" type="line"/>
      <point x="1110" y="692" type="line"/>
      <point x="1105" y="663" type="line"/>
      <point x="1043" y="657"/>
      <point x="1036" y="651"/>
      <point x="1008" y="603" type="curve" smooth="yes"/>
      <point x="990" y="572"/>
      <point x="939" y="471"/>
      <point x="883" y="357" type="curve" smooth="yes"/>
      <point x="709" y="0" type="line"/>
      <point x="639" y="0" type="line"/>
      <point x="587" y="551" type="line"/>
      <point x="582" y="551" type="line"/>
      <point x="308" y="0" type="line"/>
      <point x="238" y="0" type="line"/>
      <point x="194" y="616" type="line" smooth="yes"/>
      <point x="192" y="646"/>
      <point x="187" y="656"/>
      <point x="165" y="658" type="curve" smooth="yes"/>
    </contour>
  </outline>
</glyph>
<glyph name="X" format="2">
  <advance width="632"/>
  <unicode hex="0058"/>
  <outline>
    <contour>
      <point x="-1" y="0" type="line"/>
      <point x="5" y="29" type="line"/>
      <point x="67" y="35"/>
      <point x="84" y="39"/>
      <point x="116" y="73" type="curve" smooth="yes"/>
      <point x="174" y="135"/>
      <point x="274" y="255"/>
      <point x="352" y="349" type="curve"/>
      <point x="315" y="443"/>
      <point x="268" y="555"/>
      <point x="238" y="620" type="curve" smooth="yes"/>
      <point x="222" y="655"/>
      <point x="205" y="658"/>
      <point x="145" y="663" type="curve"/>
      <point x="151" y="692" type="line"/>
      <point x="411" y="692" type="line"/>
      <point x="405" y="663" type="line"/>
      <point x="353" y="659" type="line" smooth="yes"/>
      <point x="332" y="657"/>
      <point x="327" y="646"/>
      <point x="336" y="623" type="curve" smooth="yes"/>
      <point x="362" y="559"/>
      <point x="390" y="489"/>
      <point x="418" y="424" type="curve"/>
      <point x="420" y="424" type="line"/>
      <point x="482" y="495"/>
      <point x="557" y="590"/>
      <point x="586" y="628" type="curve" smooth="yes"/>
      <point x="599" y="645"/>
      <point x="597" y="657"/>
      <point x="577" y="659" type="curve" smooth="yes"/>
      <point x="534" y="663" type="line"/>
      <point x="540" y="692" type="line"/>
      <point x="770" y="692" type="line"/>
      <point x="764" y="663" type="line"/>
      <point x="711" y="659"/>
      <point x="690" y="653"/>
      <point x="668" y="634" type="curve"/>
      <point x="612" y="583"/>
      <point x="504" y="465"/>
      <point x="436" y="383" type="curve"/>
      <point x="483" y="277"/>
      <point x="547" y="131"/>
      <point x="571" y="80" type="curve" smooth="yes"/>
      <point x="591" y="37"/>
      <point x="608" y="34"/>
      <point x="674" y="29" type="curve"/>
      <point x="668" y="0" type="line"/>
      <point x="398" y="0" type="line"/>
      <point x="403" y="29" type="line"/>
      <point x="455" y="34" type="line" smooth="yes"/>
      <point x="477" y="36"/>
      <point x="481" y="48"/>
      <point x="472" y="70" type="curve" smooth="yes"/>
      <point x="442" y="145"/>
      <point x="406" y="225"/>
      <point x="372" y="305" type="curve"/>
      <point x="368" y="305" type="line"/>
      <point x="302" y="224"/>
      <point x="219" y="115"/>
      <point x="183" y="63" type="curve" smooth="yes"/>
      <point x="172" y="47"/>
      <point x="178" y="37"/>
      <point x="197" y="35" type="curve" smooth="yes"/>
      <point x="254" y="29" type="line"/>
      <point x="248" y="0" type="line"/>
    </contour>
  </outline>
</glyph>
<glyph name="Z" format="2">
  <advance width="622"/>
  <unicode hex="005A"/>
  <outline>
    <contour>
      <point x="15" y="13" type="line"/>
      <point x="212" y="229"/>
      <point x="408" y="446"/>
      <point x="598" y="657" type="curve"/>
      <point x="403" y="657" type="line" smooth="yes"/>
      <point x="299" y="657"/>
      <point x="263" y="635"/>
      <point x="228" y="548" type="curve" smooth="yes"/>
      <point x="218" y="523" type="line"/>
      <point x="188" y="523" type="line"/>
      <point x="225" y="692" type="line"/>
      <point x="733" y="692" type="line"/>
      <point x="738" y="679" type="line"/>
      <point x="541" y="463"/>
      <point x="344" y="246"/>
      <point x="154" y="35" type="curve"/>
      <point x="357" y="35" type="line" smooth="yes"/>
      <point x="500" y="35"/>
      <point x="548" y="58"/>
      <point x="594" y="144" type="curve" smooth="yes"/>
      <point x="611" y="176" type="line"/>
      <point x="641" y="176" type="line"/>
      <point x="590" y="0" type="line"/>
      <point x="19" y="0" type="line"/>
    </contour>
  </outline>
</glyph>
<glyph name="backslash" format="2">
  <advance width="390"/>
  <unicode hex="005C"/>
  <outline>
    <contour>
      <point x="124" y="707" type="line"/>
      <point x="195" y="707" type="line"/>
      <point x="406" y="-15" type="line"/>
      <point x="335" y="-15" type="line"/>
    </contour>
  </outline>
</glyph>
<glyph name="a" format="2">
  <advance width="561"/>
  <unicode hex="0061"/>
  <outline>
    <contour>
      <point x="66" y="107" type="curve" smooth="yes"/>
      <point x="66" y="239"/>
      <point x="180" y="502"/>
      <point x="418" y="502" type="curve" smooth="yes"/>
      <point x="445" y="502"/>
      <point x="474" y="493"/>
      <point x="491" y="481" type="curve"/>
      <point x="496" y="494" type="line"/>
      <point x="580" y="494" type="line"/>
      <point x="474" y="95" type="line" smooth="yes"/>
      <point x="465" y="63"/>
      <point x="464" y="40"/>
      <point x="484" y="40" type="curve" smooth="yes"/>
      <point x="512" y="40"/>
      <point x="556" y="111"/>
      <point x="574" y="146" type="curve"/>
      <point x="598" y="132" type="line"/>
      <point x="564" y="56"/>
      <point x="508" y="-12"/>
      <point x="432" y="-12" type="curve" smooth="yes"/>
      <point x="378" y="-12"/>
      <point x="367" y="29"/>
      <point x="388" y="100" type="curve" smooth="yes"/>
      <point x="422" y="214" type="line"/>
      <point x="420" y="214" type="line"/>
      <point x="362" y="112"/>
      <point x="269" y="-12"/>
      <point x="162" y="-12" type="curve" smooth="yes"/>
      <point x="94" y="-12"/>
      <point x="66" y="47"/>
    </contour>
    <contour>
      <point x="165" y="110" type="curve" smooth="yes"/>
      <point x="165" y="71"/>
      <point x="176" y="40"/>
      <point x="209" y="40" type="curve" smooth="yes"/>
      <point x="257" y="40"/>
      <point x="318" y="107"/>
      <point x="374" y="192" type="curve" smooth="yes"/>
      <point x="427" y="272"/>
      <point x="463" y="371"/>
      <point x="481" y="445" type="curve"/>
      <point x="466" y="459"/>
      <point x="444" y="467"/>
      <point x="420" y="467" type="curve" smooth="yes"/>
      <point x="263" y="467"/>
      <point x="165" y="220"/>
    </contour>
  </outline>
</glyph>
<glyph name="c" format="2">
  <advance width="441"/>
  <unicode hex="0063"/>
  <outline>
    <contour>
      <point x="81" y="153.756" type="curve" smooth="yes"/>
      <point x="81" y="312"/>
      <point x="191" y="502"/>
      <point x="365.819" y="502" type="curve" smooth="yes"/>
      <point x="444" y="502"/>
      <point x="498" y="464"/>
      <point x="498" y="418.855" type="curve" smooth="yes"/>
      <point x="498" y="380"/>
      <point x="458" y="357"/>
      <point x="434" y="357" type="curve" smooth="yes"/>
      <point x="379.87" y="357"/>
      <point x="426.1" y="467"/>
      <point x="348.806" y="467" type="curve" smooth="yes"/>
      <point x="253" y="467"/>
      <point x="178" y="298"/>
      <point x="178" y="159.112" type="curve" smooth="yes"/>
      <point x="178" y="97"/>
      <point x="193" y="37"/>
      <point x="260.056" y="37" type="curve" smooth="yes"/>
      <point x="333" y="37"/>
      <point x="392" y="108"/>
      <point x="426" y="154" type="curve"/>
      <point x="450" y="135" type="line"/>
      <point x="381" y="20"/>
      <point x="296" y="-12"/>
      <point x="227.343" y="-12" type="curve" smooth="yes"/>
      <point x="152.525" y="-12"/>
      <point x="81" y="26"/>
    </contour>
  </outline>
</glyph>
<glyph name="d" format="2">
  <advance width="587"/>
  <unicode hex="0064"/>
  <outline>
    <contour>
      <point x="73" y="110" type="curve" smooth="yes"/>
      <point x="73" y="241"/>
      <point x="180" y="502"/>
      <point x="408" y="502" type="curve" smooth="yes"/>
      <point x="446" y="502"/>
      <point x="477" y="495"/>
      <point x="496" y="485" type="curve"/>
      <point x="498" y="487" type="line"/>
      <point x="536" y="648" type="line"/>
      <point x="538" y="658"/>
      <point x="540" y="666"/>
      <point x="540" y="672" type="curve" smooth="yes"/>
      <point x="540" y="684"/>
      <point x="534" y="687"/>
      <point x="518" y="689" type="curve" smooth="yes"/>
      <point x="458" y="695" type="line"/>
      <point x="464" y="718" type="line"/>
      <point x="642" y="742" type="line"/>
      <point x="647" y="737" type="line"/>
      <point x="489" y="95" type="line"/>
      <point x="485" y="81"/>
      <point x="483" y="69"/>
      <point x="483" y="60" type="curve" smooth="yes"/>
      <point x="483" y="47"/>
      <point x="487" y="40"/>
      <point x="497" y="40" type="curve" smooth="yes"/>
      <point x="527" y="40"/>
      <point x="571" y="111"/>
      <point x="589" y="146" type="curve"/>
      <point x="613" y="132" type="line"/>
      <point x="579" y="56"/>
      <point x="523" y="-12"/>
      <point x="452" y="-12" type="curve" smooth="yes"/>
      <point x="413" y="-12"/>
      <point x="395" y="8"/>
      <point x="395" y="46" type="curve" smooth="yes"/>
      <point x="395" y="61"/>
      <point x="398" y="79"/>
      <point x="404" y="99" type="curve" smooth="yes"/>
      <point x="437" y="218" type="line"/>
      <point x="435" y="219" type="line"/>
      <point x="351" y="68"/>
      <point x="261" y="-12"/>
      <point x="173" y="-12" type="curve" smooth="yes"/>
      <point x="92" y="-12"/>
      <point x="73" y="55"/>
    </contour>
    <contour>
      <point x="170" y="115" type="curve" smooth="yes"/>
      <point x="170" y="67"/>
      <point x="188" y="40"/>
      <point x="224" y="40" type="curve" smooth="yes"/>
      <point x="347" y="40"/>
      <point x="467" y="345"/>
      <point x="487" y="447" type="curve"/>
      <point x="475" y="458"/>
      <point x="449" y="467"/>
      <point x="418" y="467" type="curve" smooth="yes"/>
      <point x="257" y="467"/>
      <point x="170" y="220"/>
    </contour>
  </outline>
</glyph>
<glyph name="f" format="2">
  <advance width="315"/>
  <unicode hex="0066"/>
  <outline>
    <contour>
      <point x="-72" y="-184" type="curve" smooth="yes"/>
      <point x="-72" y="-159"/>
      <point x="-49" y="-134"/>
      <point x="-27" y="-134" type="curve" smooth="yes"/>
      <point x="-14" y="-134"/>
      <point x="-7" y="-146"/>
      <point x="0" y="-156" type="curve"/>
      <point x="27" y="-197"/>
      <point x="42" y="-205"/>
      <point x="53" y="-205" type="curve" smooth="yes"/>
      <point x="63" y="-205"/>
      <point x="73" y="-199"/>
      <point x="85" y="-137" type="curve" smooth="yes"/>
      <point x="201" y="452" type="line"/>
      <point x="112" y="452" type="line"/>
      <point x="123" y="490" type="line"/>
      <point x="210" y="490" type="line"/>
      <point x="220" y="527" type="line" smooth="yes"/>
      <point x="248" y="633"/>
      <point x="299" y="742"/>
      <point x="425" y="742" type="curve" smooth="yes"/>
      <point x="485" y="742"/>
      <point x="539" y="707"/>
      <point x="539" y="664" type="curve" smooth="yes"/>
      <point x="539" y="639"/>
      <point x="510" y="620"/>
      <point x="490" y="620" type="curve" smooth="yes"/>
      <point x="475" y="620"/>
      <point x="468" y="627"/>
      <point x="463" y="637" type="curve"/>
      <point x="441" y="685"/>
      <point x="423" y="707"/>
      <point x="396" y="707" type="curve" smooth="yes"/>
      <point x="368" y="707"/>
      <point x="349" y="679"/>
      <point x="330" y="603" type="curve" smooth="yes"/>
      <point x="302" y="490" type="line"/>
      <point x="432" y="490" type="line"/>
      <point x="422" y="452" type="line"/>
      <point x="296" y="452" type="line"/>
      <point x="203" y="31" type="line" smooth="yes"/>
      <point x="161" y="-161"/>
      <point x="119" y="-242"/>
      <point x="19" y="-242" type="curve" smooth="yes"/>
      <point x="-28" y="-242"/>
      <point x="-72" y="-217"/>
    </contour>
  </outline>
</glyph>
<glyph name="h" format="2">
  <advance width="607"/>
  <unicode hex="0068"/>
  <outline>
    <contour>
      <point x="92" y="-12" type="line"/>
      <point x="238" y="639" type="line" smooth="yes"/>
      <point x="240.84" y="651.305"/>
      <point x="242.385" y="660.425"/>
      <point x="242.385" y="667.238" type="curve" smooth="yes"/>
      <point x="242.385" y="682.019"/>
      <point x="235.112" y="685.947"/>
      <point x="218" y="688" type="curve" smooth="yes"/>
      <point x="161" y="695" type="line"/>
      <point x="167" y="718" type="line"/>
      <point x="347" y="742" type="line"/>
      <point x="352" y="737" type="line"/>
      <point x="240" y="279" type="line"/>
      <point x="243" y="279" type="line"/>
      <point x="307" y="399"/>
      <point x="413" y="502"/>
      <point x="510.244" y="502" type="curve" smooth="yes"/>
      <point x="565.569" y="502"/>
      <point x="588.789" y="468.661"/>
      <point x="588.789" y="421.011" type="curve" smooth="yes"/>
      <point x="588.789" y="401.617"/>
      <point x="584.942" y="379.852"/>
      <point x="578" y="357" type="curve" smooth="yes"/>
      <point x="499" y="95" type="line" smooth="yes"/>
      <point x="494.858" y="81.7452"/>
      <point x="492.431" y="70.0345"/>
      <point x="492.431" y="60.8629" type="curve" smooth="yes"/>
      <point x="492.431" y="47.8924"/>
      <point x="497.284" y="40"/>
      <point x="507.215" y="40" type="curve" smooth="yes"/>
      <point x="537" y="40"/>
      <point x="581" y="111"/>
      <point x="599" y="146" type="curve"/>
      <point x="623" y="132" type="line"/>
      <point x="589" y="56"/>
      <point x="533" y="-12"/>
      <point x="462.721" y="-12" type="curve" smooth="yes"/>
      <point x="422.75" y="-12"/>
      <point x="404.02" y="9.99648"/>
      <point x="404.02" y="47.1672" type="curve" smooth="yes"/>
      <point x="404.02" y="61.3593"/>
      <point x="406.75" y="77.7635"/>
      <point x="412" y="96" type="curve" smooth="yes"/>
      <point x="494" y="380" type="line" smooth="yes"/>
      <point x="497.065" y="390.473"/>
      <point x="498.565" y="400.163"/>
      <point x="498.565" y="408.787" type="curve" smooth="yes"/>
      <point x="498.565" y="433.923"/>
      <point x="485.826" y="450"/>
      <point x="458.628" y="450" type="curve" smooth="yes"/>
      <point x="375" y="450"/>
      <point x="276" y="298"/>
      <point x="246" y="220" type="curve" smooth="yes"/>
      <point x="221" y="157"/>
      <point x="206" y="102"/>
      <point x="179" y="0" type="curve"/>
    </contour>
  </outline>
</glyph>
<glyph name="l" format="2">
  <advance width="306"/>
  <unicode hex="006C"/>
  <outline>
    <contour>
      <point x="133" y="150.17" type="line"/>
      <point x="253" y="639.924" type="line" smooth="yes"/>
      <point x="256" y="651.943"/>
      <point x="258" y="660.957"/>
      <point x="258" y="667.968" type="curve" smooth="yes"/>
      <point x="258" y="682.991"/>
      <point x="250" y="686.997"/>
      <point x="233" y="689" type="curve" smooth="yes"/>
      <point x="176" y="695.767" type="line"/>
      <point x="182" y="718" type="line"/>
      <point x="361" y="742" type="line"/>
      <point x="366" y="737" type="line"/>
      <point x="219" y="150.17" type="line"/>
    </contour>
    <contour>
      <point x="116" y="86.071" type="curve" smooth="yes"/>
      <point x="133" y="150.17" type="line"/>
      <point x="219" y="150.17" type="line"/>
      <point x="206" y="95.0849" type="line" smooth="yes"/>
      <point x="202.597" y="81.4514"/>
      <point x="200.279" y="69.449"/>
      <point x="200.279" y="60.1571" type="curve" smooth="yes"/>
      <point x="200.279" y="47.6058"/>
      <point x="204.508" y="40"/>
      <point x="214.24" y="40" type="curve" smooth="yes"/>
      <point x="244" y="40"/>
      <point x="288" y="111.11"/>
      <point x="306" y="146.164" type="curve"/>
      <point x="330" y="132.142" type="line"/>
      <point x="296" y="56.0247"/>
      <point x="240" y="-12"/>
      <point x="168" y="-12" type="curve" smooth="yes"/>
      <point x="127.662" y="-12"/>
      <point x="110.202" y="10.8785"/>
      <point x="110.202" y="46.2241" type="curve" smooth="yes"/>
      <point x="110.202" y="58.2104"/>
      <point x="112.205" y="71.6278"/>
    </contour>
  </outline>
  <guideline angle="76.1115" x="95" y="0"/>
  <guideline angle="255.909" x="366" y="737"/>
</glyph>
<glyph name="n" format="2">
  <advance width="618"/>
  <unicode hex="006E"/>
  <outline>
    <contour>
      <point x="98" y="-12" type="line"/>
      <point x="203" y="397" type="line" smooth="yes"/>
      <point x="206.418" y="409.153"/>
      <point x="208.538" y="418.711"/>
      <point x="208.538" y="426" type="curve" smooth="yes"/>
      <point x="208.538" y="437.903"/>
      <point x="202.885" y="443.76"/>
      <point x="188" y="445" type="curve" smooth="yes"/>
      <point x="126" y="450" type="line"/>
      <point x="132" y="474" type="line"/>
      <point x="315" y="502" type="line"/>
      <point x="320" y="497" type="line"/>
      <point x="255" y="279" type="line"/>
      <point x="258" y="279" type="line"/>
      <point x="318" y="396"/>
      <point x="422" y="502"/>
      <point x="520.85" y="502" type="curve" smooth="yes"/>
      <point x="576.441" y="502"/>
      <point x="599.327" y="468.476"/>
      <point x="599.327" y="420.614" type="curve" smooth="yes"/>
      <point x="599.327" y="401.32"/>
      <point x="595.608" y="379.697"/>
      <point x="589" y="357" type="curve" smooth="yes"/>
      <point x="511" y="95" type="line" smooth="yes"/>
      <point x="507.224" y="81.5757"/>
      <point x="504.857" y="69.7353"/>
      <point x="504.857" y="60.5124" type="curve" smooth="yes"/>
      <point x="504.857" y="47.7503"/>
      <point x="509.39" y="40"/>
      <point x="519.227" y="40" type="curve" smooth="yes"/>
      <point x="549" y="40"/>
      <point x="593" y="111"/>
      <point x="611" y="146" type="curve"/>
      <point x="635" y="132" type="line"/>
      <point x="601" y="56"/>
      <point x="545" y="-12"/>
      <point x="472.309" y="-12" type="curve" smooth="yes"/>
      <point x="430.131" y="-12"/>
      <point x="412.612" y="10.8941"/>
      <point x="412.612" y="45.4137" type="curve" smooth="yes"/>
      <point x="412.612" y="57.6491"/>
      <point x="414.813" y="71.3452"/>
      <point x="419" y="86" type="curve" smooth="yes"/>
      <point x="505" y="379" type="line" smooth="yes"/>
      <point x="507.91" y="389.316"/>
      <point x="509.42" y="399.142"/>
      <point x="509.42" y="408.015" type="curve" smooth="yes"/>
      <point x="509.42" y="432.69"/>
      <point x="497.742" y="450"/>
      <point x="470.402" y="450" type="curve" smooth="yes"/>
      <point x="391" y="450"/>
      <point x="295" y="304"/>
      <point x="258" y="218" type="curve" smooth="yes"/>
      <point x="232" y="156"/>
      <point x="215" y="102"/>
      <point x="186" y="0" type="curve"/>
    </contour>
  </outline>
</glyph>
<glyph name="o" format="2">
  <advance width="537"/>
  <unicode hex="006F"/>
  <outline>
    <contour>
      <point x="84" y="169" type="curve" smooth="yes"/>
      <point x="84" y="255"/>
      <point x="141" y="502"/>
      <point x="370.266" y="502" type="curve" smooth="yes"/>
      <point x="459" y="502"/>
      <point x="557" y="465"/>
      <point x="557" y="317.179" type="curve" smooth="yes"/>
      <point x="557" y="162"/>
      <point x="449" y="-12"/>
      <point x="263.18" y="-12" type="curve" smooth="yes"/>
      <point x="142" y="-12"/>
      <point x="84" y="62"/>
    </contour>
    <contour>
      <point x="181" y="132.144" type="curve" smooth="yes"/>
      <point x="181" y="58"/>
      <point x="213" y="23"/>
      <point x="264.763" y="23" type="curve" smooth="yes"/>
      <point x="408" y="23"/>
      <point x="460" y="291"/>
      <point x="460" y="371.584" type="curve" smooth="yes"/>
      <point x="460" y="424"/>
      <point x="438" y="467"/>
      <point x="379.74" y="467" type="curve" smooth="yes"/>
      <point x="245" y="467"/>
      <point x="181" y="237"/>
    </contour>
  </outline>
</glyph>
<glyph name="p" format="2">
  <advance width="590"/>
  <unicode hex="0070"/>
  <outline>
    <contour>
      <point x="57" y="-242" type="line"/>
      <point x="197" y="397" type="line" smooth="yes"/>
      <point x="204" y="427"/>
      <point x="206" y="443"/>
      <point x="182" y="445" type="curve" smooth="yes"/>
      <point x="120" y="450" type="line"/>
      <point x="126" y="474" type="line"/>
      <point x="307" y="502" type="line"/>
      <point x="312" y="497" type="line"/>
      <point x="255" y="286" type="line"/>
      <point x="258" y="286" type="line"/>
      <point x="334" y="429"/>
      <point x="433" y="502"/>
      <point x="510" y="502" type="curve" smooth="yes"/>
      <point x="584" y="502"/>
      <point x="621" y="455"/>
      <point x="621" y="368" type="curve" smooth="yes"/>
      <point x="621" y="292"/>
      <point x="554" y="-12"/>
      <point x="309" y="-12" type="curve" smooth="yes"/>
      <point x="257" y="-12"/>
      <point x="222" y="-3"/>
      <point x="201" y="10" type="curve"/>
      <point x="146" y="-230" type="line"/>
    </contour>
    <contour>
      <point x="211" y="53" type="curve"/>
      <point x="233" y="34"/>
      <point x="260" y="23"/>
      <point x="299" y="23" type="curve" smooth="yes"/>
      <point x="463" y="23"/>
      <point x="522" y="288"/>
      <point x="522" y="367" type="curve" smooth="yes"/>
      <point x="522" y="420"/>
      <point x="504" y="450"/>
      <point x="468" y="450" type="curve" smooth="yes"/>
      <point x="411" y="450"/>
      <point x="338" y="370"/>
      <point x="290" y="286" type="curve" smooth="yes"/>
      <point x="252" y="219"/>
      <point x="224" y="117"/>
    </contour>
  </outline>
</glyph>
<glyph name="q" format="2">
  <advance width="559"/>
  <unicode hex="0071"/>
  <outline>
    <contour>
      <point x="73" y="107" type="curve" smooth="yes"/>
      <point x="73" y="244"/>
      <point x="174" y="502"/>
      <point x="423" y="502" type="curve" smooth="yes"/>
      <point x="470" y="502"/>
      <point x="505" y="489"/>
      <point x="521" y="480" type="curve"/>
      <point x="564" y="525" type="line"/>
      <point x="602" y="525" type="line"/>
      <point x="424" y="-222" type="line"/>
      <point x="331" y="-242" type="line"/>
      <point x="430" y="190" type="line"/>
      <point x="427" y="190" type="line"/>
      <point x="353" y="66"/>
      <point x="251" y="-12"/>
      <point x="168" y="-12" type="curve" smooth="yes"/>
      <point x="119" y="-12"/>
      <point x="73" y="20"/>
    </contour>
    <contour>
      <point x="172" y="123" type="curve" smooth="yes"/>
      <point x="172" y="76"/>
      <point x="184" y="40"/>
      <point x="220" y="40" type="curve" smooth="yes"/>
      <point x="261" y="40"/>
      <point x="317" y="84"/>
      <point x="372" y="156" type="curve" smooth="yes"/>
      <point x="426" y="228"/>
      <point x="470" y="331"/>
      <point x="494" y="446" type="curve"/>
      <point x="479" y="457"/>
      <point x="456" y="467"/>
      <point x="424" y="467" type="curve" smooth="yes"/>
      <point x="258" y="467"/>
      <point x="172" y="221"/>
    </contour>
  </outline>
</glyph>
<glyph name="r" format="2">
  <advance width="402"/>
  <unicode hex="0072"/>
  <outline>
    <contour>
      <point x="104" y="-12" type="line"/>
      <point x="196" y="397" type="line" smooth="yes"/>
      <point x="203" y="429"/>
      <point x="205" y="443"/>
      <point x="181" y="445" type="curve" smooth="yes"/>
      <point x="119" y="450" type="line"/>
      <point x="125" y="474" type="line"/>
      <point x="297" y="502" type="line"/>
      <point x="302" y="497" type="line"/>
      <point x="256.233" y="329.771" type="line"/>
      <point x="259" y="331" type="line"/>
      <point x="313" y="439"/>
      <point x="382" y="502"/>
      <point x="438" y="502" type="curve" smooth="yes"/>
      <point x="468" y="502"/>
      <point x="483" y="487"/>
      <point x="483" y="458" type="curve" smooth="yes"/>
      <point x="483" y="429"/>
      <point x="461" y="396"/>
      <point x="436" y="396" type="curve" smooth="yes"/>
      <point x="404" y="396"/>
      <point x="397" y="421"/>
      <point x="366" y="421" type="curve" smooth="yes"/>
      <point x="328" y="421"/>
      <point x="278" y="335"/>
      <point x="242" y="204" type="curve" smooth="yes"/>
      <point x="226" y="146"/>
      <point x="207" y="65"/>
      <point x="190" y="0" type="curve"/>
    </contour>
  </outline>
  <guideline angle="187.943" x="190" y="0"/>
  <guideline angle="187.943" x="190" y="0"/>
</glyph>
<glyph name="t" format="2">
  <advance width="341"/>
  <unicode hex="0074"/>
  <outline>
    <contour>
      <point x="125" y="86" type="curve" smooth="yes"/>
      <point x="215" y="452" type="line"/>
      <point x="132" y="452" type="line"/>
      <point x="143" y="490" type="line"/>
      <point x="224" y="490" type="line"/>
      <point x="237" y="539" type="line"/>
      <point x="334" y="616" type="line"/>
      <point x="346" y="609" type="line"/>
      <point x="312" y="490" type="line"/>
      <point x="439" y="490" type="line"/>
      <point x="428" y="452" type="line"/>
      <point x="303" y="452" type="line"/>
      <point x="214" y="88" type="line" smooth="yes"/>
      <point x="211.91" y="79.2917"/>
      <point x="210.548" y="70.8261"/>
      <point x="210.548" y="63.4907" type="curve" smooth="yes"/>
      <point x="210.548" y="49.7675"/>
      <point x="215.315" y="40"/>
      <point x="227.662" y="40" type="curve" smooth="yes"/>
      <point x="260" y="40"/>
      <point x="311" y="107"/>
      <point x="334" y="146" type="curve"/>
      <point x="356" y="129" type="line"/>
      <point x="316" y="54"/>
      <point x="252" y="-12"/>
      <point x="178.082" y="-12" type="curve" smooth="yes"/>
      <point x="135.181" y="-12"/>
      <point x="118.968" y="10.2324"/>
      <point x="118.968" y="44.7146" type="curve" smooth="yes"/>
      <point x="118.968" y="57.0591"/>
      <point x="121.046" y="70.9736"/>
    </contour>
  </outline>
</glyph>
<glyph name="u" format="2">
  <advance width="618"/>
  <unicode hex="0075"/>
  <outline>
    <contour>
      <point x="124.09" y="67.0448" type="curve" smooth="yes"/>
      <point x="124.09" y="86.8375"/>
      <point x="127.768" y="109.258"/>
      <point x="134" y="133" type="curve" smooth="yes"/>
      <point x="203" y="397" type="line" smooth="yes"/>
      <point x="206.063" y="408.87"/>
      <point x="208.1" y="418.395"/>
      <point x="208.1" y="425.741" type="curve" smooth="yes"/>
      <point x="208.1" y="437.581"/>
      <point x="202.81" y="443.766"/>
      <point x="188" y="445" type="curve" smooth="yes"/>
      <point x="126" y="450" type="line"/>
      <point x="132" y="474" type="line"/>
      <point x="314" y="502" type="line"/>
      <point x="319" y="497" type="line"/>
      <point x="223" y="128" type="line" smooth="yes"/>
      <point x="218.143" y="109.219"/>
      <point x="215.697" y="93.3742"/>
      <point x="215.697" y="80.5329" type="curve" smooth="yes"/>
      <point x="215.697" y="53.7171"/>
      <point x="226.362" y="40"/>
      <point x="251.798" y="40" type="curve" smooth="yes"/>
      <point x="331" y="40"/>
      <point x="418" y="173"/>
      <point x="465.188" y="282.207" type="curve" smooth="yes"/>
      <point x="488" y="335"/>
      <point x="504" y="388"/>
      <point x="533" y="490" type="curve"/>
      <point x="622" y="502" type="line"/>
      <point x="515" y="94" type="line" smooth="yes"/>
      <point x="511.947" y="82.1688"/>
      <point x="510.059" y="71.5028"/>
      <point x="510.059" y="62.836" type="curve" smooth="yes"/>
      <point x="510.059" y="48.7941"/>
      <point x="515.015" y="40"/>
      <point x="525.629" y="40" type="curve" smooth="yes"/>
      <point x="556" y="40"/>
      <point x="600" y="112"/>
      <point x="620" y="146" type="curve"/>
      <point x="644" y="131" type="line"/>
      <point x="609" y="57"/>
      <point x="549" y="-12"/>
      <point x="478.145" y="-12" type="curve" smooth="yes"/>
      <point x="439.51" y="-12"/>
      <point x="422.534" y="8.51474"/>
      <point x="422.534" y="44.2352" type="curve" smooth="yes"/>
      <point x="422.534" y="59.0129"/>
      <point x="425.336" y="76.423"/>
      <point x="431" y="96" type="curve" smooth="yes"/>
      <point x="464.252" y="210.93" type="line"/>
      <point x="462" y="210" type="line"/>
      <point x="402" y="94"/>
      <point x="297" y="-12"/>
      <point x="198.812" y="-12" type="curve" smooth="yes"/>
      <point x="144.742" y="-12"/>
      <point x="124.09" y="20.1444"/>
    </contour>
  </outline>
</glyph>
<glyph name="v" format="2">
  <advance width="510"/>
  <unicode hex="0076"/>
  <outline>
    <contour>
      <point x="119" y="450" type="line"/>
      <point x="125" y="474" type="line"/>
      <point x="302" y="502" type="line"/>
      <point x="307" y="497" type="line"/>
      <point x="220" y="110" type="line" smooth="yes"/>
      <point x="209" y="62"/>
      <point x="227" y="40"/>
      <point x="252" y="40" type="curve"/>
      <point x="334" y="37"/>
      <point x="463" y="219"/>
      <point x="471" y="356" type="curve"/>
      <point x="471" y="408"/>
      <point x="469" y="446"/>
      <point x="459" y="481" type="curve"/>
      <point x="480" y="494"/>
      <point x="508" y="502"/>
      <point x="532" y="502" type="curve" smooth="yes"/>
      <point x="540" y="502"/>
      <point x="563" y="463"/>
      <point x="563" y="424" type="curve" smooth="yes"/>
      <point x="562" y="362"/>
      <point x="514" y="253"/>
      <point x="446" y="161" type="curve" smooth="yes"/>
      <point x="377" y="68"/>
      <point x="290" y="-12"/>
      <point x="204" y="-12" type="curve" smooth="yes"/>
      <point x="147" y="-12"/>
      <point x="115" y="28"/>
      <point x="135" y="119" type="curve" smooth="yes"/>
      <point x="196" y="397" type="line" smooth="yes"/>
      <point x="203" y="430"/>
      <point x="204" y="443"/>
      <point x="181" y="445" type="curve" smooth="yes"/>
    </contour>
  </outline>
</glyph>
<glyph name="w" format="2">
  <advance width="789"/>
  <unicode hex="0077"/>
  <outline>
    <contour>
      <point x="126" y="450" type="line"/>
      <point x="131" y="474" type="line"/>
      <point x="310" y="502" type="line"/>
      <point x="315" y="497" type="line"/>
      <point x="227" y="121" type="line" smooth="yes"/>
      <point x="223.729" y="107.45"/>
      <point x="222.26" y="95.8101"/>
      <point x="222.26" y="85.9276" type="curve" smooth="yes"/>
      <point x="222.26" y="53.5087"/>
      <point x="238.074" y="40"/>
      <point x="262.801" y="40" type="curve" smooth="yes"/>
      <point x="389.566" y="40"/>
      <point x="486.278" y="395.02"/>
      <point x="506" y="487" type="curve"/>
      <point x="592" y="493" type="line"/>
      <point x="522" y="178" type="line" smooth="yes"/>
      <point x="515.226" y="146.839"/>
      <point x="511.664" y="120.955"/>
      <point x="511.664" y="100.349" type="curve" smooth="yes"/>
      <point x="511.664" y="60.1163"/>
      <point x="525.242" y="40"/>
      <point x="552.295" y="40" type="curve" smooth="yes"/>
      <point x="635" y="40"/>
      <point x="756" y="228"/>
      <point x="756" y="366" type="curve" smooth="yes"/>
      <point x="756" y="408"/>
      <point x="754" y="446"/>
      <point x="744" y="481" type="curve"/>
      <point x="765" y="494"/>
      <point x="792" y="502"/>
      <point x="816" y="502" type="curve" smooth="yes"/>
      <point x="824" y="502"/>
      <point x="847" y="465"/>
      <point x="847" y="420.202" type="curve" smooth="yes"/>
      <point x="847" y="292.256"/>
      <point x="659.391" y="-12"/>
      <point x="508.181" y="-12" type="curve" smooth="yes"/>
      <point x="452" y="-12"/>
      <point x="428" y="30"/>
      <point x="428" y="85.9973" type="curve" smooth="yes"/>
      <point x="428" y="113"/>
      <point x="433.581" y="156.768"/>
      <point x="444" y="192" type="curve"/>
      <point x="442" y="194" type="line"/>
      <point x="382" y="74"/>
      <point x="293" y="-12"/>
      <point x="210" y="-12" type="curve" smooth="yes"/>
      <point x="165.2" y="-12"/>
      <point x="132.56" y="14.24"/>
      <point x="132.56" y="73.376" type="curve" smooth="yes"/>
      <point x="132.56" y="88.16"/>
      <point x="134.6" y="105"/>
      <point x="139" y="124" type="curve" smooth="yes"/>
      <point x="202" y="397" type="line" smooth="yes"/>
      <point x="204.869" y="409.554"/>
      <point x="206.581" y="419.02"/>
      <point x="206.581" y="426.091" type="curve" smooth="yes"/>
      <point x="206.581" y="438.733"/>
      <point x="201.109" y="443.717"/>
      <point x="187" y="445" type="curve" smooth="yes"/>
    </contour>
  </outline>
</glyph>
<glyph name="z" format="2">
  <advance width="468"/>
  <unicode hex="007A"/>
  <outline>
    <contour>
      <point x="39" y="18" type="curve" smooth="yes"/>
      <point x="39" y="34"/>
      <point x="47" y="56"/>
      <point x="63" y="72" type="curve" smooth="yes"/>
      <point x="414" y="425" type="line"/>
      <point x="414" y="427" type="line"/>
      <point x="238" y="426" type="line" smooth="yes"/>
      <point x="197" y="426"/>
      <point x="176" y="401"/>
      <point x="143" y="337" type="curve"/>
      <point x="118" y="348" type="line"/>
      <point x="140" y="417"/>
      <point x="171" y="472"/>
      <point x="185" y="490" type="curve"/>
      <point x="510" y="490" type="line"/>
      <point x="518" y="476" type="line"/>
      <point x="172" y="124" type="line"/>
      <point x="172" y="122" type="line"/>
      <point x="240" y="115"/>
      <point x="310" y="66"/>
      <point x="379" y="66" type="curve" smooth="yes"/>
      <point x="424" y="66"/>
      <point x="448" y="126"/>
      <point x="473" y="188" type="curve"/>
      <point x="501" y="181" type="line"/>
      <point x="474" y="76"/>
      <point x="444" y="-12"/>
      <point x="379" y="-12" type="curve" smooth="yes"/>
      <point x="289" y="-12"/>
      <point x="149" y="74"/>
      <point x="122" y="74" type="curve" smooth="yes"/>
      <point x="114" y="74"/>
      <point x="109" y="67"/>
      <point x="109" y="56" type="curve" smooth="yes"/>
      <point x="109" y="12" type="line" smooth="yes"/>
      <point x="109" y="-5"/>
      <point x="76" y="-12"/>
      <point x="62" y="-12" type="curve" smooth="yes"/>
      <point x="45" y="-12"/>
      <point x="39" y="5"/>
    </contour>
  </outline>
</glyph>
<glyph name="braceleft" format="2">
  <advance width="340"/>
  <unicode hex="007B"/>
  <outline>
    <contour>
      <point x="138" y="269" type="curve"/>
      <point x="146" y="295" type="line"/>
      <point x="229" y="297"/>
      <point x="250" y="343"/>
      <point x="257" y="399" type="curve"/>
      <point x="259" y="420"/>
      <point x="259" y="443"/>
      <point x="260" y="465" type="curve" smooth="yes"/>
      <point x="261" y="480"/>
      <point x="262" y="495"/>
      <point x="263" y="510" type="curve"/>
      <point x="274" y="605"/>
      <point x="306" y="681"/>
      <point x="414" y="691" type="curve" smooth="yes"/>
      <point x="423" y="692"/>
      <point x="432" y="692"/>
      <point x="441" y="692" type="curve" smooth="yes"/>
      <point x="458" y="692" type="line"/>
      <point x="451" y="667" type="line"/>
      <point x="391" y="663"/>
      <point x="359" y="639"/>
      <point x="345" y="603" type="curve"/>
      <point x="340" y="589"/>
      <point x="337" y="574"/>
      <point x="335" y="559" type="curve" smooth="yes"/>
      <point x="332" y="536"/>
      <point x="332" y="513"/>
      <point x="331" y="495" type="curve"/>
      <point x="331" y="486"/>
      <point x="331" y="478"/>
      <point x="330" y="470" type="curve"/>
      <point x="328" y="371"/>
      <point x="321" y="310"/>
      <point x="212" y="285" type="curve"/>
      <point x="212" y="279" type="line"/>
      <point x="298" y="262"/>
      <point x="293" y="204"/>
      <point x="259" y="122" type="curve" smooth="yes"/>
      <point x="252" y="105"/>
      <point x="244" y="88"/>
      <point x="235" y="69" type="curve" smooth="yes"/>
      <point x="230" y="58"/>
      <point x="225" y="46"/>
      <point x="219" y="32" type="curve" smooth="yes"/>
      <point x="208" y="6"/>
      <point x="197" y="-24"/>
      <point x="198" y="-47" type="curve" smooth="yes"/>
      <point x="200" y="-78"/>
      <point x="220" y="-99"/>
      <point x="277" y="-103" type="curve"/>
      <point x="269" y="-128" type="line"/>
      <point x="258" y="-128" type="line" smooth="yes"/>
      <point x="201" y="-128"/>
      <point x="138" y="-108"/>
      <point x="135" y="-39" type="curve" smooth="yes"/>
      <point x="134" y="-9"/>
      <point x="144" y="24"/>
      <point x="161" y="64" type="curve" smooth="yes"/>
      <point x="167" y="78"/>
      <point x="173" y="92"/>
      <point x="180" y="107" type="curve"/>
      <point x="186" y="122"/>
      <point x="193" y="137"/>
      <point x="199" y="152" type="curve" smooth="yes"/>
      <point x="222" y="211"/>
      <point x="229" y="267"/>
    </contour>
  </outline>
</glyph>
<glyph name="bar" format="2">
  <advance width="270"/>
  <unicode hex="007C"/>
  <outline>
    <contour>
      <point x="165" y="-250" type="line"/>
      <point x="165" y="750" type="line"/>
      <point x="233" y="750" type="line"/>
      <point x="233" y="-250" type="line"/>
    </contour>
  </outline>
</glyph>
<glyph name="braceright" format="2">
  <advance width="340"/>
  <unicode hex="007D"/>
  <outline>
    <contour>
      <point x="15" y="-128" type="line"/>
      <point x="22" y="-103" type="line"/>
      <point x="82" y="-99"/>
      <point x="114" y="-75"/>
      <point x="128" y="-39" type="curve"/>
      <point x="133" y="-25"/>
      <point x="136" y="-10"/>
      <point x="138" y="5" type="curve" smooth="yes"/>
      <point x="141" y="28"/>
      <point x="141" y="51"/>
      <point x="142" y="69" type="curve"/>
      <point x="142" y="78"/>
      <point x="142" y="86"/>
      <point x="143" y="94" type="curve"/>
      <point x="145" y="193"/>
      <point x="152" y="254"/>
      <point x="261" y="279" type="curve"/>
      <point x="261" y="285" type="line"/>
      <point x="175" y="303"/>
      <point x="180" y="360"/>
      <point x="214" y="442" type="curve" smooth="yes"/>
      <point x="221" y="459"/>
      <point x="229" y="477"/>
      <point x="238" y="495" type="curve"/>
      <point x="243" y="506"/>
      <point x="249" y="518"/>
      <point x="254" y="532" type="curve"/>
      <point x="266" y="558"/>
      <point x="276" y="588"/>
      <point x="275" y="611" type="curve" smooth="yes"/>
      <point x="273" y="642"/>
      <point x="253" y="663"/>
      <point x="196" y="667" type="curve"/>
      <point x="204" y="692" type="line"/>
      <point x="214" y="692" type="line" smooth="yes"/>
      <point x="271" y="692"/>
      <point x="334" y="672"/>
      <point x="337" y="603" type="curve" smooth="yes"/>
      <point x="338" y="574"/>
      <point x="328" y="543"/>
      <point x="313" y="506" type="curve" smooth="yes"/>
      <point x="307" y="491"/>
      <point x="300" y="474"/>
      <point x="292" y="457" type="curve"/>
      <point x="286" y="442"/>
      <point x="279" y="427"/>
      <point x="273" y="412" type="curve" smooth="yes"/>
      <point x="250" y="353"/>
      <point x="243" y="297"/>
      <point x="334" y="295" type="curve"/>
      <point x="326" y="269" type="line"/>
      <point x="243" y="267"/>
      <point x="223" y="221"/>
      <point x="216" y="165" type="curve"/>
      <point x="214" y="144"/>
      <point x="213" y="121"/>
      <point x="212" y="99" type="curve" smooth="yes"/>
      <point x="211" y="84"/>
      <point x="210" y="69"/>
      <point x="209" y="54" type="curve"/>
      <point x="199" y="-41"/>
      <point x="170" y="-117"/>
      <point x="58" y="-127" type="curve"/>
      <point x="50" y="-128"/>
      <point x="41" y="-128"/>
      <point x="31" y="-128" type="curve" smooth="yes"/>
    </contour>
  </outline>
</glyph>
<glyph name="asciitilde" format="2">
  <advance width="570"/>
  <unicode hex="007E"/>
  <outline>
    <contour>
      <point x="133" y="201" type="line"/>
      <point x="157" y="251"/>
      <point x="190" y="307"/>
      <point x="263" y="307" type="curve" smooth="yes"/>
      <point x="293" y="307"/>
      <point x="325" y="296"/>
      <point x="356" y="284" type="curve"/>
      <point x="387" y="273"/>
      <point x="416" y="261"/>
      <point x="440" y="261" type="curve" smooth="yes"/>
      <point x="474" y="261"/>
      <point x="488" y="275"/>
      <point x="517" y="318" type="curve"/>
      <point x="557" y="293" type="line"/>
      <point x="529" y="232"/>
      <point x="494" y="192"/>
      <point x="437" y="192" type="curve" smooth="yes"/>
      <point x="408" y="192"/>
      <point x="374" y="204"/>
      <point x="342" y="215" type="curve"/>
      <point x="310" y="227"/>
      <point x="278" y="238"/>
      <point x="252" y="238" type="curve" smooth="yes"/>
      <point x="214" y="238"/>
      <point x="195" y="217"/>
      <point x="174" y="176" type="curve"/>
    </contour>
  </outline>
</glyph>
<glyph name="exclamdown" format="2">
  <advance width="265"/>
  <unicode hex="00A1"/>
  <outline>
    <contour>
      <point x="167" y="433" type="curve" smooth="yes"/>
      <point x="167" y="475"/>
      <point x="193" y="502"/>
      <point x="232" y="502" type="curve" smooth="yes"/>
      <point x="268" y="502"/>
      <point x="289" y="477"/>
      <point x="289" y="445" type="curve" smooth="yes"/>
      <point x="289" y="404"/>
      <point x="262" y="377"/>
      <point x="224" y="377" type="curve" smooth="yes"/>
      <point x="188" y="377"/>
      <point x="167" y="403"/>
    </contour>
    <contour>
      <point x="40" y="-149" type="curve" smooth="yes"/>
      <point x="180" y="281" type="line"/>
      <point x="208" y="281" type="line"/>
      <point x="163" y="-75" type="line" smooth="yes"/>
      <point x="160" y="-101"/>
      <point x="156" y="-128"/>
      <point x="153" y="-154" type="curve" smooth="yes"/>
      <point x="148" y="-190"/>
      <point x="135" y="-217"/>
      <point x="82" y="-217" type="curve" smooth="yes"/>
      <point x="27" y="-217"/>
      <point x="27" y="-189"/>
    </contour>
  </outline>
</glyph>
<glyph name="cent" format="2">
  <advance width="530"/>
  <unicode hex="00A2"/>
  <outline>
    <contour>
      <point x="224" y="277" type="curve" smooth="yes"/>
      <point x="223" y="210"/>
      <point x="238" y="155"/>
      <point x="305" y="138" type="curve"/>
      <point x="401" y="563" type="line"/>
      <point x="286" y="563"/>
      <point x="226" y="382"/>
    </contour>
    <contour>
      <point x="129" y="275" type="curve" smooth="yes"/>
      <point x="130" y="343"/>
      <point x="152" y="414"/>
      <point x="191" y="473" type="curve" smooth="yes"/>
      <point x="239" y="544"/>
      <point x="313" y="596"/>
      <point x="409" y="599" type="curve"/>
      <point x="424" y="669" type="line"/>
      <point x="465" y="668" type="line"/>
      <point x="451" y="599" type="line"/>
      <point x="522" y="597"/>
      <point x="599" y="559"/>
      <point x="598" y="500" type="curve" smooth="yes"/>
      <point x="598" y="468"/>
      <point x="563" y="454"/>
      <point x="542" y="455" type="curve"/>
      <point x="526" y="455"/>
      <point x="518" y="465"/>
      <point x="515" y="480" type="curve"/>
      <point x="515" y="480"/>
      <point x="515" y="480"/>
      <point x="515" y="480" type="curve"/>
      <point x="503" y="533"/>
      <point x="470" y="562"/>
      <point x="443" y="563" type="curve"/>
      <point x="344" y="129" type="line"/>
      <point x="406" y="129"/>
      <point x="459" y="151"/>
      <point x="514" y="220" type="curve"/>
      <point x="536" y="201" type="line"/>
      <point x="486" y="124"/>
      <point x="410" y="88"/>
      <point x="334" y="87" type="curve"/>
      <point x="310" y="-21" type="line"/>
      <point x="269" y="-21" type="line"/>
      <point x="293" y="87" type="line"/>
      <point x="229" y="89"/>
      <point x="127" y="131"/>
    </contour>
  </outline>
</glyph>
<glyph name="brokenbar" format="2">
  <advance width="270"/>
  <unicode hex="00A6"/>
  <outline>
    <contour>
      <point x="165" y="-175" type="line"/>
      <point x="165" y="175" type="line"/>
      <point x="233" y="175" type="line"/>
      <point x="233" y="-175" type="line"/>
    </contour>
    <contour>
      <point x="165" y="325" type="line"/>
      <point x="165" y="675" type="line"/>
      <point x="233" y="675" type="line"/>
      <point x="233" y="325" type="line"/>
    </contour>
  </outline>
</glyph>
<glyph name="dieresis" format="2">
  <advance width="400"/>
  <unicode hex="00A8"/>
  <outline>
    <contour>
      <point x="415" y="621" type="curve" smooth="yes"/>
      <point x="415" y="657"/>
      <point x="441" y="682"/>
      <point x="474" y="682" type="curve" smooth="yes"/>
      <point x="504" y="682"/>
      <point x="522" y="658"/>
      <point x="522" y="633" type="curve" smooth="yes"/>
      <point x="522" y="599"/>
      <point x="499" y="572"/>
      <point x="464" y="572" type="curve" smooth="yes"/>
      <point x="432" y="572"/>
      <point x="415" y="592"/>
    </contour>
    <contour>
      <point x="207" y="621" type="curve" smooth="yes"/>
      <point x="207" y="657"/>
      <point x="233" y="682"/>
      <point x="266" y="682" type="curve" smooth="yes"/>
      <point x="296" y="682"/>
      <point x="314" y="658"/>
      <point x="314" y="633" type="curve" smooth="yes"/>
      <point x="314" y="599"/>
      <point x="291" y="572"/>
      <point x="256" y="572" type="curve" smooth="yes"/>
      <point x="224" y="572"/>
      <point x="207" y="592"/>
    </contour>
  </outline>
</glyph>
<glyph name="ordfeminine" format="2">
  <advance width="425"/>
  <unicode hex="00AA"/>
  <outline>
    <contour>
      <point x="191" y="342" type="curve" smooth="yes"/>
      <point x="191" y="324"/>
      <point x="196" y="313"/>
      <point x="207" y="309" type="curve"/>
      <point x="211" y="308"/>
      <point x="216" y="307"/>
      <point x="221" y="307" type="curve" smooth="yes"/>
      <point x="245" y="307"/>
      <point x="276" y="332"/>
      <point x="303" y="366" type="curve"/>
      <point x="311" y="375"/>
      <point x="318" y="386"/>
      <point x="325" y="396" type="curve" smooth="yes"/>
      <point x="359" y="446"/>
      <point x="384" y="507"/>
      <point x="397" y="549" type="curve"/>
      <point x="391" y="557"/>
      <point x="375" y="562"/>
      <point x="355" y="562" type="curve" smooth="yes"/>
      <point x="256" y="562"/>
      <point x="191" y="412"/>
    </contour>
    <contour>
      <point x="112" y="341" type="curve" smooth="yes"/>
      <point x="112" y="420"/>
      <point x="184" y="574"/>
      <point x="325" y="589" type="curve"/>
      <point x="332" y="590"/>
      <point x="340" y="590"/>
      <point x="347" y="590" type="curve" smooth="yes"/>
      <point x="371" y="590"/>
      <point x="387" y="586"/>
      <point x="402" y="577" type="curve"/>
      <point x="405" y="585" type="line"/>
      <point x="478" y="585" type="line"/>
      <point x="408" y="344" type="line" smooth="yes"/>
      <point x="401" y="320"/>
      <point x="400" y="307"/>
      <point x="412" y="307" type="curve" smooth="yes"/>
      <point x="432" y="307"/>
      <point x="461" y="349"/>
      <point x="475" y="371" type="curve"/>
      <point x="495" y="359" type="line"/>
      <point x="468" y="306"/>
      <point x="423" y="265"/>
      <point x="371" y="265" type="curve" smooth="yes"/>
      <point x="339" y="265"/>
      <point x="324" y="289"/>
      <point x="336" y="330" type="curve"/>
      <point x="338" y="336"/>
      <point x="339" y="341"/>
      <point x="341" y="347" type="curve"/>
      <point x="356" y="398" type="line"/>
      <point x="353" y="398" type="line"/>
      <point x="317" y="343"/>
      <point x="257" y="265"/>
      <point x="179" y="265" type="curve" smooth="yes"/>
      <point x="130" y="265"/>
      <point x="112" y="301"/>
    </contour>
  </outline>
</glyph>
<glyph name="guillemotleft" format="2">
  <advance width="462"/>
  <unicode hex="00AB"/>
  <outline>
    <contour>
      <point x="312" y="223" type="line" smooth="yes"/>
      <point x="306" y="232"/>
      <point x="308" y="246"/>
      <point x="316" y="254" type="curve"/>
      <point x="485" y="435" type="line"/>
      <point x="505" y="418" type="line"/>
      <point x="403" y="255" type="line" smooth="yes"/>
      <point x="396" y="244"/>
      <point x="395" y="233"/>
      <point x="399" y="221" type="curve" smooth="yes"/>
      <point x="454" y="56" type="line"/>
      <point x="431" y="41" type="line"/>
    </contour>
    <contour>
      <point x="117" y="223" type="line" smooth="yes"/>
      <point x="111" y="232"/>
      <point x="113" y="246"/>
      <point x="121" y="254" type="curve"/>
      <point x="290" y="435" type="line"/>
      <point x="310" y="418" type="line"/>
      <point x="208" y="255" type="line" smooth="yes"/>
      <point x="201" y="244"/>
      <point x="200" y="233"/>
      <point x="204" y="221" type="curve" smooth="yes"/>
      <point x="259" y="56" type="line"/>
      <point x="236" y="41" type="line"/>
    </contour>
  </outline>
</glyph>
<glyph name="logicalnot" format="2">
  <advance width="570"/>
  <unicode hex="00AC"/>
  <outline>
    <contour>
      <point x="93" y="331" type="line"/>
      <point x="93" y="389" type="line"/>
      <point x="577" y="389" type="line"/>
      <point x="577" y="102" type="line"/>
      <point x="509" y="102" type="line"/>
      <point x="509" y="331" type="line"/>
    </contour>
  </outline>
</glyph>
<glyph name="registered" format="2">
  <advance width="836"/>
  <unicode hex="00AE"/>
  <outline>
    <contour>
      <point x="441" y="362" type="line"/>
      <point x="470" y="362" type="line"/>
      <point x="479" y="362" type="line" smooth="yes"/>
      <point x="505" y="362"/>
      <point x="526" y="367"/>
      <point x="541" y="379" type="curve"/>
      <point x="556" y="392"/>
      <point x="565" y="411"/>
      <point x="565" y="438" type="curve" smooth="yes"/>
      <point x="565" y="499"/>
      <point x="524" y="512"/>
      <point x="486" y="512" type="curve" smooth="yes"/>
      <point x="445" y="512"/>
      <point x="441" y="506"/>
      <point x="441" y="491" type="curve" smooth="yes"/>
    </contour>
    <contour>
      <point x="325" y="159" type="line"/>
      <point x="325" y="179" type="line"/>
      <point x="356" y="183" type="line" smooth="yes"/>
      <point x="373" y="185"/>
      <point x="376" y="194"/>
      <point x="376" y="211" type="curve" smooth="yes"/>
      <point x="376" y="486" type="line" smooth="yes"/>
      <point x="376" y="505"/>
      <point x="373" y="513"/>
      <point x="356" y="516" type="curve"/>
      <point x="325" y="520" type="line"/>
      <point x="325" y="540" type="line"/>
      <point x="505" y="540" type="line" smooth="yes"/>
      <point x="512" y="540"/>
      <point x="519" y="540"/>
      <point x="525" y="539" type="curve"/>
      <point x="607" y="534"/>
      <point x="635" y="496"/>
      <point x="635" y="446" type="curve" smooth="yes"/>
      <point x="635" y="391"/>
      <point x="594" y="360"/>
      <point x="538" y="351" type="curve"/>
      <point x="538" y="349" type="line"/>
      <point x="598" y="334"/>
      <point x="608" y="297"/>
      <point x="616" y="253" type="curve" smooth="yes"/>
      <point x="621" y="224"/>
      <point x="630" y="206"/>
      <point x="643" y="191" type="curve"/>
      <point x="651" y="183"/>
      <point x="664" y="178"/>
      <point x="678" y="174" type="curve"/>
      <point x="678" y="159" type="line"/>
      <point x="634" y="159" type="line" smooth="yes"/>
      <point x="591" y="159"/>
      <point x="571" y="174"/>
      <point x="561" y="202" type="curve"/>
      <point x="559" y="207"/>
      <point x="558" y="212"/>
      <point x="556" y="217" type="curve"/>
      <point x="546" y="252"/>
      <point x="543" y="287"/>
      <point x="535" y="304" type="curve" smooth="yes"/>
      <point x="525" y="325"/>
      <point x="506" y="334"/>
      <point x="475" y="334" type="curve" smooth="yes"/>
      <point x="441" y="334" type="line"/>
      <point x="441" y="225" type="line"/>
      <point x="441" y="211" type="line" smooth="yes"/>
      <point x="441" y="194"/>
      <point x="445" y="185"/>
      <point x="463" y="183" type="curve" smooth="yes"/>
      <point x="493" y="179" type="line"/>
      <point x="493" y="159" type="line"/>
    </contour>
    <contour>
      <point x="190" y="346" type="curve" smooth="yes"/>
      <point x="190" y="169"/>
      <point x="322" y="30"/>
      <point x="490" y="30" type="curve" smooth="yes"/>
      <point x="658" y="30"/>
      <point x="790" y="169"/>
      <point x="790" y="346" type="curve" smooth="yes"/>
      <point x="790" y="523"/>
      <point x="658" y="662"/>
      <point x="490" y="662" type="curve" smooth="yes"/>
      <point x="322" y="662"/>
      <point x="190" y="523"/>
    </contour>
    <contour>
      <point x="126" y="346" type="curve" smooth="yes"/>
      <point x="126" y="546"/>
      <point x="289" y="707"/>
      <point x="490" y="707" type="curve" smooth="yes"/>
      <point x="691" y="707"/>
      <point x="854" y="546"/>
      <point x="854" y="346" type="curve" smooth="yes"/>
      <point x="854" y="146"/>
      <point x="691" y="-15"/>
      <point x="490" y="-15" type="curve" smooth="yes"/>
      <point x="289" y="-15"/>
      <point x="126" y="146"/>
    </contour>
  </outline>
</glyph>
<glyph name="macron" format="2">
  <advance width="400"/>
  <unicode hex="00AF"/>
  <outline>
    <contour>
      <point x="228" y="597" type="line"/>
      <point x="246" y="656" type="line"/>
      <point x="524" y="656" type="line"/>
      <point x="506" y="597" type="line"/>
    </contour>
  </outline>
</glyph>
<glyph name="uni00B3" format="2">
  <advance width="370"/>
  <unicode hex="00B3"/>
  <outline>
    <contour>
      <point x="105" y="480" type="curve" smooth="yes"/>
      <point x="105" y="497"/>
      <point x="121" y="519"/>
      <point x="146" y="519" type="curve" smooth="yes"/>
      <point x="161" y="519"/>
      <point x="166" y="508"/>
      <point x="171" y="493" type="curve" smooth="yes"/>
      <point x="185" y="450"/>
      <point x="207" y="429"/>
      <point x="244" y="429" type="curve" smooth="yes"/>
      <point x="295" y="429"/>
      <point x="325" y="475"/>
      <point x="325" y="536" type="curve" smooth="yes"/>
      <point x="325" y="586"/>
      <point x="302" y="606"/>
      <point x="264" y="606" type="curve" smooth="yes"/>
      <point x="246" y="606"/>
      <point x="217" y="599"/>
      <point x="209" y="599" type="curve" smooth="yes"/>
      <point x="200" y="599"/>
      <point x="196" y="606"/>
      <point x="196" y="615" type="curve" smooth="yes"/>
      <point x="196" y="634"/>
      <point x="205" y="645"/>
      <point x="213" y="645" type="curve" smooth="yes"/>
      <point x="223" y="645"/>
      <point x="252" y="637"/>
      <point x="274" y="637" type="curve" smooth="yes"/>
      <point x="332" y="637"/>
      <point x="357" y="688"/>
      <point x="357" y="732" type="curve" smooth="yes"/>
      <point x="357" y="770"/>
      <point x="335" y="788"/>
      <point x="306" y="788" type="curve" smooth="yes"/>
      <point x="265" y="788"/>
      <point x="247" y="757"/>
      <point x="229" y="723" type="curve" smooth="yes"/>
      <point x="223" y="712"/>
      <point x="217" y="704"/>
      <point x="201" y="704" type="curve" smooth="yes"/>
      <point x="184" y="704"/>
      <point x="167" y="720"/>
      <point x="167" y="735" type="curve" smooth="yes"/>
      <point x="167" y="769"/>
      <point x="216" y="816"/>
      <point x="304" y="816" type="curve" smooth="yes"/>
      <point x="391" y="816"/>
      <point x="435" y="775"/>
      <point x="435" y="717" type="curve" smooth="yes"/>
      <point x="435" y="663"/>
      <point x="389" y="628"/>
      <point x="327" y="623" type="curve"/>
      <point x="327" y="621" type="line"/>
      <point x="390" y="609"/>
      <point x="408" y="562"/>
      <point x="408" y="525" type="curve" smooth="yes"/>
      <point x="408" y="461"/>
      <point x="359" y="401"/>
      <point x="237" y="401" type="curve" smooth="yes"/>
      <point x="151" y="401"/>
      <point x="105" y="446"/>
    </contour>
  </outline>
</glyph>
<glyph name="acute" format="2">
  <advance width="400"/>
  <unicode hex="00B4"/>
  <outline>
    <contour>
      <point x="249" y="562" type="line"/>
      <point x="368" y="682" type="line" smooth="yes"/>
      <point x="398" y="713"/>
      <point x="415" y="723"/>
      <point x="432" y="723" type="curve" smooth="yes"/>
      <point x="447" y="723"/>
      <point x="471" y="700"/>
      <point x="471" y="680" type="curve" smooth="yes"/>
      <point x="471" y="659"/>
      <point x="445" y="642"/>
      <point x="415" y="626" type="curve" smooth="yes"/>
      <point x="264" y="542" type="line"/>
    </contour>
  </outline>
</glyph>
<glyph name="uni00B9" format="2">
  <advance width="370"/>
  <unicode hex="00B9"/>
  <outline>
    <contour>
      <point x="139" y="408" type="line"/>
      <point x="144" y="431" type="line"/>
      <point x="195" y="435" type="line" smooth="yes"/>
      <point x="213" y="436"/>
      <point x="223" y="442"/>
      <point x="226" y="458" type="curve" smooth="yes"/>
      <point x="288" y="747" type="line"/>
      <point x="291" y="759"/>
      <point x="289" y="765"/>
      <point x="274" y="767" type="curve"/>
      <point x="219" y="776" type="line"/>
      <point x="222" y="795" type="line"/>
      <point x="372" y="816" type="line"/>
      <point x="375" y="812" type="line"/>
      <point x="299" y="458" type="line" smooth="yes"/>
      <point x="296" y="442"/>
      <point x="302" y="436"/>
      <point x="321" y="435" type="curve"/>
      <point x="369" y="431" type="line"/>
      <point x="364" y="408" type="line"/>
    </contour>
  </outline>
</glyph>
<glyph name="ordmasculine" format="2">
  <advance width="389"/>
  <unicode hex="00BA"/>
  <outline>
    <contour>
      <point x="199" y="495" type="curve" smooth="yes"/>
      <point x="199" y="458"/>
      <point x="215" y="436"/>
      <point x="241" y="430" type="curve"/>
      <point x="246" y="429"/>
      <point x="250" y="429"/>
      <point x="255" y="429" type="curve" smooth="yes"/>
      <point x="298" y="429"/>
      <point x="327" y="465"/>
      <point x="348" y="511" type="curve" smooth="yes"/>
      <point x="368" y="556"/>
      <point x="377" y="599"/>
      <point x="377" y="630" type="curve" smooth="yes"/>
      <point x="377" y="635"/>
      <point x="377" y="639"/>
      <point x="376" y="644" type="curve"/>
      <point x="374" y="668"/>
      <point x="365" y="689"/>
      <point x="340" y="696" type="curve"/>
      <point x="334" y="697"/>
      <point x="329" y="698"/>
      <point x="322" y="698" type="curve" smooth="yes"/>
      <point x="285" y="698"/>
      <point x="255" y="667"/>
      <point x="235" y="628" type="curve"/>
      <point x="211" y="584"/>
      <point x="199" y="529"/>
    </contour>
    <contour>
      <point x="121" y="519" type="curve" smooth="yes"/>
      <point x="121" y="550"/>
      <point x="131" y="601"/>
      <point x="161" y="644" type="curve" smooth="yes"/>
      <point x="189" y="685"/>
      <point x="233" y="719"/>
      <point x="296" y="725" type="curve"/>
      <point x="303" y="726"/>
      <point x="311" y="726"/>
      <point x="318" y="726" type="curve" smooth="yes"/>
      <point x="382" y="726"/>
      <point x="455" y="701"/>
      <point x="455" y="603" type="curve" smooth="yes"/>
      <point x="455" y="578"/>
      <point x="445" y="527"/>
      <point x="416" y="483" type="curve"/>
      <point x="384" y="437"/>
      <point x="333" y="401"/>
      <point x="254" y="401" type="curve" smooth="yes"/>
      <point x="166" y="401"/>
      <point x="121" y="450"/>
    </contour>
  </outline>
</glyph>
<glyph name="guillemotright" format="2">
  <advance width="462"/>
  <unicode hex="00BB"/>
  <outline>
    <contour>
      <point x="259" y="58" type="line"/>
      <point x="361" y="221" type="line" smooth="yes"/>
      <point x="368" y="232"/>
      <point x="369" y="243"/>
      <point x="365" y="255" type="curve" smooth="yes"/>
      <point x="310" y="420" type="line"/>
      <point x="333" y="435" type="line"/>
      <point x="452" y="253" type="line" smooth="yes"/>
      <point x="458" y="244"/>
      <point x="456" y="230"/>
      <point x="448" y="222" type="curve"/>
      <point x="279" y="41" type="line"/>
    </contour>
    <contour>
      <point x="64" y="58" type="line"/>
      <point x="166" y="221" type="line" smooth="yes"/>
      <point x="173" y="232"/>
      <point x="174" y="243"/>
      <point x="170" y="255" type="curve" smooth="yes"/>
      <point x="115" y="420" type="line"/>
      <point x="138" y="435" type="line"/>
      <point x="257" y="253" type="line" smooth="yes"/>
      <point x="263" y="244"/>
      <point x="261" y="230"/>
      <point x="253" y="222" type="curve"/>
      <point x="84" y="41" type="line"/>
    </contour>
  </outline>
</glyph>
<glyph name="onequarter" format="2">
  <advance width="890"/>
  <unicode hex="00BC"/>
  <outline>
    <contour>
      <point x="146" y="272" type="line"/>
      <point x="151" y="295" type="line"/>
      <point x="185" y="298" type="line"/>
      <point x="191" y="298"/>
      <point x="196" y="299"/>
      <point x="202" y="299" type="curve"/>
      <point x="220" y="300"/>
      <point x="230" y="306"/>
      <point x="233" y="322" type="curve" smooth="yes"/>
      <point x="290" y="589" type="line"/>
      <point x="295" y="611" type="line" smooth="yes"/>
      <point x="298" y="623"/>
      <point x="296" y="629"/>
      <point x="281" y="631" type="curve"/>
      <point x="226" y="640" type="line"/>
      <point x="229" y="659" type="line"/>
      <point x="379" y="680" type="line"/>
      <point x="382" y="676" type="line"/>
      <point x="311" y="344" type="line"/>
      <point x="309" y="337"/>
      <point x="308" y="329"/>
      <point x="306" y="322" type="curve"/>
      <point x="303" y="306"/>
      <point x="309" y="300"/>
      <point x="328" y="299" type="curve"/>
      <point x="376" y="295" type="line"/>
      <point x="371" y="272" type="line"/>
    </contour>
    <contour>
      <point x="232" y="6" type="line"/>
      <point x="768" y="698" type="line"/>
      <point x="802" y="671" type="line"/>
      <point x="265" y="-24" type="line"/>
    </contour>
    <contour>
      <point x="576" y="137" type="curve"/>
      <point x="702" y="137" type="line"/>
      <point x="745" y="329" type="line"/>
      <point x="739" y="329" type="line"/>
      <point x="683" y="273"/>
      <point x="629" y="207"/>
    </contour>
    <contour>
      <point x="515" y="120" type="line"/>
      <point x="596" y="220"/>
      <point x="683" y="317"/>
      <point x="766" y="401" type="curve"/>
      <point x="828" y="401" type="line"/>
      <point x="772" y="137" type="line"/>
      <point x="840" y="137" type="line"/>
      <point x="830" y="104" type="line"/>
      <point x="765" y="104" type="line"/>
      <point x="754" y="50" type="line" smooth="yes"/>
      <point x="751" y="34"/>
      <point x="757" y="27"/>
      <point x="771" y="26" type="curve" smooth="yes"/>
      <point x="804" y="23" type="line"/>
      <point x="799" y="0" type="line"/>
      <point x="606" y="0" type="line"/>
      <point x="611" y="23" type="line"/>
      <point x="642" y="25" type="line"/>
      <point x="657" y="26" type="line" smooth="yes"/>
      <point x="670" y="27"/>
      <point x="681" y="34"/>
      <point x="684" y="50" type="curve" smooth="yes"/>
      <point x="695" y="104" type="line"/>
      <point x="524" y="104" type="line"/>
    </contour>
  </outline>
</glyph>
<glyph name="onehalf" format="2">
  <advance width="890"/>
  <unicode hex="00BD"/>
  <outline>
    <contour>
      <point x="502" y="9" type="line"/>
      <point x="520" y="58"/>
      <point x="580" y="119"/>
      <point x="647" y="154" type="curve" smooth="yes"/>
      <point x="737" y="201"/>
      <point x="783" y="253"/>
      <point x="783" y="315" type="curve" smooth="yes"/>
      <point x="783" y="345"/>
      <point x="773" y="380"/>
      <point x="733" y="380" type="curve" smooth="yes"/>
      <point x="697" y="380"/>
      <point x="675" y="351"/>
      <point x="651" y="301" type="curve" smooth="yes"/>
      <point x="646" y="291"/>
      <point x="637" y="280"/>
      <point x="623" y="280" type="curve" smooth="yes"/>
      <point x="604" y="280"/>
      <point x="585" y="296"/>
      <point x="585" y="316" type="curve" smooth="yes"/>
      <point x="585" y="348"/>
      <point x="637" y="408"/>
      <point x="736" y="408" type="curve" smooth="yes"/>
      <point x="823" y="408"/>
      <point x="866" y="362"/>
      <point x="866" y="301" type="curve" smooth="yes"/>
      <point x="866" y="234"/>
      <point x="814" y="199"/>
      <point x="737" y="164" type="curve" smooth="yes"/>
      <point x="715" y="154" type="line" smooth="yes"/>
      <point x="647" y="123"/>
      <point x="599" y="83"/>
      <point x="588" y="59" type="curve"/>
      <point x="743" y="59" type="line" smooth="yes"/>
      <point x="775" y="59"/>
      <point x="785" y="69"/>
      <point x="803" y="92" type="curve"/>
      <point x="825" y="85" type="line"/>
      <point x="789" y="0" type="line"/>
      <point x="509" y="0" type="line"/>
    </contour>
    <contour>
      <point x="120" y="272" type="line"/>
      <point x="125" y="295" type="line"/>
      <point x="159" y="298" type="line" smooth="yes"/>
      <point x="178" y="300"/>
      <point x="204" y="306"/>
      <point x="207" y="322" type="curve" smooth="yes"/>
      <point x="269" y="611" type="line"/>
      <point x="270" y="615"/>
      <point x="271" y="619"/>
      <point x="271" y="621" type="curve" smooth="yes"/>
      <point x="271" y="627"/>
      <point x="266" y="629"/>
      <point x="255" y="631" type="curve" smooth="yes"/>
      <point x="200" y="640" type="line"/>
      <point x="203" y="659" type="line"/>
      <point x="353" y="680" type="line"/>
      <point x="356" y="676" type="line"/>
      <point x="285" y="344" type="line"/>
      <point x="284" y="338"/>
      <point x="279" y="321"/>
      <point x="279" y="313" type="curve" smooth="yes"/>
      <point x="279" y="304"/>
      <point x="286" y="300"/>
      <point x="302" y="299" type="curve" smooth="yes"/>
      <point x="350" y="295" type="line"/>
      <point x="345" y="272" type="line"/>
    </contour>
    <contour>
      <point x="180" y="6" type="line"/>
      <point x="716" y="698" type="line"/>
      <point x="750" y="671" type="line"/>
      <point x="213" y="-24" type="line"/>
    </contour>
  </outline>
</glyph>
<glyph name="threequarters" format="2">
  <advance width="890"/>
  <unicode hex="00BE"/>
  <outline>
    <contour>
      <point x="151" y="344" type="curve"/>
      <point x="151" y="361"/>
      <point x="167" y="383"/>
      <point x="192" y="383" type="curve" smooth="yes"/>
      <point x="207" y="383"/>
      <point x="212" y="372"/>
      <point x="217" y="357" type="curve" smooth="yes"/>
      <point x="231" y="314"/>
      <point x="253" y="293"/>
      <point x="290" y="293" type="curve" smooth="yes"/>
      <point x="341" y="293"/>
      <point x="371" y="339"/>
      <point x="371" y="400" type="curve" smooth="yes"/>
      <point x="371" y="450"/>
      <point x="348" y="470"/>
      <point x="310" y="470" type="curve" smooth="yes"/>
      <point x="292" y="470"/>
      <point x="263" y="463"/>
      <point x="255" y="463" type="curve" smooth="yes"/>
      <point x="246" y="463"/>
      <point x="242" y="470"/>
      <point x="242" y="479" type="curve"/>
      <point x="242" y="479"/>
      <point x="242" y="479"/>
      <point x="242" y="479" type="curve"/>
      <point x="242" y="498"/>
      <point x="251" y="509"/>
      <point x="259" y="509" type="curve" smooth="yes"/>
      <point x="269" y="509"/>
      <point x="298" y="501"/>
      <point x="320" y="501" type="curve" smooth="yes"/>
      <point x="378" y="501"/>
      <point x="403" y="552"/>
      <point x="403" y="596" type="curve" smooth="yes"/>
      <point x="403" y="634"/>
      <point x="381" y="652"/>
      <point x="352" y="652" type="curve" smooth="yes"/>
      <point x="316" y="652"/>
      <point x="297" y="628"/>
      <point x="281" y="598" type="curve"/>
      <point x="279" y="595"/>
      <point x="277" y="591"/>
      <point x="275" y="587" type="curve"/>
      <point x="269" y="576"/>
      <point x="263" y="568"/>
      <point x="247" y="568" type="curve" smooth="yes"/>
      <point x="230" y="568"/>
      <point x="213" y="584"/>
      <point x="213" y="599" type="curve" smooth="yes"/>
      <point x="213" y="633"/>
      <point x="262" y="680"/>
      <point x="350" y="680" type="curve" smooth="yes"/>
      <point x="437" y="680"/>
      <point x="481" y="639"/>
      <point x="481" y="581" type="curve" smooth="yes"/>
      <point x="481" y="527"/>
      <point x="435" y="492"/>
      <point x="373" y="487" type="curve"/>
      <point x="373" y="485" type="line"/>
      <point x="436" y="473"/>
      <point x="454" y="426"/>
      <point x="454" y="389" type="curve" smooth="yes"/>
      <point x="454" y="325"/>
      <point x="405" y="265"/>
      <point x="283" y="265" type="curve" smooth="yes"/>
      <point x="197" y="265"/>
      <point x="151" y="310"/>
    </contour>
    <contour>
      <point x="255" y="6" type="line"/>
      <point x="791" y="698" type="line"/>
      <point x="825" y="671" type="line"/>
      <point x="288" y="-24" type="line"/>
    </contour>
    <contour>
      <point x="587" y="137" type="curve"/>
      <point x="713" y="137" type="line"/>
      <point x="756" y="329" type="line"/>
      <point x="750" y="329" type="line"/>
      <point x="694" y="273"/>
      <point x="640" y="207"/>
    </contour>
    <contour>
      <point x="526" y="120" type="line"/>
      <point x="607" y="220"/>
      <point x="694" y="317"/>
      <point x="777" y="401" type="curve"/>
      <point x="839" y="401" type="line"/>
      <point x="783" y="137" type="line"/>
      <point x="851" y="137" type="line"/>
      <point x="841" y="104" type="line"/>
      <point x="776" y="104" type="line"/>
      <point x="765" y="50" type="line" smooth="yes"/>
      <point x="762" y="34"/>
      <point x="768" y="27"/>
      <point x="782" y="26" type="curve" smooth="yes"/>
      <point x="815" y="23" type="line"/>
      <point x="810" y="0" type="line"/>
      <point x="617" y="0" type="line"/>
      <point x="622" y="23" type="line"/>
      <point x="653" y="25" type="line"/>
      <point x="668" y="26" type="line" smooth="yes"/>
      <point x="681" y="27"/>
      <point x="692" y="34"/>
      <point x="695" y="50" type="curve" smooth="yes"/>
      <point x="706" y="104" type="line"/>
      <point x="535" y="104" type="line"/>
    </contour>
  </outline>
</glyph>
<glyph name="questiondown" format="2">
  <advance width="425"/>
  <unicode hex="00BF"/>
  <outline>
    <contour>
      <point x="257" y="433" type="curve" smooth="yes"/>
      <point x="257" y="475"/>
      <point x="283" y="502"/>
      <point x="322" y="502" type="curve" smooth="yes"/>
      <point x="358" y="502"/>
      <point x="379" y="477"/>
      <point x="379" y="445" type="curve" smooth="yes"/>
      <point x="379" y="404"/>
      <point x="352" y="377"/>
      <point x="314" y="377" type="curve" smooth="yes"/>
      <point x="278" y="377"/>
      <point x="257" y="403"/>
    </contour>
    <contour>
      <point x="38" y="-90" type="curve" smooth="yes"/>
      <point x="38" y="-5"/>
      <point x="89" y="30"/>
      <point x="166" y="69" type="curve" smooth="yes"/>
      <point x="231" y="102"/>
      <point x="280" y="136"/>
      <point x="280" y="188" type="curve" smooth="yes"/>
      <point x="280" y="231"/>
      <point x="249" y="246"/>
      <point x="216" y="246" type="curve" smooth="yes"/>
      <point x="198" y="246"/>
      <point x="185" y="244"/>
      <point x="173" y="243" type="curve"/>
      <point x="167" y="260" type="line"/>
      <point x="189" y="276"/>
      <point x="231" y="291"/>
      <point x="265" y="291" type="curve" smooth="yes"/>
      <point x="315" y="291"/>
      <point x="369" y="267"/>
      <point x="369" y="205" type="curve" smooth="yes"/>
      <point x="369" y="158"/>
      <point x="334" y="122"/>
      <point x="265" y="82" type="curve" smooth="yes"/>
      <point x="170" y="26"/>
      <point x="131" y="-46"/>
      <point x="131" y="-109" type="curve" smooth="yes"/>
      <point x="131" y="-150"/>
      <point x="149" y="-182"/>
      <point x="190" y="-182" type="curve" smooth="yes"/>
      <point x="234" y="-182"/>
      <point x="262" y="-143"/>
      <point x="283" y="-95" type="curve"/>
      <point x="286" y="-89"/>
      <point x="288" y="-84"/>
      <point x="290" y="-78" type="curve"/>
      <point x="294" y="-67"/>
      <point x="304" y="-59"/>
      <point x="321" y="-59" type="curve" smooth="yes"/>
      <point x="337" y="-59"/>
      <point x="365" y="-74"/>
      <point x="365" y="-103" type="curve" smooth="yes"/>
      <point x="365" y="-144"/>
      <point x="307" y="-217"/>
      <point x="195" y="-217" type="curve" smooth="yes"/>
      <point x="98" y="-217"/>
      <point x="38" y="-165"/>
    </contour>
  </outline>
</glyph>
<glyph name="multiply" format="2">
  <advance width="570"/>
  <unicode hex="00D7"/>
  <outline>
    <contour>
      <point x="123" y="66" type="line"/>
      <point x="302" y="250" type="line"/>
      <point x="123" y="432" type="line"/>
      <point x="164" y="478" type="line"/>
      <point x="345" y="294" type="line"/>
      <point x="525" y="478" type="line"/>
      <point x="567" y="432" type="line"/>
      <point x="388" y="250" type="line"/>
      <point x="567" y="66" type="line"/>
      <point x="525" y="22" type="line"/>
      <point x="345" y="206" type="line"/>
      <point x="164" y="22" type="line"/>
    </contour>
  </outline>
</glyph>
<glyph name="agrave" format="2">
  <advance width="561"/>
  <unicode hex="00E0"/>
  <outline>
    <contour>
      <point x="272" y="680" type="curve" smooth="yes"/>
      <point x="272" y="700"/>
      <point x="296" y="723"/>
      <point x="311" y="723" type="curve" smooth="yes"/>
      <point x="328" y="723"/>
      <point x="345" y="713"/>
      <point x="375" y="682" type="curve" smooth="yes"/>
      <point x="494" y="562" type="line"/>
      <point x="479" y="542" type="line"/>
      <point x="328" y="626" type="line"/>
      <point x="298" y="642"/>
      <point x="272" y="659"/>
    </contour>
    <contour>
      <point x="165" y="110" type="curve" smooth="yes"/>
      <point x="165" y="71"/>
      <point x="176" y="40"/>
      <point x="209" y="40" type="curve" smooth="yes"/>
      <point x="252" y="40"/>
      <point x="306" y="94"/>
      <point x="357" y="167" type="curve"/>
      <point x="363" y="175"/>
      <point x="368" y="184"/>
      <point x="374" y="192" type="curve"/>
      <point x="427" y="272"/>
      <point x="463" y="371"/>
      <point x="481" y="445" type="curve"/>
      <point x="466" y="459"/>
      <point x="444" y="467"/>
      <point x="420" y="467" type="curve" smooth="yes"/>
      <point x="263" y="467"/>
      <point x="165" y="220"/>
    </contour>
    <contour>
      <point x="66" y="107" type="curve" smooth="yes"/>
      <point x="66" y="233"/>
      <point x="170" y="478"/>
      <point x="386" y="500" type="curve" smooth="yes"/>
      <point x="397" y="501"/>
      <point x="407" y="502"/>
      <point x="418" y="502" type="curve" smooth="yes"/>
      <point x="445" y="502"/>
      <point x="474" y="493"/>
      <point x="491" y="481" type="curve"/>
      <point x="496" y="494" type="line"/>
      <point x="580" y="494" type="line"/>
      <point x="481" y="120" type="line"/>
      <point x="474" y="95" type="line" smooth="yes"/>
      <point x="465" y="63"/>
      <point x="464" y="40"/>
      <point x="484" y="40" type="curve" smooth="yes"/>
      <point x="512" y="40"/>
      <point x="556" y="111"/>
      <point x="574" y="146" type="curve"/>
      <point x="598" y="132" type="line"/>
      <point x="564" y="56"/>
      <point x="508" y="-12"/>
      <point x="432" y="-12" type="curve"/>
      <point x="432" y="-12"/>
      <point x="432" y="-12"/>
      <point x="432" y="-12" type="curve"/>
      <point x="378" y="-12"/>
      <point x="367" y="29"/>
      <point x="388" y="100" type="curve" smooth="yes"/>
      <point x="422" y="214" type="line"/>
      <point x="420" y="214" type="line"/>
      <point x="362" y="112"/>
      <point x="269" y="-12"/>
      <point x="162" y="-12" type="curve" smooth="yes"/>
      <point x="94" y="-12"/>
      <point x="66" y="47"/>
    </contour>
  </outline>
</glyph>
<glyph name="aacute" format="2">
  <advance width="561"/>
  <unicode hex="00E1"/>
  <outline>
    <contour>
      <point x="165" y="110" type="curve" smooth="yes"/>
      <point x="165" y="71"/>
      <point x="176" y="40"/>
      <point x="209" y="40" type="curve" smooth="yes"/>
      <point x="252" y="40"/>
      <point x="306" y="94"/>
      <point x="357" y="167" type="curve"/>
      <point x="363" y="175"/>
      <point x="368" y="184"/>
      <point x="374" y="192" type="curve"/>
      <point x="427" y="272"/>
      <point x="463" y="371"/>
      <point x="481" y="445" type="curve"/>
      <point x="466" y="459"/>
      <point x="444" y="467"/>
      <point x="420" y="467" type="curve" smooth="yes"/>
      <point x="263" y="467"/>
      <point x="165" y="220"/>
    </contour>
    <contour>
      <point x="66" y="107" type="curve" smooth="yes"/>
      <point x="66" y="233"/>
      <point x="170" y="478"/>
      <point x="386" y="500" type="curve" smooth="yes"/>
      <point x="397" y="501"/>
      <point x="407" y="502"/>
      <point x="418" y="502" type="curve" smooth="yes"/>
      <point x="445" y="502"/>
      <point x="474" y="493"/>
      <point x="491" y="481" type="curve"/>
      <point x="496" y="494" type="line"/>
      <point x="580" y="494" type="line"/>
      <point x="481" y="120" type="line"/>
      <point x="474" y="95" type="line" smooth="yes"/>
      <point x="465" y="63"/>
      <point x="464" y="40"/>
      <point x="484" y="40" type="curve" smooth="yes"/>
      <point x="512" y="40"/>
      <point x="556" y="111"/>
      <point x="574" y="146" type="curve"/>
      <point x="598" y="132" type="line"/>
      <point x="564" y="56"/>
      <point x="508" y="-12"/>
      <point x="432" y="-12" type="curve"/>
      <point x="432" y="-12"/>
      <point x="432" y="-12"/>
      <point x="432" y="-12" type="curve"/>
      <point x="378" y="-12"/>
      <point x="367" y="29"/>
      <point x="388" y="100" type="curve" smooth="yes"/>
      <point x="422" y="214" type="line"/>
      <point x="420" y="214" type="line"/>
      <point x="362" y="112"/>
      <point x="269" y="-12"/>
      <point x="162" y="-12" type="curve" smooth="yes"/>
      <point x="94" y="-12"/>
      <point x="66" y="47"/>
    </contour>
    <contour>
      <point x="370" y="562" type="line"/>
      <point x="489" y="682" type="line" smooth="yes"/>
      <point x="519" y="713"/>
      <point x="536" y="723"/>
      <point x="553" y="723" type="curve" smooth="yes"/>
      <point x="568" y="723"/>
      <point x="592" y="700"/>
      <point x="592" y="680" type="curve" smooth="yes"/>
      <point x="592" y="677"/>
      <point x="591" y="673"/>
      <point x="590" y="670" type="curve"/>
      <point x="583" y="653"/>
      <point x="561" y="639"/>
      <point x="536" y="626" type="curve"/>
      <point x="385" y="542" type="line"/>
    </contour>
  </outline>
</glyph>
<glyph name="atilde" format="2">
  <advance width="561"/>
  <unicode hex="00E3"/>
  <outline>
    <contour>
      <point x="165" y="110" type="curve" smooth="yes"/>
      <point x="165" y="71"/>
      <point x="176" y="40"/>
      <point x="209" y="40" type="curve" smooth="yes"/>
      <point x="252" y="40"/>
      <point x="306" y="94"/>
      <point x="357" y="167" type="curve"/>
      <point x="363" y="175"/>
      <point x="368" y="184"/>
      <point x="374" y="192" type="curve"/>
      <point x="427" y="272"/>
      <point x="463" y="371"/>
      <point x="481" y="445" type="curve"/>
      <point x="466" y="459"/>
      <point x="444" y="467"/>
      <point x="420" y="467" type="curve" smooth="yes"/>
      <point x="263" y="467"/>
      <point x="165" y="220"/>
    </contour>
    <contour>
      <point x="66" y="107" type="curve" smooth="yes"/>
      <point x="66" y="233"/>
      <point x="170" y="478"/>
      <point x="386" y="500" type="curve" smooth="yes"/>
      <point x="397" y="501"/>
      <point x="407" y="502"/>
      <point x="418" y="502" type="curve" smooth="yes"/>
      <point x="445" y="502"/>
      <point x="474" y="493"/>
      <point x="491" y="481" type="curve"/>
      <point x="496" y="494" type="line"/>
      <point x="580" y="494" type="line"/>
      <point x="481" y="120" type="line"/>
      <point x="474" y="95" type="line" smooth="yes"/>
      <point x="465" y="63"/>
      <point x="464" y="40"/>
      <point x="484" y="40" type="curve" smooth="yes"/>
      <point x="512" y="40"/>
      <point x="556" y="111"/>
      <point x="574" y="146" type="curve"/>
      <point x="598" y="132" type="line"/>
      <point x="564" y="56"/>
      <point x="508" y="-12"/>
      <point x="432" y="-12" type="curve"/>
      <point x="432" y="-12"/>
      <point x="432" y="-12"/>
      <point x="432" y="-12" type="curve"/>
      <point x="378" y="-12"/>
      <point x="367" y="29"/>
      <point x="388" y="100" type="curve" smooth="yes"/>
      <point x="422" y="214" type="line"/>
      <point x="420" y="214" type="line"/>
      <point x="362" y="112"/>
      <point x="269" y="-12"/>
      <point x="162" y="-12" type="curve" smooth="yes"/>
      <point x="94" y="-12"/>
      <point x="66" y="47"/>
    </contour>
    <contour>
      <point x="229" y="576" type="line"/>
      <point x="249" y="616"/>
      <point x="277" y="674"/>
      <point x="341" y="674" type="curve" smooth="yes"/>
      <point x="365" y="674"/>
      <point x="393" y="665"/>
      <point x="420" y="655" type="curve"/>
      <point x="448" y="646"/>
      <point x="475" y="636"/>
      <point x="496" y="636" type="curve" smooth="yes"/>
      <point x="524" y="636"/>
      <point x="536" y="647"/>
      <point x="564" y="682" type="curve"/>
      <point x="584" y="671" type="line"/>
      <point x="555" y="614"/>
      <point x="529" y="576"/>
      <point x="480" y="576" type="curve" smooth="yes"/>
      <point x="458" y="576"/>
      <point x="429" y="586"/>
      <point x="400" y="595" type="curve"/>
      <point x="371" y="605"/>
      <point x="342" y="614"/>
      <point x="320" y="614" type="curve" smooth="yes"/>
      <point x="287" y="614"/>
      <point x="270" y="598"/>
      <point x="248" y="563" type="curve"/>
    </contour>
  </outline>
</glyph>
<glyph name="ae" format="2">
  <advance width="779"/>
  <unicode hex="00E6"/>
  <outline>
    <contour>
      <point x="509" y="226" type="curve"/>
      <point x="677" y="262"/>
      <point x="738" y="338"/>
      <point x="738" y="407" type="curve" smooth="yes"/>
      <point x="738" y="416"/>
      <point x="737" y="424"/>
      <point x="734" y="432" type="curve"/>
      <point x="727" y="454"/>
      <point x="708" y="467"/>
      <point x="680" y="467" type="curve" smooth="yes"/>
      <point x="600" y="467"/>
      <point x="526" y="347"/>
    </contour>
    <contour>
      <point x="168" y="110" type="curve" smooth="yes"/>
      <point x="168" y="70"/>
      <point x="179" y="40"/>
      <point x="209" y="40" type="curve" smooth="yes"/>
      <point x="248" y="40"/>
      <point x="300" y="87"/>
      <point x="346" y="150" type="curve" smooth="yes"/>
      <point x="358" y="166"/>
      <point x="369" y="183"/>
      <point x="380" y="200" type="curve" smooth="yes"/>
      <point x="426" y="274"/>
      <point x="464" y="371"/>
      <point x="481" y="436" type="curve"/>
      <point x="467" y="447"/>
      <point x="443" y="455"/>
      <point x="417" y="455" type="curve" smooth="yes"/>
      <point x="266" y="454"/>
      <point x="168" y="220"/>
    </contour>
    <contour>
      <point x="69" y="107" type="curve" smooth="yes"/>
      <point x="69" y="227"/>
      <point x="178" y="490"/>
      <point x="421" y="490" type="curve" smooth="yes"/>
      <point x="446" y="490"/>
      <point x="476" y="483"/>
      <point x="499" y="473" type="curve"/>
      <point x="534" y="514" type="line"/>
      <point x="571" y="514" type="line"/>
      <point x="546" y="440" type="line"/>
      <point x="548" y="438" type="line"/>
      <point x="592" y="477"/>
      <point x="637" y="497"/>
      <point x="685" y="501" type="curve"/>
      <point x="691" y="502"/>
      <point x="698" y="502"/>
      <point x="705" y="502" type="curve" smooth="yes"/>
      <point x="790" y="502"/>
      <point x="832" y="455"/>
      <point x="832" y="402" type="curve" smooth="yes"/>
      <point x="832" y="397"/>
      <point x="832" y="391"/>
      <point x="831" y="386" type="curve"/>
      <point x="828" y="363"/>
      <point x="818" y="340"/>
      <point x="788" y="310" type="curve"/>
      <point x="785" y="308"/>
      <point x="782" y="305"/>
      <point x="779" y="302" type="curve"/>
      <point x="739" y="268"/>
      <point x="657" y="225"/>
      <point x="507" y="192" type="curve"/>
      <point x="507" y="187"/>
      <point x="506" y="181"/>
      <point x="506" y="176" type="curve" smooth="yes"/>
      <point x="506" y="98"/>
      <point x="527" y="37"/>
      <point x="596" y="37" type="curve" smooth="yes"/>
      <point x="671" y="37"/>
      <point x="725" y="104"/>
      <point x="760" y="152" type="curve"/>
      <point x="783" y="131" type="line"/>
      <point x="715" y="20"/>
      <point x="627" y="-12"/>
      <point x="554" y="-12" type="curve" smooth="yes"/>
      <point x="494" y="-12"/>
      <point x="408" y="12"/>
      <point x="408" y="152" type="curve" smooth="yes"/>
      <point x="408" y="164"/>
      <point x="410" y="175"/>
      <point x="412" y="195" type="curve"/>
      <point x="410" y="195" type="line"/>
      <point x="359" y="108"/>
      <point x="268" y="-12"/>
      <point x="164" y="-12" type="curve" smooth="yes"/>
      <point x="97" y="-12"/>
      <point x="69" y="47"/>
    </contour>
  </outline>
</glyph>
<glyph name="egrave" format="2">
  <advance width="453"/>
  <unicode hex="00E8"/>
  <outline>
    <contour>
      <point x="193" y="680" type="curve" smooth="yes"/>
      <point x="193" y="700"/>
      <point x="217" y="723"/>
      <point x="232" y="723" type="curve" smooth="yes"/>
      <point x="249" y="723"/>
      <point x="266" y="713"/>
      <point x="296" y="682" type="curve" smooth="yes"/>
      <point x="415" y="562" type="line"/>
      <point x="400" y="542" type="line"/>
      <point x="249" y="626" type="line"/>
      <point x="219" y="642"/>
      <point x="193" y="659"/>
    </contour>
    <contour>
      <point x="182" y="226" type="curve"/>
      <point x="351" y="262"/>
      <point x="412" y="338"/>
      <point x="412" y="408" type="curve" smooth="yes"/>
      <point x="412" y="434"/>
      <point x="399" y="454"/>
      <point x="378" y="463" type="curve" smooth="yes"/>
      <point x="371" y="466"/>
      <point x="363" y="467"/>
      <point x="354" y="467" type="curve" smooth="yes"/>
      <point x="274" y="467"/>
      <point x="199" y="347"/>
    </contour>
    <contour>
      <point x="80" y="152" type="curve" smooth="yes"/>
      <point x="80" y="236"/>
      <point x="110" y="323"/>
      <point x="163" y="388" type="curve" smooth="yes"/>
      <point x="213" y="450"/>
      <point x="279" y="493"/>
      <point x="358" y="501" type="curve" smooth="yes"/>
      <point x="366" y="502"/>
      <point x="374" y="502"/>
      <point x="382" y="502" type="curve" smooth="yes"/>
      <point x="464" y="502"/>
      <point x="506" y="455"/>
      <point x="506" y="402" type="curve" smooth="yes"/>
      <point x="506" y="374"/>
      <point x="499" y="341"/>
      <point x="464" y="306" type="curve"/>
      <point x="421" y="266"/>
      <point x="348" y="226"/>
      <point x="180" y="192" type="curve"/>
      <point x="179" y="185"/>
      <point x="179" y="181"/>
      <point x="179" y="176" type="curve" smooth="yes"/>
      <point x="179" y="97"/>
      <point x="200" y="37"/>
      <point x="270" y="37" type="curve" smooth="yes"/>
      <point x="345" y="37"/>
      <point x="399" y="104"/>
      <point x="435" y="151" type="curve"/>
      <point x="458" y="131" type="line"/>
      <point x="390" y="20"/>
      <point x="302" y="-12"/>
      <point x="229" y="-12" type="curve" smooth="yes"/>
      <point x="171" y="-12"/>
      <point x="80" y="12"/>
    </contour>
  </outline>
</glyph>
<glyph name="eacute" format="2">
  <advance width="453"/>
  <unicode hex="00E9"/>
  <outline>
    <contour>
      <point x="182" y="226" type="curve"/>
      <point x="351" y="262"/>
      <point x="412" y="338"/>
      <point x="412" y="408" type="curve" smooth="yes"/>
      <point x="412" y="434"/>
      <point x="399" y="454"/>
      <point x="378" y="463" type="curve" smooth="yes"/>
      <point x="371" y="466"/>
      <point x="363" y="467"/>
      <point x="354" y="467" type="curve" smooth="yes"/>
      <point x="274" y="467"/>
      <point x="199" y="347"/>
    </contour>
    <contour>
      <point x="80" y="152" type="curve" smooth="yes"/>
      <point x="80" y="236"/>
      <point x="110" y="323"/>
      <point x="163" y="388" type="curve" smooth="yes"/>
      <point x="213" y="450"/>
      <point x="279" y="493"/>
      <point x="358" y="501" type="curve" smooth="yes"/>
      <point x="366" y="502"/>
      <point x="374" y="502"/>
      <point x="382" y="502" type="curve" smooth="yes"/>
      <point x="464" y="502"/>
      <point x="506" y="455"/>
      <point x="506" y="402" type="curve" smooth="yes"/>
      <point x="506" y="374"/>
      <point x="499" y="341"/>
      <point x="464" y="306" type="curve"/>
      <point x="421" y="266"/>
      <point x="348" y="226"/>
      <point x="180" y="192" type="curve"/>
      <point x="179" y="185"/>
      <point x="179" y="181"/>
      <point x="179" y="176" type="curve" smooth="yes"/>
      <point x="179" y="97"/>
      <point x="200" y="37"/>
      <point x="270" y="37" type="curve" smooth="yes"/>
      <point x="345" y="37"/>
      <point x="399" y="104"/>
      <point x="435" y="151" type="curve"/>
      <point x="458" y="131" type="line"/>
      <point x="390" y="20"/>
      <point x="302" y="-12"/>
      <point x="229" y="-12" type="curve" smooth="yes"/>
      <point x="171" y="-12"/>
      <point x="80" y="12"/>
    </contour>
    <contour>
      <point x="296" y="562" type="line"/>
      <point x="415" y="682" type="line" smooth="yes"/>
      <point x="445" y="713"/>
      <point x="462" y="723"/>
      <point x="479" y="723" type="curve" smooth="yes"/>
      <point x="494" y="723"/>
      <point x="518" y="700"/>
      <point x="518" y="680" type="curve" smooth="yes"/>
      <point x="518" y="677"/>
      <point x="517" y="673"/>
      <point x="516" y="670" type="curve"/>
      <point x="509" y="653"/>
      <point x="487" y="639"/>
      <point x="462" y="626" type="curve"/>
      <point x="311" y="542" type="line"/>
    </contour>
  </outline>
</glyph>
<glyph name="ecircumflex" format="2">
  <advance width="453"/>
  <unicode hex="00EA"/>
  <outline>
    <contour>
      <point x="182" y="226" type="curve"/>
      <point x="351" y="262"/>
      <point x="412" y="338"/>
      <point x="412" y="408" type="curve" smooth="yes"/>
      <point x="412" y="434"/>
      <point x="399" y="454"/>
      <point x="378" y="463" type="curve" smooth="yes"/>
      <point x="371" y="466"/>
      <point x="363" y="467"/>
      <point x="354" y="467" type="curve" smooth="yes"/>
      <point x="274" y="467"/>
      <point x="199" y="347"/>
    </contour>
    <contour>
      <point x="80" y="152" type="curve" smooth="yes"/>
      <point x="80" y="236"/>
      <point x="110" y="323"/>
      <point x="163" y="388" type="curve" smooth="yes"/>
      <point x="213" y="450"/>
      <point x="279" y="493"/>
      <point x="358" y="501" type="curve" smooth="yes"/>
      <point x="366" y="502"/>
      <point x="374" y="502"/>
      <point x="382" y="502" type="curve" smooth="yes"/>
      <point x="464" y="502"/>
      <point x="506" y="455"/>
      <point x="506" y="402" type="curve" smooth="yes"/>
      <point x="506" y="374"/>
      <point x="499" y="341"/>
      <point x="464" y="306" type="curve"/>
      <point x="421" y="266"/>
      <point x="348" y="226"/>
      <point x="180" y="192" type="curve"/>
      <point x="179" y="185"/>
      <point x="179" y="181"/>
      <point x="179" y="176" type="curve" smooth="yes"/>
      <point x="179" y="97"/>
      <point x="200" y="37"/>
      <point x="270" y="37" type="curve" smooth="yes"/>
      <point x="345" y="37"/>
      <point x="399" y="104"/>
      <point x="435" y="151" type="curve"/>
      <point x="458" y="131" type="line"/>
      <point x="390" y="20"/>
      <point x="302" y="-12"/>
      <point x="229" y="-12" type="curve" smooth="yes"/>
      <point x="171" y="-12"/>
      <point x="80" y="12"/>
    </contour>
    <contour>
      <point x="213" y="567" type="line"/>
      <point x="351" y="696" type="line"/>
      <point x="355" y="699"/>
      <point x="358" y="702"/>
      <point x="362" y="705" type="curve"/>
      <point x="372" y="714"/>
      <point x="382" y="720"/>
      <point x="391" y="720" type="curve" smooth="yes"/>
      <point x="402" y="720"/>
      <point x="412" y="708"/>
      <point x="421" y="696" type="curve"/>
      <point x="510" y="567" type="line"/>
      <point x="487" y="546" type="line"/>
      <point x="402" y="621" type="line"/>
      <point x="392" y="629"/>
      <point x="383" y="636"/>
      <point x="374" y="636" type="curve" smooth="yes"/>
      <point x="367" y="636"/>
      <point x="354" y="629"/>
      <point x="342" y="621" type="curve" smooth="yes"/>
      <point x="227" y="546" type="line"/>
    </contour>
  </outline>
</glyph>
<glyph name="igrave" format="2">
  <advance width="317"/>
  <unicode hex="00EC"/>
  <outline>
    <contour>
      <point x="130" y="680" type="curve" smooth="yes"/>
      <point x="130" y="700"/>
      <point x="154" y="723"/>
      <point x="169" y="723" type="curve" smooth="yes"/>
      <point x="186" y="723"/>
      <point x="203" y="713"/>
      <point x="233" y="682" type="curve" smooth="yes"/>
      <point x="352" y="562" type="line"/>
      <point x="337" y="542" type="line"/>
      <point x="186" y="626" type="line"/>
      <point x="156" y="642"/>
      <point x="130" y="659"/>
    </contour>
    <contour>
      <point x="120" y="86" type="curve" smooth="yes"/>
      <point x="198" y="375" type="line"/>
      <point x="204" y="399" type="line" smooth="yes"/>
      <point x="213" y="434"/>
      <point x="210" y="443"/>
      <point x="183" y="445" type="curve" smooth="yes"/>
      <point x="126" y="450" type="line"/>
      <point x="132" y="474" type="line"/>
      <point x="314" y="502" type="line"/>
      <point x="319" y="497" type="line"/>
      <point x="216" y="119" type="line"/>
      <point x="210" y="95" type="line"/>
      <point x="201" y="63"/>
      <point x="200" y="40"/>
      <point x="220" y="40" type="curve" smooth="yes"/>
      <point x="248" y="40"/>
      <point x="292" y="111"/>
      <point x="310" y="146" type="curve"/>
      <point x="334" y="132" type="line"/>
      <point x="300" y="56"/>
      <point x="244" y="-12"/>
      <point x="172" y="-12" type="curve" smooth="yes"/>
      <point x="118" y="-12"/>
      <point x="105" y="29"/>
    </contour>
  </outline>
</glyph>
<glyph name="idieresis" format="2">
  <advance width="317"/>
  <unicode hex="00EF"/>
  <outline>
    <contour>
      <point x="118" y="621" type="curve" smooth="yes"/>
      <point x="118" y="653"/>
      <point x="139" y="677"/>
      <point x="167" y="681" type="curve"/>
      <point x="170" y="682"/>
      <point x="174" y="682"/>
      <point x="177" y="682" type="curve" smooth="yes"/>
      <point x="207" y="682"/>
      <point x="225" y="658"/>
      <point x="225" y="633" type="curve"/>
      <point x="225" y="633"/>
      <point x="225" y="633"/>
      <point x="225" y="633" type="curve"/>
      <point x="225" y="602"/>
      <point x="206" y="577"/>
      <point x="177" y="573" type="curve"/>
      <point x="174" y="572"/>
      <point x="171" y="572"/>
      <point x="167" y="572" type="curve" smooth="yes"/>
      <point x="135" y="572"/>
      <point x="118" y="592"/>
    </contour>
    <contour>
      <point x="326" y="621" type="curve" smooth="yes"/>
      <point x="326" y="653"/>
      <point x="347" y="677"/>
      <point x="375" y="681" type="curve"/>
      <point x="378" y="682"/>
      <point x="382" y="682"/>
      <point x="385" y="682" type="curve" smooth="yes"/>
      <point x="415" y="682"/>
      <point x="433" y="658"/>
      <point x="433" y="633" type="curve"/>
      <point x="433" y="633"/>
      <point x="433" y="633"/>
      <point x="433" y="633" type="curve"/>
      <point x="433" y="602"/>
      <point x="414" y="577"/>
      <point x="385" y="573" type="curve"/>
      <point x="382" y="572"/>
      <point x="379" y="572"/>
      <point x="375" y="572" type="curve" smooth="yes"/>
      <point x="343" y="572"/>
      <point x="326" y="592"/>
    </contour>
    <contour>
      <point x="120" y="86" type="curve" smooth="yes"/>
      <point x="198" y="375" type="line"/>
      <point x="204" y="399" type="line" smooth="yes"/>
      <point x="213" y="434"/>
      <point x="210" y="443"/>
      <point x="183" y="445" type="curve" smooth="yes"/>
      <point x="126" y="450" type="line"/>
      <point x="132" y="474" type="line"/>
      <point x="314" y="502" type="line"/>
      <point x="319" y="497" type="line"/>
      <point x="216" y="119" type="line"/>
      <point x="210" y="95" type="line"/>
      <point x="201" y="63"/>
      <point x="200" y="40"/>
      <point x="220" y="40" type="curve" smooth="yes"/>
      <point x="248" y="40"/>
      <point x="292" y="111"/>
      <point x="310" y="146" type="curve"/>
      <point x="334" y="132" type="line"/>
      <point x="300" y="56"/>
      <point x="244" y="-12"/>
      <point x="172" y="-12" type="curve" smooth="yes"/>
      <point x="118" y="-12"/>
      <point x="105" y="29"/>
    </contour>
  </outline>
</glyph>
<glyph name="eth" format="2">
  <advance width="537"/>
  <unicode hex="00F0"/>
  <outline>
    <contour>
      <point x="179" y="125" type="curve" smooth="yes"/>
      <point x="179" y="69"/>
      <point x="202" y="36"/>
      <point x="243" y="26" type="curve" smooth="yes"/>
      <point x="251" y="24"/>
      <point x="260" y="23"/>
      <point x="270" y="23" type="curve" smooth="yes"/>
      <point x="407" y="23"/>
      <point x="459" y="291"/>
      <point x="459" y="367" type="curve" smooth="yes"/>
      <point x="459" y="422"/>
      <point x="443" y="455"/>
      <point x="404" y="464" type="curve" smooth="yes"/>
      <point x="396" y="466"/>
      <point x="387" y="467"/>
      <point x="377" y="467" type="curve" smooth="yes"/>
      <point x="321" y="467"/>
      <point x="278" y="428"/>
      <point x="246" y="374" type="curve" smooth="yes"/>
      <point x="201" y="298"/>
      <point x="179" y="191"/>
    </contour>
    <contour>
      <point x="82" y="169" type="curve" smooth="yes"/>
      <point x="82" y="207"/>
      <point x="95" y="279"/>
      <point x="131" y="347" type="curve" smooth="yes"/>
      <point x="175" y="428"/>
      <point x="253" y="502"/>
      <point x="384" y="502" type="curve" smooth="yes"/>
      <point x="396" y="502"/>
      <point x="406" y="499"/>
      <point x="419" y="495" type="curve"/>
      <point x="419" y="498" type="line"/>
      <point x="410" y="520"/>
      <point x="388" y="555"/>
      <point x="356" y="594" type="curve"/>
      <point x="222" y="534" type="line"/>
      <point x="199" y="566" type="line"/>
      <point x="331" y="625" type="line"/>
      <point x="304" y="657"/>
      <point x="273" y="690"/>
      <point x="239" y="719" type="curve"/>
      <point x="239" y="725" type="line"/>
      <point x="277" y="742" type="line"/>
      <point x="312" y="718"/>
      <point x="351" y="685"/>
      <point x="387" y="650" type="curve"/>
      <point x="515" y="707" type="line"/>
      <point x="538" y="675" type="line"/>
      <point x="416" y="621" type="line"/>
      <point x="444" y="592"/>
      <point x="470" y="562"/>
      <point x="486" y="537" type="curve" smooth="yes"/>
      <point x="531" y="470"/>
      <point x="556" y="413"/>
      <point x="556" y="325" type="curve" smooth="yes"/>
      <point x="556" y="272"/>
      <point x="539" y="187"/>
      <point x="493" y="116" type="curve" smooth="yes"/>
      <point x="447" y="46"/>
      <point x="373" y="-12"/>
      <point x="258" y="-12" type="curve" smooth="yes"/>
      <point x="140" y="-12"/>
      <point x="82" y="62"/>
    </contour>
  </outline>
</glyph>
<glyph name="odieresis" format="2">
  <advance width="537"/>
  <unicode hex="00F6"/>
  <outline>
    <contour>
      <point x="181" y="129" type="curve" smooth="yes"/>
      <point x="181" y="68"/>
      <point x="205" y="34"/>
      <point x="248" y="25" type="curve"/>
      <point x="255" y="24"/>
      <point x="263" y="23"/>
      <point x="271" y="23" type="curve" smooth="yes"/>
      <point x="408" y="23"/>
      <point x="460" y="291"/>
      <point x="460" y="362" type="curve"/>
      <point x="460" y="362"/>
      <point x="460" y="362"/>
      <point x="460" y="362" type="curve"/>
      <point x="460" y="414"/>
      <point x="445" y="452"/>
      <point x="404" y="464" type="curve"/>
      <point x="396" y="466"/>
      <point x="387" y="467"/>
      <point x="377" y="467" type="curve" smooth="yes"/>
      <point x="323" y="467"/>
      <point x="280" y="428"/>
      <point x="248" y="375" type="curve" smooth="yes"/>
      <point x="203" y="298"/>
      <point x="181" y="193"/>
    </contour>
    <contour>
      <point x="84" y="169" type="curve" smooth="yes"/>
      <point x="84" y="212"/>
      <point x="98" y="295"/>
      <point x="142" y="368" type="curve" smooth="yes"/>
      <point x="186" y="440"/>
      <point x="260" y="502"/>
      <point x="378" y="502" type="curve" smooth="yes"/>
      <point x="459" y="502"/>
      <point x="557" y="465"/>
      <point x="557" y="327" type="curve" smooth="yes"/>
      <point x="557" y="320"/>
      <point x="557" y="313"/>
      <point x="556" y="305" type="curve"/>
      <point x="552" y="252"/>
      <point x="534" y="179"/>
      <point x="494" y="116" type="curve" smooth="yes"/>
      <point x="447" y="42"/>
      <point x="377" y="-12"/>
      <point x="268" y="-12" type="curve" smooth="yes"/>
      <point x="142" y="-12"/>
      <point x="84" y="62"/>
    </contour>
    <contour>
      <point x="252" y="621" type="curve" smooth="yes"/>
      <point x="252" y="653"/>
      <point x="273" y="677"/>
      <point x="301" y="681" type="curve"/>
      <point x="304" y="682"/>
      <point x="308" y="682"/>
      <point x="311" y="682" type="curve" smooth="yes"/>
      <point x="341" y="682"/>
      <point x="359" y="658"/>
      <point x="359" y="633" type="curve"/>
      <point x="359" y="633"/>
      <point x="359" y="633"/>
      <point x="359" y="633" type="curve"/>
      <point x="359" y="602"/>
      <point x="340" y="577"/>
      <point x="311" y="573" type="curve"/>
      <point x="308" y="572"/>
      <point x="305" y="572"/>
      <point x="301" y="572" type="curve" smooth="yes"/>
      <point x="269" y="572"/>
      <point x="252" y="592"/>
    </contour>
    <contour>
      <point x="460" y="621" type="curve" smooth="yes"/>
      <point x="460" y="653"/>
      <point x="481" y="677"/>
      <point x="509" y="681" type="curve"/>
      <point x="512" y="682"/>
      <point x="516" y="682"/>
      <point x="519" y="682" type="curve" smooth="yes"/>
      <point x="549" y="682"/>
      <point x="567" y="658"/>
      <point x="567" y="633" type="curve"/>
      <point x="567" y="633"/>
      <point x="567" y="633"/>
      <point x="567" y="633" type="curve"/>
      <point x="567" y="602"/>
      <point x="548" y="577"/>
      <point x="519" y="573" type="curve"/>
      <point x="516" y="572"/>
      <point x="513" y="572"/>
      <point x="509" y="572" type="curve" smooth="yes"/>
      <point x="477" y="572"/>
      <point x="460" y="592"/>
    </contour>
  </outline>
</glyph>
<glyph name="divide" format="2">
  <advance width="570"/>
  <unicode hex="00F7"/>
  <outline>
    <contour>
      <point x="93" y="221" type="line"/>
      <point x="93" y="279" type="line"/>
      <point x="577" y="279" type="line"/>
      <point x="577" y="221" type="line"/>
    </contour>
    <contour>
      <point x="275" y="416" type="curve" smooth="yes"/>
      <point x="275" y="447"/>
      <point x="301" y="474"/>
      <point x="335" y="474" type="curve" smooth="yes"/>
      <point x="367" y="474"/>
      <point x="392" y="447"/>
      <point x="392" y="416" type="curve"/>
      <point x="392" y="416" type="line"/>
      <point x="392" y="382"/>
      <point x="367" y="356"/>
      <point x="335" y="356" type="curve" smooth="yes"/>
      <point x="301" y="356"/>
      <point x="275" y="382"/>
    </contour>
    <contour>
      <point x="275" y="86" type="curve" smooth="yes"/>
      <point x="275" y="117"/>
      <point x="301" y="144"/>
      <point x="335" y="144" type="curve" smooth="yes"/>
      <point x="367" y="144"/>
      <point x="392" y="117"/>
      <point x="392" y="86" type="curve"/>
      <point x="392" y="86" type="line"/>
      <point x="392" y="52"/>
      <point x="367" y="26"/>
      <point x="335" y="26" type="curve" smooth="yes"/>
      <point x="301" y="26"/>
      <point x="275" y="52"/>
    </contour>
  </outline>
</glyph>
<glyph name="uacute" format="2">
  <advance width="618"/>
  <unicode hex="00FA"/>
  <outline>
    <contour>
      <point x="126" y="450" type="line"/>
      <point x="132" y="474" type="line"/>
      <point x="314" y="502" type="line"/>
      <point x="319" y="497" type="line"/>
      <point x="223" y="128" type="line" smooth="yes"/>
      <point x="208" y="70"/>
      <point x="216" y="40"/>
      <point x="248" y="40" type="curve" smooth="yes"/>
      <point x="331" y="40"/>
      <point x="418" y="173"/>
      <point x="462" y="274" type="curve" smooth="yes"/>
      <point x="488" y="335"/>
      <point x="504" y="388"/>
      <point x="533" y="490" type="curve"/>
      <point x="622" y="502" type="line"/>
      <point x="522" y="120" type="line"/>
      <point x="515" y="94" type="line" smooth="yes"/>
      <point x="507" y="63"/>
      <point x="507" y="40"/>
      <point x="528" y="40" type="curve" smooth="yes"/>
      <point x="556" y="40"/>
      <point x="600" y="112"/>
      <point x="620" y="146" type="curve"/>
      <point x="644" y="131" type="line"/>
      <point x="609" y="57"/>
      <point x="549" y="-12"/>
      <point x="477" y="-12" type="curve" smooth="yes"/>
      <point x="424" y="-12"/>
      <point x="412" y="29"/>
      <point x="431" y="96" type="curve" smooth="yes"/>
      <point x="464" y="210" type="line"/>
      <point x="462" y="210" type="line"/>
      <point x="402" y="94"/>
      <point x="297" y="-12"/>
      <point x="201" y="-12" type="curve" smooth="yes"/>
      <point x="121" y="-12"/>
      <point x="113" y="53"/>
      <point x="134" y="133" type="curve" smooth="yes"/>
      <point x="203" y="397" type="line" smooth="yes"/>
      <point x="211" y="428"/>
      <point x="212" y="443"/>
      <point x="188" y="445" type="curve" smooth="yes"/>
    </contour>
    <contour>
      <point x="363" y="562" type="line"/>
      <point x="482" y="682" type="line" smooth="yes"/>
      <point x="512" y="713"/>
      <point x="529" y="723"/>
      <point x="546" y="723" type="curve" smooth="yes"/>
      <point x="561" y="723"/>
      <point x="585" y="700"/>
      <point x="585" y="680" type="curve" smooth="yes"/>
      <point x="585" y="677"/>
      <point x="584" y="673"/>
      <point x="583" y="670" type="curve"/>
      <point x="576" y="653"/>
      <point x="554" y="639"/>
      <point x="529" y="626" type="curve"/>
      <point x="378" y="542" type="line"/>
    </contour>
  </outline>
</glyph>
<glyph name="ucircumflex" format="2">
  <advance width="618"/>
  <unicode hex="00FB"/>
  <outline>
    <contour>
      <point x="126" y="450" type="line"/>
      <point x="132" y="474" type="line"/>
      <point x="314" y="502" type="line"/>
      <point x="319" y="497" type="line"/>
      <point x="223" y="128" type="line" smooth="yes"/>
      <point x="208" y="70"/>
      <point x="216" y="40"/>
      <point x="248" y="40" type="curve" smooth="yes"/>
      <point x="331" y="40"/>
      <point x="418" y="173"/>
      <point x="462" y="274" type="curve" smooth="yes"/>
      <point x="488" y="335"/>
      <point x="504" y="388"/>
      <point x="533" y="490" type="curve"/>
      <point x="622" y="502" type="line"/>
      <point x="522" y="120" type="line"/>
      <point x="515" y="94" type="line" smooth="yes"/>
      <point x="507" y="63"/>
      <point x="507" y="40"/>
      <point x="528" y="40" type="curve" smooth="yes"/>
      <point x="556" y="40"/>
      <point x="600" y="112"/>
      <point x="620" y="146" type="curve"/>
      <point x="644" y="131" type="line"/>
      <point x="609" y="57"/>
      <point x="549" y="-12"/>
      <point x="477" y="-12" type="curve" smooth="yes"/>
      <point x="424" y="-12"/>
      <point x="412" y="29"/>
      <point x="431" y="96" type="curve" smooth="yes"/>
      <point x="464" y="210" type="line"/>
      <point x="462" y="210" type="line"/>
      <point x="402" y="94"/>
      <point x="297" y="-12"/>
      <point x="201" y="-12" type="curve" smooth="yes"/>
      <point x="121" y="-12"/>
      <point x="113" y="53"/>
      <point x="134" y="133" type="curve" smooth="yes"/>
      <point x="203" y="397" type="line" smooth="yes"/>
      <point x="211" y="428"/>
      <point x="212" y="443"/>
      <point x="188" y="445" type="curve" smooth="yes"/>
    </contour>
    <contour>
      <point x="271" y="567" type="line"/>
      <point x="409" y="696" type="line"/>
      <point x="413" y="699"/>
      <point x="416" y="702"/>
      <point x="420" y="705" type="curve"/>
      <point x="430" y="714"/>
      <point x="440" y="720"/>
      <point x="449" y="720" type="curve" smooth="yes"/>
      <point x="460" y="720"/>
      <point x="470" y="708"/>
      <point x="479" y="696" type="curve"/>
      <point x="568" y="567" type="line"/>
      <point x="545" y="546" type="line"/>
      <point x="460" y="621" type="line"/>
      <point x="450" y="629"/>
      <point x="441" y="636"/>
      <point x="432" y="636" type="curve" smooth="yes"/>
      <point x="425" y="636"/>
      <point x="412" y="629"/>
      <point x="400" y="621" type="curve" smooth="yes"/>
      <point x="285" y="546" type="line"/>
    </contour>
  </outline>
</glyph>
<glyph name="thorn" format="2">
  <advance width="584"/>
  <unicode hex="00FE"/>
  <outline>
    <contour>
      <point x="205" y="53" type="curve"/>
      <point x="227" y="34"/>
      <point x="254" y="23"/>
      <point x="293" y="23" type="curve" smooth="yes"/>
      <point x="457" y="23"/>
      <point x="516" y="288"/>
      <point x="516" y="367" type="curve" smooth="yes"/>
      <point x="516" y="378"/>
      <point x="515" y="387"/>
      <point x="514" y="396" type="curve"/>
      <point x="508" y="431"/>
      <point x="491" y="450"/>
      <point x="462" y="450" type="curve" smooth="yes"/>
      <point x="411" y="450"/>
      <point x="346" y="385"/>
      <point x="299" y="311" type="curve" smooth="yes"/>
      <point x="294" y="303"/>
      <point x="289" y="294"/>
      <point x="284" y="286" type="curve"/>
      <point x="246" y="219"/>
      <point x="218" y="117"/>
    </contour>
    <contour>
      <point x="51" y="-242" type="line"/>
      <point x="225" y="553" type="line"/>
      <point x="234" y="595" type="line" smooth="yes"/>
      <point x="241" y="626"/>
      <point x="240" y="641"/>
      <point x="216" y="643" type="curve" smooth="yes"/>
      <point x="154" y="648" type="line"/>
      <point x="160" y="672" type="line"/>
      <point x="341" y="700" type="line"/>
      <point x="346" y="695" type="line"/>
      <point x="249" y="286" type="line"/>
      <point x="252" y="286" type="line"/>
      <point x="328" y="429"/>
      <point x="427" y="502"/>
      <point x="504" y="502" type="curve" smooth="yes"/>
      <point x="578" y="502"/>
      <point x="615" y="455"/>
      <point x="615" y="368" type="curve" smooth="yes"/>
      <point x="615" y="292"/>
      <point x="548" y="-12"/>
      <point x="303" y="-12" type="curve" smooth="yes"/>
      <point x="251" y="-12"/>
      <point x="216" y="-3"/>
      <point x="195" y="10" type="curve"/>
      <point x="140" y="-230" type="line"/>
    </contour>
  </outline>
</glyph>
<glyph name="ydieresis" format="2">
  <advance width="468"/>
  <unicode hex="00FF"/>
  <outline>
    <contour>
      <point x="-5" y="-187" type="curve" smooth="yes"/>
      <point x="-5" y="-158"/>
      <point x="20" y="-128"/>
      <point x="46" y="-127" type="curve"/>
      <point x="61" y="-127"/>
      <point x="69" y="-135"/>
      <point x="81" y="-151" type="curve"/>
      <point x="81" y="-151"/>
      <point x="81" y="-151"/>
      <point x="81" y="-151" type="curve"/>
      <point x="96" y="-171"/>
      <point x="107" y="-182"/>
      <point x="122" y="-182" type="curve" smooth="yes"/>
      <point x="142" y="-182"/>
      <point x="168" y="-153"/>
      <point x="186" y="-111" type="curve" smooth="yes"/>
      <point x="202" y="-73"/>
      <point x="207" y="-41"/>
      <point x="209" y="-15" type="curve" smooth="yes"/>
      <point x="210" y="-5"/>
      <point x="210" y="4"/>
      <point x="210" y="13" type="curve" smooth="yes"/>
      <point x="210" y="93"/>
      <point x="188" y="285"/>
      <point x="177" y="363" type="curve" smooth="yes"/>
      <point x="169" y="415"/>
      <point x="164" y="432"/>
      <point x="142" y="431" type="curve" smooth="yes"/>
      <point x="74" y="429" type="line"/>
      <point x="71" y="454" type="line"/>
      <point x="239" y="502" type="line"/>
      <point x="247" y="498" type="line"/>
      <point x="261" y="425"/>
      <point x="280" y="214"/>
      <point x="287" y="61" type="curve"/>
      <point x="290" y="61" type="line"/>
      <point x="356" y="175"/>
      <point x="415" y="283"/>
      <point x="431" y="339" type="curve" smooth="yes"/>
      <point x="443" y="381"/>
      <point x="445" y="442"/>
      <point x="444" y="477" type="curve"/>
      <point x="469" y="494"/>
      <point x="503" y="502"/>
      <point x="522" y="502" type="curve" smooth="yes"/>
      <point x="529" y="502"/>
      <point x="540" y="481"/>
      <point x="540" y="446" type="curve" smooth="yes"/>
      <point x="540" y="406"/>
      <point x="477" y="309"/>
      <point x="420" y="215" type="curve" smooth="yes"/>
      <point x="362" y="120"/>
      <point x="306" y="21"/>
      <point x="283" y="-19" type="curve"/>
      <point x="281" y="-22"/>
      <point x="279" y="-25"/>
      <point x="278" y="-27" type="curve"/>
      <point x="196" y="-170"/>
      <point x="158" y="-234"/>
      <point x="83" y="-241" type="curve"/>
      <point x="78" y="-242"/>
      <point x="73" y="-242"/>
      <point x="68" y="-242" type="curve" smooth="yes"/>
      <point x="24" y="-242"/>
      <point x="-5" y="-214"/>
    </contour>
    <contour>
      <point x="241" y="621" type="curve" smooth="yes"/>
      <point x="241" y="653"/>
      <point x="262" y="677"/>
      <point x="290" y="681" type="curve"/>
      <point x="293" y="682"/>
      <point x="297" y="682"/>
      <point x="300" y="682" type="curve" smooth="yes"/>
      <point x="330" y="682"/>
      <point x="348" y="658"/>
      <point x="348" y="633" type="curve"/>
      <point x="348" y="633"/>
      <point x="348" y="633"/>
      <point x="348" y="633" type="curve"/>
      <point x="348" y="602"/>
      <point x="329" y="577"/>
      <point x="300" y="573" type="curve"/>
      <point x="297" y="572"/>
      <point x="294" y="572"/>
      <point x="290" y="572" type="curve" smooth="yes"/>
      <point x="258" y="572"/>
      <point x="241" y="592"/>
    </contour>
    <contour>
      <point x="449" y="621" type="curve" smooth="yes"/>
      <point x="449" y="653"/>
      <point x="470" y="677"/>
      <point x="498" y="681" type="curve"/>
      <point x="501" y="682"/>
      <point x="505" y="682"/>
      <point x="508" y="682" type="curve" smooth="yes"/>
      <point x="538" y="682"/>
      <point x="556" y="658"/>
      <point x="556" y="633" type="curve"/>
      <point x="556" y="633"/>
      <point x="556" y="633"/>
      <point x="556" y="633" type="curve"/>
      <point x="556" y="602"/>
      <point x="537" y="577"/>
      <point x="508" y="573" type="curve"/>
      <point x="505" y="572"/>
      <point x="502" y="572"/>
      <point x="498" y="572" type="curve" smooth="yes"/>
      <point x="466" y="572"/>
      <point x="449" y="592"/>
    </contour>
  </outline>
</glyph>
<glyph name="amacron" format="2">
  <advance width="561"/>
  <unicode hex="0101"/>
  <outline>
    <contour>
      <point x="165" y="110" type="curve" smooth="yes"/>
      <point x="165" y="71"/>
      <point x="176" y="40"/>
      <point x="209" y="40" type="curve" smooth="yes"/>
      <point x="252" y="40"/>
      <point x="306" y="94"/>
      <point x="357" y="167" type="curve"/>
      <point x="363" y="175"/>
      <point x="368" y="184"/>
      <point x="374" y="192" type="curve"/>
      <point x="427" y="272"/>
      <point x="463" y="371"/>
      <point x="481" y="445" type="curve"/>
      <point x="466" y="459"/>
      <point x="444" y="467"/>
      <point x="420" y="467" type="curve" smooth="yes"/>
      <point x="263" y="467"/>
      <point x="165" y="220"/>
    </contour>
    <contour>
      <point x="66" y="107" type="curve" smooth="yes"/>
      <point x="66" y="233"/>
      <point x="170" y="478"/>
      <point x="386" y="500" type="curve" smooth="yes"/>
      <point x="397" y="501"/>
      <point x="407" y="502"/>
      <point x="418" y="502" type="curve" smooth="yes"/>
      <point x="445" y="502"/>
      <point x="474" y="493"/>
      <point x="491" y="481" type="curve"/>
      <point x="496" y="494" type="line"/>
      <point x="580" y="494" type="line"/>
      <point x="481" y="120" type="line"/>
      <point x="474" y="95" type="line" smooth="yes"/>
      <point x="465" y="63"/>
      <point x="464" y="40"/>
      <point x="484" y="40" type="curve" smooth="yes"/>
      <point x="512" y="40"/>
      <point x="556" y="111"/>
      <point x="574" y="146" type="curve"/>
      <point x="598" y="132" type="line"/>
      <point x="564" y="56"/>
      <point x="508" y="-12"/>
      <point x="432" y="-12" type="curve"/>
      <point x="432" y="-12"/>
      <point x="432" y="-12"/>
      <point x="432" y="-12" type="curve"/>
      <point x="378" y="-12"/>
      <point x="367" y="29"/>
      <point x="388" y="100" type="curve" smooth="yes"/>
      <point x="422" y="214" type="line"/>
      <point x="420" y="214" type="line"/>
      <point x="362" y="112"/>
      <point x="269" y="-12"/>
      <point x="162" y="-12" type="curve" smooth="yes"/>
      <point x="94" y="-12"/>
      <point x="66" y="47"/>
    </contour>
    <contour>
      <point x="299" y="597" type="line"/>
      <point x="317" y="656" type="line"/>
      <point x="595" y="656" type="line"/>
      <point x="577" y="597" type="line"/>
    </contour>
  </outline>
</glyph>
<glyph name="Cacute" format="2">
  <advance width="661"/>
  <unicode hex="0106"/>
  <outline>
    <contour>
      <point x="114" y="275" type="curve" smooth="yes"/>
      <point x="114" y="344"/>
      <point x="127" y="436"/>
      <point x="182" y="525" type="curve" smooth="yes"/>
      <point x="240" y="619"/>
      <point x="349" y="707"/>
      <point x="537" y="707" type="curve" smooth="yes"/>
      <point x="607" y="707"/>
      <point x="701" y="690"/>
      <point x="758" y="654" type="curve"/>
      <point x="722" y="504" type="line"/>
      <point x="692" y="504" type="line"/>
      <point x="697" y="613"/>
      <point x="654" y="672"/>
      <point x="529" y="672" type="curve" smooth="yes"/>
      <point x="422" y="672"/>
      <point x="343" y="614"/>
      <point x="293" y="530" type="curve" smooth="yes"/>
      <point x="245" y="450"/>
      <point x="221" y="339"/>
      <point x="221" y="249" type="curve" smooth="yes"/>
      <point x="221" y="95"/>
      <point x="304" y="20"/>
      <point x="420" y="20" type="curve" smooth="yes"/>
      <point x="543" y="20"/>
      <point x="594" y="86"/>
      <point x="649" y="186" type="curve"/>
      <point x="679" y="186" type="line"/>
      <point x="630" y="27" type="line"/>
      <point x="566" y="-5"/>
      <point x="498" y="-15"/>
      <point x="427" y="-15" type="curve" smooth="yes"/>
      <point x="179" y="-15"/>
      <point x="114" y="143"/>
    </contour>
    <contour>
      <point x="488" y="764" type="line"/>
      <point x="633" y="863" type="line" smooth="yes"/>
      <point x="663" y="883"/>
      <point x="677" y="891"/>
      <point x="691" y="891" type="curve" smooth="yes"/>
      <point x="716" y="891"/>
      <point x="730" y="856"/>
      <point x="730" y="841" type="curve" smooth="yes"/>
      <point x="730" y="817"/>
      <point x="708" y="810"/>
      <point x="669" y="798" type="curve"/>
      <point x="499" y="742" type="line"/>
    </contour>
  </outline>
</glyph>
<glyph name="Ccircumflex" format="2">
  <advance width="661"/>
  <unicode hex="0108"/>
  <outline>
    <contour>
      <point x="114" y="275" type="curve" smooth="yes"/>
      <point x="114" y="344"/>
      <point x="127" y="436"/>
      <point x="182" y="525" type="curve" smooth="yes"/>
      <point x="240" y="619"/>
      <point x="349" y="707"/>
      <point x="537" y="707" type="curve" smooth="yes"/>
      <point x="607" y="707"/>
      <point x="701" y="690"/>
      <point x="758" y="654" type="curve"/>
      <point x="722" y="504" type="line"/>
      <point x="692" y="504" type="line"/>
      <point x="697" y="613"/>
      <point x="654" y="672"/>
      <point x="529" y="672" type="curve" smooth="yes"/>
      <point x="422" y="672"/>
      <point x="343" y="614"/>
      <point x="293" y="530" type="curve" smooth="yes"/>
      <point x="245" y="450"/>
      <point x="221" y="339"/>
      <point x="221" y="249" type="curve" smooth="yes"/>
      <point x="221" y="95"/>
      <point x="304" y="20"/>
      <point x="420" y="20" type="curve" smooth="yes"/>
      <point x="543" y="20"/>
      <point x="594" y="86"/>
      <point x="649" y="186" type="curve"/>
      <point x="679" y="186" type="line"/>
      <point x="630" y="27" type="line"/>
      <point x="566" y="-5"/>
      <point x="498" y="-15"/>
      <point x="427" y="-15" type="curve" smooth="yes"/>
      <point x="179" y="-15"/>
      <point x="114" y="143"/>
    </contour>
    <contour>
      <point x="392" y="742" type="line"/>
      <point x="532" y="853" type="line" smooth="yes"/>
      <point x="550" y="868"/>
      <point x="561" y="876"/>
      <point x="574" y="876" type="curve" smooth="yes"/>
      <point x="586" y="876"/>
      <point x="596" y="865"/>
      <point x="607" y="851" type="curve" smooth="yes"/>
      <point x="698" y="741" type="line"/>
      <point x="680" y="722" type="line"/>
      <point x="601" y="774" type="line" smooth="yes"/>
      <point x="598" y="776"/>
      <point x="594" y="779"/>
      <point x="590" y="781" type="curve"/>
      <point x="582" y="787"/>
      <point x="574" y="792"/>
      <point x="568" y="795" type="curve"/>
      <point x="564" y="796"/>
      <point x="561" y="797"/>
      <point x="558" y="797" type="curve" smooth="yes"/>
      <point x="550" y="797"/>
      <point x="535" y="790"/>
      <point x="522" y="783" type="curve" smooth="yes"/>
      <point x="405" y="722" type="line"/>
    </contour>
  </outline>
</glyph>
<glyph name="ccircumflex" format="2">
  <advance width="441"/>
  <unicode hex="0109"/>
  <outline>
    <contour>
      <point x="81" y="148" type="curve" smooth="yes"/>
      <point x="81" y="312"/>
      <point x="193" y="502"/>
      <point x="371" y="502" type="curve" smooth="yes"/>
      <point x="446" y="502"/>
      <point x="500" y="464"/>
      <point x="500" y="413" type="curve" smooth="yes"/>
      <point x="500" y="380"/>
      <point x="460" y="357"/>
      <point x="436" y="357" type="curve" smooth="yes"/>
      <point x="418" y="357"/>
      <point x="409" y="369"/>
      <point x="407" y="387" type="curve"/>
      <point x="406" y="399"/>
      <point x="404" y="409"/>
      <point x="402" y="418" type="curve"/>
      <point x="392" y="454"/>
      <point x="373" y="467"/>
      <point x="347" y="467" type="curve" smooth="yes"/>
      <point x="255" y="467"/>
      <point x="180" y="298"/>
      <point x="180" y="168" type="curve" smooth="yes"/>
      <point x="180" y="97"/>
      <point x="195" y="37"/>
      <point x="268" y="37" type="curve" smooth="yes"/>
      <point x="335" y="37"/>
      <point x="394" y="108"/>
      <point x="428" y="154" type="curve"/>
      <point x="452" y="135" type="line"/>
      <point x="383" y="20"/>
      <point x="298" y="-12"/>
      <point x="224" y="-12" type="curve" smooth="yes"/>
      <point x="154" y="-12"/>
      <point x="81" y="26"/>
    </contour>
    <contour>
      <point x="238" y="567" type="line"/>
      <point x="376" y="696" type="line"/>
      <point x="380" y="699"/>
      <point x="383" y="702"/>
      <point x="387" y="705" type="curve"/>
      <point x="397" y="714"/>
      <point x="407" y="720"/>
      <point x="416" y="720" type="curve" smooth="yes"/>
      <point x="427" y="720"/>
      <point x="437" y="708"/>
      <point x="446" y="696" type="curve"/>
      <point x="535" y="567" type="line"/>
      <point x="512" y="546" type="line"/>
      <point x="427" y="621" type="line"/>
      <point x="417" y="629"/>
      <point x="408" y="636"/>
      <point x="399" y="636" type="curve" smooth="yes"/>
      <point x="392" y="636"/>
      <point x="379" y="629"/>
      <point x="367" y="621" type="curve" smooth="yes"/>
      <point x="252" y="546" type="line"/>
    </contour>
  </outline>
</glyph>
<glyph name="Cdotaccent" format="2">
  <advance width="661"/>
  <unicode hex="010A"/>
  <outline>
    <contour>
      <point x="114" y="275" type="curve" smooth="yes"/>
      <point x="114" y="344"/>
      <point x="127" y="436"/>
      <point x="182" y="525" type="curve" smooth="yes"/>
      <point x="240" y="619"/>
      <point x="349" y="707"/>
      <point x="537" y="707" type="curve" smooth="yes"/>
      <point x="607" y="707"/>
      <point x="701" y="690"/>
      <point x="758" y="654" type="curve"/>
      <point x="722" y="504" type="line"/>
      <point x="692" y="504" type="line"/>
      <point x="697" y="613"/>
      <point x="654" y="672"/>
      <point x="529" y="672" type="curve" smooth="yes"/>
      <point x="422" y="672"/>
      <point x="343" y="614"/>
      <point x="293" y="530" type="curve" smooth="yes"/>
      <point x="245" y="450"/>
      <point x="221" y="339"/>
      <point x="221" y="249" type="curve" smooth="yes"/>
      <point x="221" y="95"/>
      <point x="304" y="20"/>
      <point x="420" y="20" type="curve" smooth="yes"/>
      <point x="543" y="20"/>
      <point x="594" y="86"/>
      <point x="649" y="186" type="curve"/>
      <point x="679" y="186" type="line"/>
      <point x="630" y="27" type="line"/>
      <point x="566" y="-5"/>
      <point x="498" y="-15"/>
      <point x="427" y="-15" type="curve" smooth="yes"/>
      <point x="179" y="-15"/>
      <point x="114" y="143"/>
    </contour>
    <contour>
      <point x="503" y="787" type="curve" smooth="yes"/>
      <point x="503" y="819"/>
      <point x="524" y="843"/>
      <point x="552" y="847" type="curve"/>
      <point x="555" y="848"/>
      <point x="559" y="848"/>
      <point x="562" y="848" type="curve" smooth="yes"/>
      <point x="592" y="848"/>
      <point x="610" y="824"/>
      <point x="610" y="799" type="curve"/>
      <point x="610" y="799"/>
      <point x="610" y="799"/>
      <point x="610" y="799" type="curve"/>
      <point x="610" y="768"/>
      <point x="591" y="743"/>
      <point x="562" y="739" type="curve"/>
      <point x="559" y="738"/>
      <point x="556" y="738"/>
      <point x="552" y="738" type="curve" smooth="yes"/>
      <point x="520" y="738"/>
      <point x="503" y="758"/>
    </contour>
  </outline>
</glyph>
<glyph name="Ccaron" format="2">
  <advance width="661"/>
  <unicode hex="010C"/>
  <outline>
    <contour>
      <point x="114" y="275" type="curve" smooth="yes"/>
      <point x="114" y="344"/>
      <point x="127" y="436"/>
      <point x="182" y="525" type="curve" smooth="yes"/>
      <point x="240" y="619"/>
      <point x="349" y="707"/>
      <point x="537" y="707" type="curve" smooth="yes"/>
      <point x="607" y="707"/>
      <point x="701" y="690"/>
      <point x="758" y="654" type="curve"/>
      <point x="722" y="504" type="line"/>
      <point x="692" y="504" type="line"/>
      <point x="697" y="613"/>
      <point x="654" y="672"/>
      <point x="529" y="672" type="curve" smooth="yes"/>
      <point x="422" y="672"/>
      <point x="343" y="614"/>
      <point x="293" y="530" type="curve" smooth="yes"/>
      <point x="245" y="450"/>
      <point x="221" y="339"/>
      <point x="221" y="249" type="curve" smooth="yes"/>
      <point x="221" y="95"/>
      <point x="304" y="20"/>
      <point x="420" y="20" type="curve" smooth="yes"/>
      <point x="543" y="20"/>
      <point x="594" y="86"/>
      <point x="649" y="186" type="curve"/>
      <point x="679" y="186" type="line"/>
      <point x="630" y="27" type="line"/>
      <point x="566" y="-5"/>
      <point x="498" y="-15"/>
      <point x="427" y="-15" type="curve" smooth="yes"/>
      <point x="179" y="-15"/>
      <point x="114" y="143"/>
    </contour>
    <contour>
      <point x="421" y="869" type="line"/>
      <point x="439" y="888" type="line"/>
      <point x="529" y="828" type="line" smooth="yes"/>
      <point x="541" y="820"/>
      <point x="552" y="813"/>
      <point x="561" y="813" type="curve" smooth="yes"/>
      <point x="569" y="813"/>
      <point x="584" y="820"/>
      <point x="597" y="827" type="curve" smooth="yes"/>
      <point x="714" y="888" type="line"/>
      <point x="727" y="868" type="line"/>
      <point x="587" y="757" type="line" smooth="yes"/>
      <point x="569" y="742"/>
      <point x="558" y="734"/>
      <point x="545" y="734" type="curve" smooth="yes"/>
      <point x="533" y="734"/>
      <point x="523" y="745"/>
      <point x="512" y="759" type="curve" smooth="yes"/>
    </contour>
  </outline>
</glyph>
<glyph name="ccaron" format="2">
  <advance width="441"/>
  <unicode hex="010D"/>
  <outline>
    <contour>
      <point x="81" y="148" type="curve" smooth="yes"/>
      <point x="81" y="312"/>
      <point x="193" y="502"/>
      <point x="371" y="502" type="curve" smooth="yes"/>
      <point x="446" y="502"/>
      <point x="500" y="464"/>
      <point x="500" y="413" type="curve" smooth="yes"/>
      <point x="500" y="380"/>
      <point x="460" y="357"/>
      <point x="436" y="357" type="curve" smooth="yes"/>
      <point x="418" y="357"/>
      <point x="409" y="369"/>
      <point x="407" y="387" type="curve"/>
      <point x="406" y="399"/>
      <point x="404" y="409"/>
      <point x="402" y="418" type="curve"/>
      <point x="392" y="454"/>
      <point x="373" y="467"/>
      <point x="347" y="467" type="curve" smooth="yes"/>
      <point x="255" y="467"/>
      <point x="180" y="298"/>
      <point x="180" y="168" type="curve" smooth="yes"/>
      <point x="180" y="97"/>
      <point x="195" y="37"/>
      <point x="268" y="37" type="curve" smooth="yes"/>
      <point x="335" y="37"/>
      <point x="394" y="108"/>
      <point x="428" y="154" type="curve"/>
      <point x="452" y="135" type="line"/>
      <point x="383" y="20"/>
      <point x="298" y="-12"/>
      <point x="224" y="-12" type="curve" smooth="yes"/>
      <point x="154" y="-12"/>
      <point x="81" y="26"/>
    </contour>
    <contour>
      <point x="264" y="710" type="line"/>
      <point x="287" y="731" type="line"/>
      <point x="372" y="656" type="line"/>
      <point x="382" y="648"/>
      <point x="391" y="641"/>
      <point x="400" y="641" type="curve" smooth="yes"/>
      <point x="407" y="641"/>
      <point x="420" y="648"/>
      <point x="432" y="656" type="curve" smooth="yes"/>
      <point x="547" y="731" type="line"/>
      <point x="561" y="710" type="line"/>
      <point x="423" y="581" type="line"/>
      <point x="408" y="568"/>
      <point x="395" y="557"/>
      <point x="383" y="557" type="curve" smooth="yes"/>
      <point x="372" y="557"/>
      <point x="362" y="569"/>
      <point x="353" y="581" type="curve"/>
    </contour>
  </outline>
</glyph>
<glyph name="dcroat" format="2">
  <advance width="587"/>
  <unicode hex="0111"/>
  <outline>
    <contour>
      <point x="171" y="112" type="curve" smooth="yes"/>
      <point x="171" y="67"/>
      <point x="189" y="40"/>
      <point x="221" y="40" type="curve" smooth="yes"/>
      <point x="274" y="40"/>
      <point x="340" y="115"/>
      <point x="388" y="193" type="curve" smooth="yes"/>
      <point x="439" y="276"/>
      <point x="472" y="370"/>
      <point x="487" y="447" type="curve"/>
      <point x="475" y="458"/>
      <point x="449" y="467"/>
      <point x="418" y="467" type="curve" smooth="yes"/>
      <point x="258" y="467"/>
      <point x="171" y="220"/>
    </contour>
    <contour>
      <point x="72" y="120" type="curve" smooth="yes"/>
      <point x="72" y="236"/>
      <point x="169" y="479"/>
      <point x="381" y="500" type="curve" smooth="yes"/>
      <point x="391" y="501"/>
      <point x="401" y="502"/>
      <point x="412" y="502" type="curve" smooth="yes"/>
      <point x="446" y="502"/>
      <point x="477" y="495"/>
      <point x="496" y="485" type="curve"/>
      <point x="498" y="487" type="line"/>
      <point x="520" y="582" type="line"/>
      <point x="404" y="582" type="line"/>
      <point x="418" y="641" type="line"/>
      <point x="534" y="641" type="line"/>
      <point x="536" y="648" type="line"/>
      <point x="544" y="680"/>
      <point x="542" y="687"/>
      <point x="518" y="689" type="curve" smooth="yes"/>
      <point x="458" y="695" type="line"/>
      <point x="464" y="718" type="line"/>
      <point x="642" y="742" type="line"/>
      <point x="647" y="737" type="line"/>
      <point x="623" y="641" type="line"/>
      <point x="696" y="641" type="line"/>
      <point x="682" y="582" type="line"/>
      <point x="609" y="582" type="line"/>
      <point x="495" y="119" type="line"/>
      <point x="489" y="95" type="line" smooth="yes"/>
      <point x="481" y="63"/>
      <point x="479" y="40"/>
      <point x="499" y="40" type="curve" smooth="yes"/>
      <point x="527" y="40"/>
      <point x="571" y="111"/>
      <point x="589" y="146" type="curve"/>
      <point x="613" y="132" type="line"/>
      <point x="579" y="56"/>
      <point x="523" y="-12"/>
      <point x="450" y="-12" type="curve"/>
      <point x="399" y="-13"/>
      <point x="384" y="28"/>
      <point x="404" y="99" type="curve" smooth="yes"/>
      <point x="437" y="218" type="line"/>
      <point x="435" y="218" type="line"/>
      <point x="376" y="111"/>
      <point x="287" y="-12"/>
      <point x="172" y="-12" type="curve" smooth="yes"/>
      <point x="91" y="-12"/>
      <point x="72" y="55"/>
    </contour>
  </outline>
</glyph>
<glyph name="emacron" format="2">
  <advance width="453"/>
  <unicode hex="0113"/>
  <outline>
    <contour>
      <point x="182" y="226" type="curve"/>
      <point x="351" y="262"/>
      <point x="412" y="338"/>
      <point x="412" y="408" type="curve" smooth="yes"/>
      <point x="412" y="434"/>
      <point x="399" y="454"/>
      <point x="378" y="463" type="curve" smooth="yes"/>
      <point x="371" y="466"/>
      <point x="363" y="467"/>
      <point x="354" y="467" type="curve" smooth="yes"/>
      <point x="274" y="467"/>
      <point x="199" y="347"/>
    </contour>
    <contour>
      <point x="80" y="152" type="curve" smooth="yes"/>
      <point x="80" y="236"/>
      <point x="110" y="323"/>
      <point x="163" y="388" type="curve" smooth="yes"/>
      <point x="213" y="450"/>
      <point x="279" y="493"/>
      <point x="358" y="501" type="curve" smooth="yes"/>
      <point x="366" y="502"/>
      <point x="374" y="502"/>
      <point x="382" y="502" type="curve" smooth="yes"/>
      <point x="464" y="502"/>
      <point x="506" y="455"/>
      <point x="506" y="402" type="curve" smooth="yes"/>
      <point x="506" y="374"/>
      <point x="499" y="341"/>
      <point x="464" y="306" type="curve"/>
      <point x="421" y="266"/>
      <point x="348" y="226"/>
      <point x="180" y="192" type="curve"/>
      <point x="179" y="185"/>
      <point x="179" y="181"/>
      <point x="179" y="176" type="curve" smooth="yes"/>
      <point x="179" y="97"/>
      <point x="200" y="37"/>
      <point x="270" y="37" type="curve" smooth="yes"/>
      <point x="345" y="37"/>
      <point x="399" y="104"/>
      <point x="435" y="151" type="curve"/>
      <point x="458" y="131" type="line"/>
      <point x="390" y="20"/>
      <point x="302" y="-12"/>
      <point x="229" y="-12" type="curve" smooth="yes"/>
      <point x="171" y="-12"/>
      <point x="80" y="12"/>
    </contour>
    <contour>
      <point x="263" y="597" type="line"/>
      <point x="281" y="656" type="line"/>
      <point x="559" y="656" type="line"/>
      <point x="541" y="597" type="line"/>
    </contour>
  </outline>
</glyph>
<glyph name="Eogonek" format="2">
  <advance width="596"/>
  <unicode hex="0118"/>
  <outline>
    <contour>
      <point x="38" y="0" type="line"/>
      <point x="44" y="29" type="line"/>
      <point x="100" y="35" type="line"/>
      <point x="124" y="37"/>
      <point x="133" y="49"/>
      <point x="141" y="83" type="curve" smooth="yes"/>
      <point x="255" y="586" type="line"/>
      <point x="261" y="611" type="line" smooth="yes"/>
      <point x="269" y="645"/>
      <point x="262" y="657"/>
      <point x="239" y="659" type="curve" smooth="yes"/>
      <point x="179" y="663" type="line"/>
      <point x="186" y="692" type="line"/>
      <point x="692" y="692" type="line"/>
      <point x="654" y="525" type="line"/>
      <point x="624" y="525" type="line"/>
      <point x="626" y="545"/>
      <point x="628" y="563"/>
      <point x="628" y="578" type="curve" smooth="yes"/>
      <point x="628" y="632"/>
      <point x="608" y="657"/>
      <point x="510" y="657" type="curve" smooth="yes"/>
      <point x="437" y="657" type="line" smooth="yes"/>
      <point x="421" y="657"/>
      <point x="405" y="657"/>
      <point x="389" y="657" type="curve" smooth="yes"/>
      <point x="372" y="657"/>
      <point x="366" y="652"/>
      <point x="361" y="628" type="curve" smooth="yes"/>
      <point x="304" y="379" type="line"/>
      <point x="435" y="379" type="line" smooth="yes"/>
      <point x="523" y="379"/>
      <point x="534" y="395"/>
      <point x="560" y="464" type="curve"/>
      <point x="590" y="464" type="line"/>
      <point x="544" y="255" type="line"/>
      <point x="514" y="255" type="line"/>
      <point x="518" y="320"/>
      <point x="515" y="341"/>
      <point x="427" y="341" type="curve" smooth="yes"/>
      <point x="296" y="341" type="line"/>
      <point x="245" y="122" type="line" smooth="yes"/>
      <point x="234" y="75"/>
      <point x="235" y="60"/>
      <point x="250" y="48" type="curve" smooth="yes"/>
      <point x="263" y="38"/>
      <point x="313" y="35"/>
      <point x="362" y="35" type="curve" smooth="yes"/>
      <point x="463" y="35"/>
      <point x="511" y="47"/>
      <point x="553" y="119" type="curve"/>
      <point x="563" y="135"/>
      <point x="572" y="154"/>
      <point x="581" y="176" type="curve"/>
      <point x="611" y="176" type="line"/>
      <point x="560" y="0" type="line"/>
      <point x="486" y="0" type="line"/>
      <point x="445" y="-33"/>
      <point x="414" y="-69"/>
      <point x="406" y="-114" type="curve"/>
      <point x="405" y="-121"/>
      <point x="404" y="-129"/>
      <point x="404" y="-137" type="curve" smooth="yes"/>
      <point x="404" y="-171"/>
      <point x="427" y="-184"/>
      <point x="457" y="-184" type="curve" smooth="yes"/>
      <point x="474" y="-184"/>
      <point x="490" y="-182"/>
      <point x="510" y="-172" type="curve"/>
      <point x="518" y="-193" type="line"/>
      <point x="488" y="-222"/>
      <point x="454" y="-230"/>
      <point x="425" y="-230" type="curve"/>
      <point x="425" y="-230"/>
      <point x="425" y="-230"/>
      <point x="425" y="-230" type="curve"/>
      <point x="344" y="-230"/>
      <point x="333" y="-173"/>
      <point x="333" y="-152" type="curve" smooth="yes"/>
      <point x="333" y="-91"/>
      <point x="386" y="-36"/>
      <point x="444" y="0" type="curve"/>
    </contour>
  </outline>
</glyph>
<glyph name="Ecaron" format="2">
  <advance width="596"/>
  <unicode hex="011A"/>
  <outline>
    <contour>
      <point x="38" y="0" type="line"/>
      <point x="44" y="29" type="line"/>
      <point x="100" y="35" type="line"/>
      <point x="124" y="37"/>
      <point x="133" y="49"/>
      <point x="141" y="83" type="curve" smooth="yes"/>
      <point x="254" y="580" type="line" smooth="yes"/>
      <point x="256" y="590"/>
      <point x="259" y="601"/>
      <point x="261" y="611" type="curve"/>
      <point x="269" y="645"/>
      <point x="262" y="657"/>
      <point x="239" y="659" type="curve" smooth="yes"/>
      <point x="179" y="663" type="line"/>
      <point x="186" y="692" type="line"/>
      <point x="692" y="692" type="line"/>
      <point x="654" y="525" type="line"/>
      <point x="624" y="525" type="line"/>
      <point x="627" y="551"/>
      <point x="629" y="573"/>
      <point x="627" y="591" type="curve"/>
      <point x="624" y="636"/>
      <point x="600" y="657"/>
      <point x="510" y="657" type="curve" smooth="yes"/>
      <point x="419" y="657" type="line" smooth="yes"/>
      <point x="409" y="657"/>
      <point x="399" y="657"/>
      <point x="389" y="657" type="curve" smooth="yes"/>
      <point x="372" y="657"/>
      <point x="366" y="652"/>
      <point x="361" y="628" type="curve" smooth="yes"/>
      <point x="304" y="379" type="line"/>
      <point x="435" y="379" type="line" smooth="yes"/>
      <point x="523" y="379"/>
      <point x="534" y="395"/>
      <point x="560" y="464" type="curve"/>
      <point x="590" y="464" type="line"/>
      <point x="544" y="255" type="line"/>
      <point x="514" y="255" type="line"/>
      <point x="518" y="320"/>
      <point x="515" y="341"/>
      <point x="427" y="341" type="curve" smooth="yes"/>
      <point x="296" y="341" type="line"/>
      <point x="245" y="122" type="line" smooth="yes"/>
      <point x="241" y="106"/>
      <point x="239" y="94"/>
      <point x="238" y="85" type="curve" smooth="yes"/>
      <point x="236" y="65"/>
      <point x="240" y="56"/>
      <point x="250" y="48" type="curve" smooth="yes"/>
      <point x="263" y="38"/>
      <point x="313" y="35"/>
      <point x="362" y="35" type="curve" smooth="yes"/>
      <point x="471" y="35"/>
      <point x="519" y="49"/>
      <point x="564" y="139" type="curve"/>
      <point x="570" y="150"/>
      <point x="575" y="162"/>
      <point x="581" y="176" type="curve"/>
      <point x="611" y="176" type="line"/>
      <point x="560" y="0" type="line"/>
    </contour>
    <contour>
      <point x="345" y="869" type="line"/>
      <point x="363" y="888" type="line"/>
      <point x="453" y="828" type="line" smooth="yes"/>
      <point x="465" y="820"/>
      <point x="476" y="813"/>
      <point x="485" y="813" type="curve" smooth="yes"/>
      <point x="493" y="813"/>
      <point x="508" y="820"/>
      <point x="521" y="827" type="curve" smooth="yes"/>
      <point x="638" y="888" type="line"/>
      <point x="651" y="868" type="line"/>
      <point x="511" y="757" type="line" smooth="yes"/>
      <point x="493" y="742"/>
      <point x="482" y="734"/>
      <point x="469" y="734" type="curve" smooth="yes"/>
      <point x="457" y="734"/>
      <point x="447" y="745"/>
      <point x="436" y="759" type="curve" smooth="yes"/>
    </contour>
  </outline>
</glyph>
<glyph name="Gcircumflex" format="2">
  <advance width="709"/>
  <unicode hex="011C"/>
  <outline>
    <contour>
      <point x="114" y="285" type="curve" smooth="yes"/>
      <point x="114" y="373"/>
      <point x="143" y="479"/>
      <point x="209" y="563" type="curve" smooth="yes"/>
      <point x="279" y="652"/>
      <point x="390" y="707"/>
      <point x="543" y="707" type="curve" smooth="yes"/>
      <point x="627" y="707"/>
      <point x="706" y="690"/>
      <point x="767" y="657" type="curve"/>
      <point x="731" y="501" type="line"/>
      <point x="701" y="501" type="line"/>
      <point x="708" y="587"/>
      <point x="689" y="672"/>
      <point x="542" y="672" type="curve" smooth="yes"/>
      <point x="303" y="672"/>
      <point x="224" y="438"/>
      <point x="224" y="278" type="curve" smooth="yes"/>
      <point x="224" y="101"/>
      <point x="313" y="20"/>
      <point x="434" y="20" type="curve" smooth="yes"/>
      <point x="517" y="20"/>
      <point x="542" y="36"/>
      <point x="552" y="57" type="curve" smooth="yes"/>
      <point x="555" y="63"/>
      <point x="557" y="68"/>
      <point x="558" y="74" type="curve"/>
      <point x="588" y="195" type="line"/>
      <point x="590" y="205"/>
      <point x="593" y="215"/>
      <point x="595" y="225" type="curve"/>
      <point x="604" y="260"/>
      <point x="597" y="271"/>
      <point x="578" y="273" type="curve" smooth="yes"/>
      <point x="503" y="280" type="line"/>
      <point x="509" y="309" type="line"/>
      <point x="772" y="309" type="line"/>
      <point x="766" y="280" type="line"/>
      <point x="722" y="276" type="line"/>
      <point x="705" y="274"/>
      <point x="699" y="259"/>
      <point x="691" y="225" type="curve"/>
      <point x="691" y="225"/>
      <point x="691" y="225"/>
      <point x="691" y="225" type="curve"/>
      <point x="644" y="23" type="line"/>
      <point x="587" y="2"/>
      <point x="505" y="-15"/>
      <point x="432" y="-15" type="curve" smooth="yes"/>
      <point x="339" y="-15"/>
      <point x="258" y="8"/>
      <point x="199" y="59" type="curve" smooth="yes"/>
      <point x="147" y="104"/>
      <point x="114" y="185"/>
    </contour>
    <contour>
      <point x="397" y="742" type="line"/>
      <point x="537" y="853" type="line" smooth="yes"/>
      <point x="555" y="868"/>
      <point x="566" y="876"/>
      <point x="579" y="876" type="curve" smooth="yes"/>
      <point x="591" y="876"/>
      <point x="601" y="865"/>
      <point x="612" y="851" type="curve" smooth="yes"/>
      <point x="703" y="741" type="line"/>
      <point x="685" y="722" type="line"/>
      <point x="606" y="774" type="line" smooth="yes"/>
      <point x="603" y="776"/>
      <point x="599" y="779"/>
      <point x="595" y="781" type="curve"/>
      <point x="587" y="787"/>
      <point x="579" y="792"/>
      <point x="573" y="795" type="curve"/>
      <point x="569" y="796"/>
      <point x="566" y="797"/>
      <point x="563" y="797" type="curve" smooth="yes"/>
      <point x="555" y="797"/>
      <point x="540" y="790"/>
      <point x="527" y="783" type="curve" smooth="yes"/>
      <point x="410" y="722" type="line"/>
    </contour>
  </outline>
</glyph>
<glyph name="uni0122" format="2">
  <advance width="709"/>
  <unicode hex="0122"/>
  <outline>
    <contour>
      <point x="327" y="-278" type="line"/>
      <point x="353" y="-253"/>
      <point x="377" y="-223"/>
      <point x="381" y="-196" type="curve"/>
      <point x="382" y="-193"/>
      <point x="382" y="-190"/>
      <point x="382" y="-187" type="curve" smooth="yes"/>
      <point x="382" y="-161"/>
      <point x="368" y="-150"/>
      <point x="364" y="-129" type="curve"/>
      <point x="363" y="-125"/>
      <point x="363" y="-121"/>
      <point x="363" y="-117" type="curve" smooth="yes"/>
      <point x="363" y="-95"/>
      <point x="381" y="-75"/>
      <point x="407" y="-75" type="curve" smooth="yes"/>
      <point x="442" y="-75"/>
      <point x="457" y="-101"/>
      <point x="457" y="-129" type="curve" smooth="yes"/>
      <point x="457" y="-199"/>
      <point x="393" y="-253"/>
      <point x="341" y="-292" type="curve"/>
    </contour>
    <contour>
      <point x="114" y="285" type="curve" smooth="yes"/>
      <point x="114" y="373"/>
      <point x="143" y="479"/>
      <point x="209" y="563" type="curve" smooth="yes"/>
      <point x="279" y="652"/>
      <point x="390" y="707"/>
      <point x="543" y="707" type="curve" smooth="yes"/>
      <point x="627" y="707"/>
      <point x="706" y="690"/>
      <point x="767" y="657" type="curve"/>
      <point x="731" y="501" type="line"/>
      <point x="701" y="501" type="line"/>
      <point x="708" y="587"/>
      <point x="689" y="672"/>
      <point x="542" y="672" type="curve" smooth="yes"/>
      <point x="303" y="672"/>
      <point x="224" y="438"/>
      <point x="224" y="278" type="curve" smooth="yes"/>
      <point x="224" y="101"/>
      <point x="313" y="20"/>
      <point x="434" y="20" type="curve" smooth="yes"/>
      <point x="517" y="20"/>
      <point x="542" y="36"/>
      <point x="552" y="57" type="curve" smooth="yes"/>
      <point x="555" y="63"/>
      <point x="557" y="68"/>
      <point x="558" y="74" type="curve"/>
      <point x="588" y="195" type="line"/>
      <point x="590" y="205"/>
      <point x="593" y="215"/>
      <point x="595" y="225" type="curve"/>
      <point x="604" y="260"/>
      <point x="597" y="271"/>
      <point x="578" y="273" type="curve" smooth="yes"/>
      <point x="503" y="280" type="line"/>
      <point x="509" y="309" type="line"/>
      <point x="772" y="309" type="line"/>
      <point x="766" y="280" type="line"/>
      <point x="722" y="276" type="line"/>
      <point x="705" y="274"/>
      <point x="699" y="259"/>
      <point x="691" y="225" type="curve"/>
      <point x="691" y="225"/>
      <point x="691" y="225"/>
      <point x="691" y="225" type="curve"/>
      <point x="644" y="23" type="line"/>
      <point x="587" y="2"/>
      <point x="505" y="-15"/>
      <point x="432" y="-15" type="curve" smooth="yes"/>
      <point x="339" y="-15"/>
      <point x="258" y="8"/>
      <point x="199" y="59" type="curve" smooth="yes"/>
      <point x="147" y="104"/>
      <point x="114" y="185"/>
    </contour>
  </outline>
</glyph>
